<svg preserveAspectRatio="xMidYMid meet" width="231" height="151" viewBox="0 0 231 151" fill="none" xmlns="http://www.w3.org/2000/svg">
    <path d="M67.35 40L55.9047 -1.19209e-06H65.143L71.7641 27.793H72.0961L79.4008 -1.19209e-06H87.3109L94.5961 27.8516H94.9477L101.569 -1.19209e-06H110.807L99.3617 40H91.1195L83.5023 13.8477H83.1898L75.5922 40H67.35ZM122.397 22.6563V40H114.077V-1.19209e-06H122.163V15.293H122.515C123.192 13.5221 124.285 12.1354 125.796 11.1328C127.306 10.1172 129.201 9.60938 131.479 9.60938C133.563 9.60938 135.379 10.0651 136.929 10.9766C138.491 11.875 139.702 13.1706 140.562 14.8633C141.434 16.543 141.864 18.5547 141.851 20.8984V40H133.53V22.3828C133.543 20.5339 133.075 19.0951 132.124 18.0664C131.187 17.0378 129.871 16.5234 128.179 16.5234C127.046 16.5234 126.043 16.7643 125.171 17.2461C124.312 17.7279 123.634 18.431 123.14 19.3555C122.658 20.2669 122.41 21.3672 122.397 22.6563ZM151.361 51.25C150.306 51.25 149.317 51.1654 148.392 50.9961C147.481 50.8398 146.726 50.638 146.127 50.3906L148.002 44.1797C148.978 44.4792 149.857 44.6419 150.638 44.668C151.433 44.694 152.116 44.5117 152.689 44.1211C153.275 43.7305 153.75 43.0664 154.115 42.1289L154.603 40.8594L143.841 10H152.591L158.802 32.0312H159.115L165.384 10H174.193L162.533 43.2422C161.973 44.8568 161.211 46.263 160.248 47.4609C159.297 48.6719 158.093 49.6029 156.634 50.2539C155.176 50.918 153.418 51.25 151.361 51.25ZM61.5439 67.9297C61.2705 66.9792 60.8864 66.1393 60.3916 65.4102C59.8968 64.668 59.2913 64.043 58.5752 63.5352C57.8721 63.0143 57.0648 62.6172 56.1533 62.3438C55.2549 62.0703 54.2588 61.9336 53.165 61.9336C51.1208 61.9336 49.3239 62.4414 47.7744 63.457C46.238 64.4727 45.04 65.9505 44.1807 67.8906C43.3213 69.8177 42.8916 72.1745 42.8916 74.9609C42.8916 77.7474 43.3148 80.1172 44.1611 82.0703C45.0075 84.0234 46.2054 85.5143 47.7549 86.543C49.3044 87.5586 51.1338 88.0664 53.2432 88.0664C55.1572 88.0664 56.7913 87.7279 58.1455 87.0508C59.5127 86.3607 60.5544 85.3906 61.2705 84.1406C61.9997 82.8906 62.3643 81.4128 62.3643 79.707L64.083 79.9609H53.7705V73.5937H70.5088V78.6328C70.5088 82.1484 69.7666 85.1693 68.2822 87.6953C66.7979 90.2083 64.7536 92.1484 62.1494 93.5156C59.5452 94.8698 56.5635 95.5469 53.2041 95.5469C49.4541 95.5469 46.1598 94.7201 43.3213 93.0664C40.4827 91.3997 38.2692 89.0365 36.6807 85.9766C35.1051 82.9036 34.3174 79.2578 34.3174 75.0391C34.3174 71.7969 34.7861 68.9062 35.7236 66.3672C36.6742 63.8151 38.0023 61.6536 39.708 59.8828C41.4137 58.112 43.3994 56.7643 45.665 55.8398C47.9307 54.9154 50.3851 54.4531 53.0283 54.4531C55.2939 54.4531 57.4033 54.7852 59.3564 55.4492C61.3096 56.1003 63.0413 57.0247 64.5518 58.2227C66.0752 59.4206 67.3187 60.8464 68.2822 62.5C69.2458 64.1406 69.8643 65.9505 70.1377 67.9297H61.5439ZM75.6051 95V65H83.6715V70.2344H83.984C84.5309 68.3724 85.4488 66.9661 86.7379 66.0156C88.027 65.0521 89.5113 64.5703 91.191 64.5703C91.6077 64.5703 92.0569 64.5964 92.5387 64.6484C93.0204 64.7005 93.4436 64.7721 93.8082 64.8633V72.2461C93.4176 72.1289 92.8772 72.0247 92.1871 71.9336C91.497 71.8424 90.8655 71.7969 90.2926 71.7969C89.0686 71.7969 87.9749 72.0638 87.0113 72.5977C86.0608 73.1185 85.3056 73.8477 84.7457 74.7852C84.1988 75.7227 83.9254 76.8034 83.9254 78.0273V95H75.6051ZM104.705 95.5664C102.791 95.5664 101.085 95.2344 99.5881 94.5703C98.0907 93.8932 96.9058 92.8971 96.0334 91.582C95.174 90.2539 94.7443 88.6003 94.7443 86.6211C94.7443 84.9544 95.0503 83.5547 95.6623 82.4219C96.2743 81.2891 97.1076 80.3776 98.1623 79.6875C99.217 78.9974 100.415 78.4766 101.756 78.125C103.11 77.7734 104.529 77.526 106.014 77.3828C107.759 77.2005 109.165 77.0312 110.233 76.875C111.3 76.7057 112.075 76.4583 112.557 76.1328C113.039 75.8073 113.279 75.3255 113.279 74.6875V74.5703C113.279 73.3333 112.889 72.3763 112.108 71.6992C111.339 71.0221 110.246 70.6836 108.826 70.6836C107.329 70.6836 106.138 71.0156 105.252 71.6797C104.367 72.3307 103.781 73.151 103.494 74.1406L95.799 73.5156C96.1897 71.6927 96.9579 70.1172 98.1037 68.7891C99.2495 67.4479 100.727 66.4193 102.537 65.7031C104.36 64.974 106.47 64.6094 108.865 64.6094C110.532 64.6094 112.127 64.8047 113.651 65.1953C115.187 65.5859 116.548 66.1914 117.733 67.0117C118.931 67.832 119.875 68.8867 120.565 70.1758C121.255 71.4518 121.6 72.9818 121.6 74.7656V95H113.709V90.8398H113.475C112.993 91.7773 112.349 92.6042 111.541 93.3203C110.734 94.0234 109.764 94.5768 108.631 94.9805C107.498 95.3711 106.19 95.5664 104.705 95.5664ZM107.088 89.8242C108.312 89.8242 109.393 89.5833 110.33 89.1016C111.268 88.6068 112.003 87.9427 112.537 87.1094C113.071 86.276 113.338 85.332 113.338 84.2773V81.0938C113.078 81.263 112.72 81.4193 112.264 81.5625C111.821 81.6927 111.32 81.8164 110.76 81.9336C110.2 82.0378 109.64 82.1354 109.08 82.2266C108.52 82.3047 108.013 82.3763 107.557 82.4414C106.58 82.5846 105.727 82.8125 104.998 83.125C104.269 83.4375 103.703 83.8607 103.299 84.3945C102.895 84.9154 102.694 85.5664 102.694 86.3477C102.694 87.4805 103.104 88.3464 103.924 88.9453C104.757 89.5312 105.812 89.8242 107.088 89.8242ZM153.849 65L143.361 95H133.986L123.498 65H132.287L138.517 86.4648H138.83L145.041 65H153.849ZM157.007 95V65H165.328V95H157.007ZM161.187 61.1328C159.95 61.1328 158.889 60.7227 158.003 59.9023C157.131 59.069 156.695 58.0729 156.695 56.9141C156.695 55.7682 157.131 54.7852 158.003 53.9648C158.889 53.1315 159.95 52.7148 161.187 52.7148C162.424 52.7148 163.479 53.1315 164.351 53.9648C165.236 54.7852 165.679 55.7682 165.679 56.9141C165.679 58.0729 165.236 59.069 164.351 59.9023C163.479 60.7227 162.424 61.1328 161.187 61.1328ZM195.854 73.5547L188.236 74.0234C188.106 73.3724 187.826 72.7865 187.396 72.2656C186.967 71.7318 186.4 71.3086 185.697 70.9961C185.007 70.6706 184.18 70.5078 183.217 70.5078C181.928 70.5078 180.84 70.7812 179.955 71.3281C179.07 71.862 178.627 72.5781 178.627 73.4766C178.627 74.1927 178.913 74.7982 179.486 75.293C180.059 75.7878 181.042 76.1849 182.436 76.4844L187.865 77.5781C190.782 78.1771 192.956 79.1406 194.389 80.4687C195.821 81.7969 196.537 83.5417 196.537 85.7031C196.537 87.6693 195.958 89.3945 194.799 90.8789C193.653 92.3633 192.077 93.5221 190.072 94.3555C188.08 95.1758 185.782 95.5859 183.178 95.5859C179.206 95.5859 176.042 94.7591 173.686 93.1055C171.342 91.4388 169.968 89.1732 169.564 86.3086L177.748 85.8789C177.995 87.0898 178.594 88.0143 179.545 88.6523C180.495 89.2773 181.713 89.5898 183.197 89.5898C184.656 89.5898 185.827 89.3099 186.713 88.75C187.611 88.1771 188.067 87.4414 188.08 86.543C188.067 85.7878 187.748 85.1693 187.123 84.6875C186.498 84.1927 185.535 83.8151 184.232 83.5547L179.037 82.5195C176.107 81.9336 173.926 80.918 172.494 79.4727C171.075 78.0273 170.365 76.1849 170.365 73.9453C170.365 72.0182 170.886 70.3581 171.928 68.9648C172.982 67.5716 174.46 66.4974 176.361 65.7422C178.275 64.987 180.515 64.6094 183.08 64.6094C186.869 64.6094 189.851 65.4102 192.025 67.0117C194.213 68.6133 195.489 70.7943 195.854 73.5547ZM0.53701 150V110H27.0214V116.973H8.99404V126.504H25.2636V133.477H8.99404V150H0.53701ZM31.4536 150V120H39.7739V150H31.4536ZM35.6333 116.133C34.3963 116.133 33.3351 115.723 32.4497 114.902C31.5773 114.069 31.1411 113.073 31.1411 111.914C31.1411 110.768 31.5773 109.785 32.4497 108.965C33.3351 108.132 34.3963 107.715 35.6333 107.715C36.8703 107.715 37.925 108.132 38.7974 108.965C39.6828 109.785 40.1255 110.768 40.1255 111.914C40.1255 113.073 39.6828 114.069 38.7974 114.902C37.925 115.723 36.8703 116.133 35.6333 116.133ZM53.6593 132.656V150H45.339V120H53.2687V125.293H53.6202C54.2843 123.548 55.3976 122.168 56.9601 121.152C58.5226 120.124 60.4171 119.609 62.6437 119.609C64.727 119.609 66.5434 120.065 68.0929 120.977C69.6423 121.888 70.8468 123.19 71.7062 124.883C72.5655 126.562 72.9952 128.568 72.9952 130.898V150H64.6749V132.383C64.6879 130.547 64.2192 129.115 63.2687 128.086C62.3181 127.044 61.0095 126.523 59.3429 126.523C58.2231 126.523 57.2335 126.764 56.3741 127.246C55.5278 127.728 54.8637 128.431 54.3819 129.355C53.9132 130.267 53.6723 131.367 53.6593 132.656ZM87.0075 150.566C85.0935 150.566 83.3877 150.234 81.8903 149.57C80.3929 148.893 79.208 147.897 78.3356 146.582C77.4763 145.254 77.0466 143.6 77.0466 141.621C77.0466 139.954 77.3526 138.555 77.9645 137.422C78.5765 136.289 79.4099 135.378 80.4645 134.687C81.5192 133.997 82.7172 133.477 84.0583 133.125C85.4125 132.773 86.8317 132.526 88.3161 132.383C90.0609 132.201 91.4672 132.031 92.5349 131.875C93.6026 131.706 94.3773 131.458 94.8591 131.133C95.3408 130.807 95.5817 130.326 95.5817 129.687V129.57C95.5817 128.333 95.1911 127.376 94.4099 126.699C93.6416 126.022 92.5479 125.684 91.1286 125.684C89.6312 125.684 88.4398 126.016 87.5544 126.68C86.669 127.331 86.083 128.151 85.7966 129.141L78.1013 128.516C78.4919 126.693 79.2601 125.117 80.406 123.789C81.5518 122.448 83.0297 121.419 84.8395 120.703C86.6625 119.974 88.7718 119.609 91.1677 119.609C92.8343 119.609 94.4294 119.805 95.9528 120.195C97.4893 120.586 98.85 121.191 100.035 122.012C101.233 122.832 102.177 123.887 102.867 125.176C103.557 126.452 103.902 127.982 103.902 129.766V150H96.0114V145.84H95.777C95.2953 146.777 94.6507 147.604 93.8435 148.32C93.0362 149.023 92.0661 149.577 90.9333 149.98C89.8005 150.371 88.4919 150.566 87.0075 150.566ZM89.3903 144.824C90.6143 144.824 91.695 144.583 92.6325 144.102C93.57 143.607 94.3057 142.943 94.8395 142.109C95.3734 141.276 95.6403 140.332 95.6403 139.277V136.094C95.3799 136.263 95.0218 136.419 94.5661 136.562C94.1234 136.693 93.6221 136.816 93.0622 136.934C92.5023 137.038 91.9424 137.135 91.3825 137.227C90.8226 137.305 90.3148 137.376 89.8591 137.441C88.8825 137.585 88.0297 137.812 87.3005 138.125C86.5713 138.437 86.0049 138.861 85.6013 139.395C85.1976 139.915 84.9958 140.566 84.9958 141.348C84.9958 142.48 85.406 143.346 86.2263 143.945C87.0596 144.531 88.1143 144.824 89.3903 144.824ZM117.577 132.656V150H109.257V120H117.187V125.293H117.538C118.202 123.548 119.316 122.168 120.878 121.152C122.441 120.124 124.335 119.609 126.562 119.609C128.645 119.609 130.462 120.065 132.011 120.977C133.561 121.888 134.765 123.19 135.624 124.883C136.484 126.562 136.913 128.568 136.913 130.898V150H128.593V132.383C128.606 130.547 128.137 129.115 127.187 128.086C126.236 127.044 124.928 126.523 123.261 126.523C122.141 126.523 121.152 126.764 120.292 127.246C119.446 127.728 118.782 128.431 118.3 129.355C117.831 130.267 117.59 131.367 117.577 132.656ZM155.926 150.586C152.853 150.586 150.21 149.935 147.996 148.633C145.795 147.318 144.103 145.495 142.918 143.164C141.746 140.833 141.16 138.151 141.16 135.117C141.16 132.044 141.753 129.349 142.937 127.031C144.135 124.701 145.835 122.884 148.035 121.582C150.236 120.267 152.853 119.609 155.887 119.609C158.504 119.609 160.795 120.085 162.762 121.035C164.728 121.986 166.284 123.32 167.43 125.039C168.575 126.758 169.207 128.776 169.324 131.094H161.473C161.251 129.596 160.665 128.392 159.715 127.48C158.777 126.556 157.547 126.094 156.023 126.094C154.734 126.094 153.608 126.445 152.644 127.148C151.694 127.839 150.952 128.848 150.418 130.176C149.884 131.504 149.617 133.112 149.617 135C149.617 136.914 149.878 138.542 150.398 139.883C150.932 141.224 151.681 142.246 152.644 142.949C153.608 143.652 154.734 144.004 156.023 144.004C156.974 144.004 157.827 143.809 158.582 143.418C159.35 143.027 159.982 142.461 160.476 141.719C160.984 140.964 161.316 140.059 161.473 139.004H169.324C169.194 141.296 168.569 143.314 167.449 145.059C166.342 146.79 164.812 148.145 162.859 149.121C160.906 150.098 158.595 150.586 155.926 150.586ZM187.223 150.586C184.137 150.586 181.481 149.961 179.254 148.711C177.041 147.448 175.335 145.664 174.137 143.359C172.939 141.042 172.34 138.301 172.34 135.137C172.34 132.051 172.939 129.342 174.137 127.012C175.335 124.681 177.021 122.865 179.196 121.562C181.383 120.26 183.948 119.609 186.891 119.609C188.87 119.609 190.713 119.928 192.418 120.566C194.137 121.191 195.635 122.135 196.911 123.398C198.2 124.661 199.202 126.25 199.918 128.164C200.635 130.065 200.993 132.292 200.993 134.844V137.129H175.661V131.973H193.161C193.161 130.775 192.9 129.714 192.379 128.789C191.859 127.865 191.136 127.142 190.211 126.621C189.3 126.087 188.239 125.82 187.028 125.82C185.765 125.82 184.645 126.113 183.668 126.699C182.705 127.272 181.95 128.047 181.403 129.023C180.856 129.987 180.576 131.061 180.563 132.246V137.148C180.563 138.633 180.836 139.915 181.383 140.996C181.943 142.077 182.731 142.91 183.747 143.496C184.762 144.082 185.967 144.375 187.36 144.375C188.284 144.375 189.131 144.245 189.899 143.984C190.667 143.724 191.325 143.333 191.872 142.812C192.418 142.292 192.835 141.654 193.122 140.898L200.817 141.406C200.426 143.255 199.625 144.87 198.415 146.25C197.217 147.617 195.667 148.685 193.766 149.453C191.878 150.208 189.697 150.586 187.223 150.586ZM212.471 138.008V137.344C212.484 135.065 212.686 133.249 213.076 131.895C213.48 130.54 214.066 129.447 214.834 128.613C215.602 127.78 216.527 127.025 217.608 126.348C218.415 125.827 219.137 125.286 219.775 124.727C220.414 124.167 220.921 123.548 221.299 122.871C221.677 122.181 221.865 121.413 221.865 120.566C221.865 119.668 221.65 118.88 221.221 118.203C220.791 117.526 220.212 117.005 219.483 116.641C218.766 116.276 217.972 116.094 217.1 116.094C216.253 116.094 215.453 116.283 214.697 116.66C213.942 117.025 213.324 117.572 212.842 118.301C212.36 119.017 212.1 119.909 212.061 120.977H204.092C204.157 118.372 204.782 116.224 205.967 114.531C207.152 112.826 208.721 111.556 210.674 110.723C212.627 109.876 214.782 109.453 217.139 109.453C219.73 109.453 222.022 109.883 224.014 110.742C226.006 111.589 227.568 112.819 228.701 114.434C229.834 116.048 230.4 117.995 230.4 120.273C230.4 121.797 230.147 123.151 229.639 124.336C229.144 125.508 228.447 126.549 227.549 127.461C226.65 128.359 225.589 129.173 224.365 129.902C223.337 130.514 222.49 131.152 221.826 131.816C221.175 132.48 220.687 133.249 220.361 134.121C220.049 134.993 219.886 136.068 219.873 137.344V138.008H212.471ZM216.338 150.508C215.036 150.508 213.923 150.052 212.998 149.141C212.087 148.216 211.637 147.109 211.65 145.82C211.637 144.544 212.087 143.451 212.998 142.539C213.923 141.628 215.036 141.172 216.338 141.172C217.575 141.172 218.662 141.628 219.6 142.539C220.537 143.451 221.012 144.544 221.025 145.82C221.012 146.68 220.785 147.467 220.342 148.184C219.912 148.887 219.346 149.453 218.643 149.883C217.94 150.299 217.171 150.508 216.338 150.508Z" fill="white"/>
</svg>
