<svg width="24" height="26" viewBox="0 0 24 26" fill="none" xmlns="http://www.w3.org/2000/svg">
<path opacity="0.3" d="M23.9986 13.0786C23.9564 14.2615 23.0285 15.1715 21.932 15.1715H18.9376C16.1963 15.1715 14.0032 17.5373 14.0032 20.4947V23.8161C14.0032 24.999 13.1176 26 11.9789 26C10.8824 26 9.95453 25.0445 9.95453 23.8161V20.4947C9.95453 17.5373 7.76146 15.1715 5.02013 15.1715H2.06793C0.971402 15.1715 0.00138312 14.2615 0.00138312 13.0786C-0.0407912 11.8501 0.887063 10.8492 2.02577 10.8492H5.10449C7.84581 10.8492 10.0389 8.4833 10.0389 5.52594V2.25006C10.0389 1.15811 10.7558 0.157141 11.768 0.0206472C12.9911 -0.161344 14.0454 0.885141 14.0454 2.15908V5.4804C14.0454 8.43776 16.2385 10.8037 18.9798 10.8037H22.0585C23.1551 10.8492 24.0407 11.8501 23.9986 13.0786Z" fill="white"/>
</svg>
