<svg xmlns="http://www.w3.org/2000/svg" width="13" height="14" fill="none" viewBox="0 0 13 14"><path fill="#fff" d="M12.9992 7.04231C12.9764 7.67928 12.4738 8.16926 11.8798 8.16926H10.2579C8.773 8.16926 7.58509 9.44318 7.58509 11.0356V12.824C7.58509 13.461 7.10536 14 6.48856 14C5.89461 14 5.39204 13.4855 5.39204 12.824V11.0356C5.39204 9.44318 4.20412 8.16926 2.71924 8.16926H1.12013C0.526176 8.16926 0.00074919 7.67928 0.00074919 7.04231C-0.0220952 6.38084 0.480493 5.84186 1.09729 5.84186H2.76493C4.24982 5.84186 5.43773 4.56793 5.43773 2.97551V1.21157C5.43773 0.623596 5.82608 0.0846144 6.37434 0.0111177C7.03683 -0.0868778 7.60794 0.476614 7.60794 1.16258V2.95098C7.60794 4.54341 8.79584 5.81737 10.2807 5.81737H11.9484C12.5423 5.84187 13.0221 6.38084 12.9992 7.04231Z" opacity=".3"/></svg>