<svg xmlns="http://www.w3.org/2000/svg" width="9" height="10" fill="none" viewBox="0 0 9 10"><path fill="#F88800" d="M8.99946 5.03022C8.98364 5.4852 8.6357 5.83518 8.2245 5.83518H7.10162C6.07362 5.83518 5.25122 6.74513 5.25122 7.88258V9.16003C5.25122 9.61501 4.9191 10 4.49208 10C4.08088 10 3.73295 9.63251 3.73295 9.16003V7.88258C3.73295 6.74513 2.91055 5.83518 1.88255 5.83518H0.775475C0.364276 5.83518 0.00051867 5.4852 0.00051867 5.03022C-0.0152967 4.55775 0.332649 4.17276 0.759663 4.17276H1.91418C2.94218 4.17276 3.76458 3.26281 3.76458 2.12536V0.865406C3.76458 0.445425 4.03344 0.0604388 4.41301 0.00794122C4.87165 -0.0620556 5.26704 0.340439 5.26704 0.830416V2.10785C5.26704 3.24529 6.08943 4.15526 7.11743 4.15526H8.27196C8.68316 4.17276 9.01527 4.55775 8.99946 5.03022Z"/></svg>