<svg width="722" height="397" viewBox="0 0 722 397" fill="none" xmlns="http://www.w3.org/2000/svg">
<path opacity="0.1" d="M650.554 391.046C613.608 367.482 573.876 348.209 532.577 331.727C528.601 311.079 521.181 290.83 510.085 271.611C456.626 179.016 337.789 147.111 245.121 200.613C229.031 209.902 214.795 221.2 202.497 233.962C154.245 222.985 102.779 216.247 57.105 228.314C36.9213 233.61 22.1044 246.138 17.5016 261.906C13.2136 276.499 17.8495 292.098 30.5859 305.901C62.0415 340.084 117.119 357.55 148.285 365.082C147.637 399.226 155.921 433.875 174.2 465.534C227.659 558.129 346.452 589.96 439.046 536.501C465.342 521.319 486.664 500.963 502.627 477.346C544.455 490.443 601.635 508.283 651.18 502.92C668.37 501.041 681.829 497.343 691.438 491.794C700.601 486.504 706.235 479.577 708.224 470.979C714.297 445.026 683.572 412.109 650.554 391.046ZM473.739 241.344C483.89 251.872 492.969 263.813 500.624 277.073C509.828 293.014 516.347 309.811 520.382 326.949C485.231 313.374 449 301.714 412.517 290.993C420.462 287.896 425.224 283.756 427.024 278.446C429.847 270.261 424.83 262.43 420.016 254.781C414.913 246.802 411.761 241.172 414.004 236.798C415.241 234.296 419.642 233.145 426.365 233.436C435.83 233.831 445.09 235.934 454.862 238.238C460.213 239.42 465.724 240.707 471.212 241.611C471.991 241.757 472.908 241.625 473.739 241.344ZM250.701 210.105C318.861 170.752 402.102 180.4 459.372 227.986C458.667 227.797 457.888 227.651 457.226 227.537C447.379 225.276 437.222 222.995 426.829 222.54C415.314 222.037 407.753 225.111 404.262 231.795C398.984 242.093 405.538 252.413 410.77 260.615C414.22 266.073 417.755 271.68 416.713 274.864C415.997 277.065 412.55 279.353 407.192 281.255C403.986 282.411 400.522 283.119 396.599 283.894C395.991 284.047 395.427 284.273 394.906 284.574C394.459 284.832 394.055 285.165 393.694 285.572C367.499 278.049 341.179 270.997 315.126 263.889C301.848 260.332 288.645 256.731 275.634 253.119L264.311 250.022C248.715 245.717 232.136 241.085 215.047 236.947C225.531 226.722 237.441 217.76 250.701 210.105ZM261.317 260.491L272.683 263.662C285.694 267.274 298.929 270.758 312.175 274.433C382.804 293.547 454.918 312.997 522.765 339.677C524.312 349.411 525.092 359.191 525.018 368.868C512.855 363.972 499.869 358.855 485.633 353.467C379.509 313.129 283.493 283.245 193.021 262.278C197.04 256.68 201.411 251.176 206.071 246.002C225.382 250.547 243.958 255.713 261.317 260.491ZM535.342 384.858C553.524 392.438 569.72 399.674 585.116 407.074C587.341 408.174 589.639 409.231 591.938 410.287C608.756 418.257 626.161 426.384 637.37 439.777C643.302 446.782 645.347 453.249 643.362 458.07C641.135 463.329 634.066 466.913 624.435 467.607C591.479 470.047 555.182 457.929 523.773 446.364C522.395 445.869 520.933 445.918 519.656 446.457C528.157 426.948 533.495 406.088 535.342 384.858ZM38.6187 298.482C28.5626 287.602 24.8822 275.722 27.9707 264.9C30.335 256.781 36.5024 249.744 45.2925 244.669C49.613 242.175 54.5012 240.147 59.8938 238.821C101.551 227.882 149.01 233.357 194.153 243.249C189.652 248.529 185.548 253.978 181.689 259.682C177.78 258.76 173.84 257.956 169.974 257.109C155.023 253.922 141.752 251.751 129.286 250.804C119.723 250.067 111.88 249.729 104.529 249.9C86.9375 250.224 74.8636 255.804 70.6285 265.5C67.639 272.192 67.3275 283.695 82.2857 300.486C97.9521 318.159 122.341 325.135 143.909 331.355C146.185 332.028 148.417 332.626 150.575 333.267C150.928 333.361 151.163 333.424 151.473 333.444C150.222 340.225 149.25 347.143 148.78 354.069C118.648 346.436 67.5115 329.774 38.6187 298.482ZM175.535 269.493C165.665 286.117 158.415 304.009 153.911 322.7L153.793 322.669C151.561 322.071 149.285 321.398 147.009 320.725C126.894 314.957 104.033 308.391 90.479 293.173C81.965 283.587 78.449 275.089 80.6767 269.83C81.49 267.97 83.1257 266.33 85.5095 264.954C89.83 262.459 96.5236 260.978 104.802 260.867C111.769 260.719 119.303 261.037 128.481 261.796C140.371 262.778 153.247 264.78 167.771 267.916C170.301 268.343 172.918 268.918 175.535 269.493ZM471.352 498.183C462.614 495.779 453.885 492.873 445.39 490.03C439.609 488.103 433.594 486.113 427.547 484.241C424.641 483.337 421.618 484.982 420.713 487.888C419.809 490.795 421.455 493.817 424.361 494.722C430.247 496.488 436.188 498.521 441.926 500.373C448.454 502.563 455.218 504.816 462.045 506.834C453.361 514.331 443.864 521.105 433.584 527.04C372.351 562.393 299.036 558.238 243.248 522.51C243.323 522.467 243.354 522.349 243.429 522.306C255.411 508.138 268.453 511.633 284.903 516.04C295.008 518.748 305.423 521.476 316.407 520.2C329.107 518.628 333.165 512.412 334.37 507.445C337.638 493.838 321.877 476.517 313.092 470.763C310.567 469.142 307.177 469.808 305.513 472.258C303.892 474.784 304.558 478.173 307.009 479.838C315.355 485.348 325.103 498.791 323.657 504.889C322.945 507.784 318.618 508.891 314.982 509.302C306.067 510.377 296.667 507.858 287.619 505.434C270.699 500.9 251.472 495.811 234.99 515.26C234.703 515.624 234.385 516.105 234.216 516.501C214.072 501.909 196.672 482.953 183.468 460.084C148.631 399.745 152.236 327.541 186.513 271.994C233.324 282.711 281.511 295.812 331.939 311.591C331.567 311.806 331.163 312.139 330.759 312.471C324.142 319.073 312.441 317.386 301.049 315.719C295.412 314.901 290.01 314.146 285.05 314.328C271.247 314.849 263.221 319.184 261.155 327.131C258.301 338.016 266.855 346.982 275.732 351.691C285.325 356.78 295.776 358.195 305.8 359.559C315.472 360.828 324.568 362.132 332.493 366.396C336.835 368.756 341.852 374.004 342.727 378.962C343.089 381.137 342.617 382.899 341.216 384.602C339.231 386.84 339.482 390.371 341.795 392.313C344.033 394.298 347.564 394.048 349.506 391.735C353.147 387.547 354.575 382.451 353.559 377.078C351.983 368.155 344.512 360.549 337.817 356.866C328.17 351.511 317.526 350.107 307.31 348.755C297.756 347.517 288.777 346.245 280.821 342.098C279.709 341.548 270.061 336.192 271.73 329.965C272.423 327.38 277.557 325.607 285.515 325.284C289.398 325.128 294.298 325.874 299.508 326.64C312.224 328.536 327.928 330.792 338.476 320.332C340.186 318.65 340.538 316.162 339.526 314.065C384.976 328.447 432.25 344.956 481.742 363.758C497.282 369.685 511.485 375.192 524.526 380.575C523.958 389.742 522.655 398.838 520.689 407.82C520.368 407.608 520.047 407.396 519.694 407.301C509.337 402.952 498.222 398.84 486.716 395.253C486.555 395.147 468.062 389.436 463.757 388.346C459.453 387.255 452.598 386.048 448.116 385.855C443.015 385.621 427.712 384.921 422.818 395.196C419.024 403.247 423.469 414.387 435.982 428.318C436.315 428.722 437.086 429.37 437.986 430.241C440.921 432.916 442.893 434.956 443.902 436.36C439.037 438.771 432.492 437.584 426.138 436.385L425.594 436.303C420.372 435.344 415.097 434.119 409.542 432.757C396.288 429.583 382.638 426.241 368.602 427.391C357.137 428.349 353.271 434.555 351.911 438.22C349.265 445.508 352.283 454.692 359.742 462.106C363.878 466.173 368.983 469.682 371.669 471.409C378.281 475.637 385.306 479.03 392.127 482.244C394.629 483.481 397.088 484.643 399.59 485.881C402.253 487.224 405.577 486.099 406.92 483.437C408.263 480.774 407.138 477.45 404.476 476.107C401.974 474.87 399.397 473.676 396.852 472.364C390.031 469.151 383.562 466.033 377.549 462.154C373.622 459.654 369.864 456.758 367.442 454.283C362.523 449.376 361.263 444.441 362.191 441.919C363.15 439.28 366.689 438.528 369.526 438.28C381.833 437.233 394.661 440.356 407.018 443.352C412.455 444.683 418.083 446.002 423.657 447.055L424.127 447.181C432.659 448.711 443.219 450.66 451.929 444.241C454.109 442.684 455.358 440.374 455.474 437.823C455.748 432.103 450.625 427.016 445.291 422.249C444.723 421.782 444.273 421.347 444.069 421.166C434.409 410.455 431.397 402.658 432.666 400.039C433.522 398.253 437.889 396.527 447.546 396.91C451.1 397.044 457.336 398.211 461.053 399.144C464.417 399.983 479.417 404.632 483.424 405.894C494.578 409.387 505.414 413.361 515.494 417.573C516.402 417.942 517.374 418.077 518.291 417.945C510.016 447.652 494.115 475.506 471.352 498.183ZM697.598 468.572C693.986 484.165 669.708 489.939 650.108 492.117C603.933 497.124 549.446 480.509 508.762 467.844C511.631 463.009 514.266 458.111 516.666 453.149C517.185 454.737 518.343 456.055 520 456.687C552.509 468.61 590.067 481.192 625.21 478.582C639.214 477.549 649.494 471.614 653.411 462.399C655.533 457.301 657.363 446.709 645.779 432.837C633.036 417.647 613.684 408.558 596.631 400.525C594.333 399.469 592.109 398.369 589.928 397.344C573.419 389.394 555.919 381.619 536.081 373.407C536.347 363.718 535.845 354.076 534.65 344.436C573.246 360.193 610.296 378.433 644.716 400.376C674.482 419.245 702.151 448.761 697.598 468.572Z" fill="white"/>
</svg>
