<svg width="27" height="48" viewBox="0 0 27 48" fill="none" xmlns="http://www.w3.org/2000/svg">
<path d="M15.4461 8.98985C15.6156 7.48589 15.7098 6.05621 15.8039 4.88646C15.8604 4.05093 15.9169 3.23395 15.9546 2.39842C15.9734 2.02707 15.9923 1.67429 15.9734 1.37721V1.35865C15.9358 0.56025 15.7286 0.0774882 14.881 0.00321856C14.4102 -0.0339163 13.6757 0.24459 13.6003 1.13583L13.5626 1.47005C13.3555 3.58674 13.0918 6.1676 13.0541 8.84131C12.9599 9.60257 12.8658 10.3638 12.7528 11.1251C11.5474 18.8863 7.83702 22.674 1.13202 23.0454C0.472822 23.0825 -0.0357036 23.6396 0.0019649 24.2894C0.0396335 24.9393 0.58583 25.4406 1.26386 25.4035C1.50871 25.3849 1.73472 25.3663 1.97956 25.3477C2.16791 25.5706 2.43159 25.7191 2.73293 25.7748C10.4173 26.8889 12.4703 30.8437 12.4514 37.2123C12.3384 37.8993 12.2442 38.5863 12.1501 39.2176C11.8864 40.9815 11.7734 42.764 11.6792 44.1008C11.6604 44.5093 11.6415 44.8992 11.6227 45.3077L11.6039 45.7533C11.6039 45.8462 11.585 46.0133 11.585 46.1618C11.5474 46.756 11.472 47.87 12.6209 48C12.6586 48 12.6963 48 12.7339 48C13.186 48 13.8263 47.7215 13.9393 46.9231C14.3914 43.6738 14.8622 40.3874 14.8622 37.3237C15.5026 33.4803 16.5761 29.3398 19.7968 27.1674C20.6443 26.5918 21.7744 26.2204 23.3753 26.0162C23.9968 25.9233 24.6372 25.8862 25.1646 25.8676C25.2211 25.8676 25.3152 25.8676 25.4094 25.8676C25.7673 25.8676 26.8596 25.8676 26.9915 24.8093C27.0668 24.2151 26.6336 23.6395 26.0498 23.5096C25.5601 23.3982 25.0892 23.2868 24.6184 23.1939C22.6408 22.7669 21.0964 22.4327 19.4954 21.2258C16.1618 18.7192 15.4084 13.7617 15.4461 8.98985ZM17.9887 23.0825C18.7044 23.621 19.4201 24.0295 20.1358 24.3451C19.4954 24.5865 18.9116 24.865 18.4031 25.2178C16.2371 26.6846 14.8622 28.8199 13.9582 31.1222C12.9035 28.0586 10.7187 25.6077 6.63163 24.2523C9.98413 22.8783 12.3761 20.2788 13.8263 16.4168C14.5609 19.0905 15.8416 21.4486 17.9887 23.0825Z" fill="white"/>
</svg>
