<svg width="13" height="14" viewBox="0 0 18 19" fill="none" xmlns="http://www.w3.org/2000/svg">
    <path d="M17.9989 9.55742C17.9673 10.4219 17.2714 11.0868 16.449 11.0868H14.2032C12.1472 11.0868 10.5024 12.8158 10.5024 14.9769V17.4041C10.5024 18.2685 9.83819 19 8.98416 19C8.16177 19 7.46589 18.3018 7.46589 17.4041V14.9769C7.46589 12.8158 5.82109 11.0868 3.7651 11.0868H1.55095C0.728551 11.0868 0.00103734 10.4219 0.00103734 9.55742C-0.0305934 8.65972 0.665298 7.92824 1.51933 7.92824H3.82836C5.88436 7.92824 7.52916 6.19934 7.52916 4.03819V1.64427C7.52916 0.846308 8.06687 0.114834 8.82601 0.0150883C9.7433 -0.117906 10.5341 0.646834 10.5341 1.57779V4.00491C10.5341 6.16606 12.1789 7.895 14.2349 7.895H16.5439C17.3663 7.92825 18.0305 8.65972 17.9989 9.55742Z" fill="white"/>
</svg>