<svg width="96" height="24" viewBox="0 0 96 24" fill="none" xmlns="http://www.w3.org/2000/svg">
    <path d="M48.7463 12.2772V7.56931C48.7463 6.70231 48.0116 6 47.1047 6C46.1977 6 45.463 6.70231 45.463 7.56931V11.2307V16.625L42.522 15.1821C41.8529 14.8538 41.0382 14.976 40.5069 15.4839C39.8033 16.1564 39.8366 17.2561 40.5791 17.8894L45.942 22.4613C46.35 22.8077 46.8757 23 47.4214 23H52.571C53.6124 23 54.515 22.3083 54.7406 21.3361L55.9332 16.2043C56.2811 14.7061 55.233 13.2377 53.6469 13.0029L48.7463 12.2772Z" stroke="white" stroke-opacity="0.5" stroke-width="2" stroke-linecap="round" stroke-linejoin="round"/>
    <path d="M41.7361 7C41.7361 4.239 43.9751 2 46.7361 2C49.4971 2 51.7361 4.239 51.7361 7" stroke="white" stroke-opacity="0.5" stroke-width="2" stroke-linecap="round" stroke-linejoin="round"/>
    <path d="M28.6464 6.29297L23.6464 11.293C23.2559 11.6835 23.2559 12.3167 23.6464 12.7072L28.6464 17.7072" stroke="#929292" stroke-width="2" stroke-linecap="round"/>
    <g opacity="0.5">
        <path d="M21.6464 6.29297L16.6464 11.293C16.2559 11.6835 16.2559 12.3167 16.6464 12.7072L21.6464 17.7072" stroke="#929292" stroke-width="2" stroke-linecap="round"/>
    </g>
    <g opacity="0.2">
        <path d="M14.6464 6.29297L9.64641 11.293C9.25588 11.6835 9.25588 12.3167 9.64641 12.7072L14.6464 17.7072" stroke="#929292" stroke-width="2" stroke-linecap="round"/>
    </g>
    <g opacity="0.2">
        <path d="M81.3536 6.29297L86.3536 11.293C86.7441 11.6835 86.7441 12.3167 86.3536 12.7072L81.3536 17.7072" stroke="#929292" stroke-width="2" stroke-linecap="round"/>
    </g>
    <path d="M67.3536 6.29297L72.3536 11.293C72.7441 11.6835 72.7441 12.3167 72.3536 12.7072L67.3536 17.7072" stroke="#929292" stroke-width="2" stroke-linecap="round"/>
    <g opacity="0.5">
        <path d="M74.3536 6.29297L79.3536 11.293C79.7441 11.6835 79.7441 12.3167 79.3536 12.7072L74.3536 17.7072" stroke="#929292" stroke-width="2" stroke-linecap="round"/>
    </g>
</svg>
