<svg xmlns="http://www.w3.org/2000/svg" width="190" height="226" fill="none" viewBox="0 0 190 226"><path fill="#414141" fill-rule="evenodd" d="M5.539 105.117C4.29347 106.08 3.23595 107.255 2.36642 108.571C0.039856 112.19 -0.571182 115.433 0.533356 118.324C1.9904 121.849 5.82103 123.424 7.60707 123.988C10.3096 134.563 15.5268 143.164 22.765 148.969C22.6945 152.846 24.3395 156.042 27.5356 158.252C27.7706 158.416 28.0291 158.51 28.3111 158.51C28.4051 160.484 28.7811 162.294 29.4392 163.868C30.5437 166.571 32.8468 169.414 35.6199 171.717C35.2438 171.976 34.8913 172.258 34.5153 172.563C34.1863 172.281 33.7163 172.14 33.2463 172.258C30.2147 172.939 27.6296 174.42 25.6791 176.488H25.5616C21.0964 176.888 18.0179 180.836 16.4198 188.262C15.5503 192.327 15.3857 196.158 15.3152 199.378C15.2682 201.963 15.3387 204.712 16.7253 207.18C20.0389 213.102 28.6637 215.758 34.4448 212.656C36.9594 211.316 38.8159 209.248 40.273 206.193C41.6125 203.396 42.0355 200.224 42.247 197.333C42.5055 196.699 42.7875 196.135 43.1635 195.641C43.798 194.772 44.5736 194.067 45.3961 193.338C47.1351 191.787 49.0857 190.024 49.3912 186.57C49.9784 186.241 50.5421 185.912 51.1058 185.583L51.1061 185.583L51.1064 185.583L51.1068 185.583C51.2712 185.488 51.4339 185.393 51.5958 185.299C52.0357 185.042 52.4697 184.789 52.9163 184.549L52.9226 184.545C53.7665 184.1 54.6105 183.655 55.4779 183.209C57.9925 181.917 60.6245 180.554 62.9746 178.815C63.1626 178.674 63.3036 178.509 63.3976 178.321H63.4211C65.4657 178.321 67.5572 178.133 69.6488 177.71H69.6723C68.5443 179.661 67.4867 181.682 66.7582 183.867C65.8652 183.327 64.8547 182.857 63.7266 182.81C61.6351 182.716 59.9195 183.914 58.5565 184.878L58.2275 185.113C55.6189 186.922 53.0103 188.943 51.5768 191.763C49.1797 192.539 47.5112 193.926 46.5711 195.876C45.2081 198.767 45.5606 202.715 47.6522 207.626C51.3183 216.251 55.7129 221.821 61.071 224.594C62.6456 225.416 64.4081 225.792 66.1942 225.792C70.3303 225.792 74.5839 223.701 76.7695 220.152C78.6261 217.121 78.6261 214.183 78.4145 210.94C78.391 210.423 78.109 209.976 77.686 209.741C77.6745 209.614 77.6629 209.493 77.6513 209.371L77.6508 209.365C77.639 209.242 77.6273 209.119 77.6155 208.989C77.5685 208.543 77.498 208.096 77.404 207.626C77.169 206.357 76.934 205.041 77.451 204.242C77.7565 203.772 78.5555 203.302 79.2606 202.903C79.3244 202.867 79.3876 202.832 79.45 202.797L79.4534 202.795C79.7571 202.626 80.0419 202.467 80.2946 202.292C82.5037 200.835 85.3942 198.438 85.6527 194.372C88.8958 192.798 92.2094 190.8 95.053 188.661C95.4055 188.379 95.617 187.956 95.6405 187.533C99.5886 187.298 103.443 186.358 106.568 184.713C112.584 181.541 115.663 174.114 113.595 168.122C115.298 164.319 116.005 160.075 116.613 156.427L116.627 156.348C117.614 150.52 118.483 144.245 118.319 137.853C118.295 137.665 118.272 137.5 118.201 137.336C122.126 133.999 124.687 130.168 126.685 124.74C132.631 121.332 135.239 117.29 135.921 110.522C136.344 106.174 135.216 103.001 132.607 101.333C132.595 101.333 132.589 101.327 132.584 101.321L132.584 101.321L132.581 101.318L132.578 101.316C132.576 101.314 132.574 101.313 132.572 101.312C132.569 101.31 132.565 101.309 132.56 101.309C132.772 99.7349 132.889 98.2074 132.983 96.6798C139.023 98.3014 144.052 97.6433 149.528 94.6118C149.998 94.3533 150.28 93.9067 150.303 93.4132C151.314 93.7422 152.348 93.9537 153.405 93.9772C155.473 94.0242 157.283 93.3897 158.646 92.0737C158.904 91.8387 159.045 91.5097 159.092 91.1807C166.918 91.6977 177.188 90.6872 185.131 83.919C189.361 80.2999 191.053 75.5762 189.338 72.1216C188.774 70.9936 187.223 68.855 183.392 68.5495C185.437 65.7295 186.048 62.1104 185.131 59.4548C184.167 56.7287 181.935 55.2247 178.903 55.2247C179.632 53.6031 179.961 51.9581 179.89 50.454C179.726 47.3284 178.292 45.0489 175.872 44.0149C172.887 42.7458 168.845 43.6388 165.837 46.2239C164.85 47.0699 164.051 48.104 163.393 49.1615C161.889 46.0359 159.186 43.0748 156.413 42.5108C155.003 42.2288 152.324 42.3228 150.327 46.0829C148.479 49.5907 148.842 53.0286 149.193 56.3504L149.199 56.3997C149.213 56.5417 149.227 56.6833 149.241 56.8247L149.241 56.8248C149.393 58.3441 149.541 59.8258 149.434 61.2878C145.438 61.1703 142.971 62.7449 141.467 64.6014C141.302 64.4839 141.091 64.4134 140.879 64.3664C136.91 63.7557 133.598 61.5721 130.426 59.4815L130.421 59.4783C127.601 57.6217 124.922 55.8592 121.938 55.2482C123.16 51.1826 123.63 46.6939 123.301 41.9468C123.066 38.4452 122.502 35.6721 121.562 33.2515C120.716 31.066 119.658 29.0919 118.413 27.2824C109.6 6.29629 92.2564 1.36116 82.6682 0.303629C66.9932 -1.43542 50.5898 4.43974 43.6806 14.2395C42.4351 16.0256 41.307 17.9291 40.367 19.9032C40.226 19.9032 40.0615 19.9032 39.9205 19.9502C31.4132 21.9712 18.5818 25.0498 13.2002 33.2046C10.8031 36.8237 10.5212 43.5213 11.1322 50.877C3.75298 57.4572 6.80804 68.7375 9.29912 77.8323L9.37683 78.1197L9.37706 78.1206C10.054 80.6243 10.6995 83.0117 11.0617 85.094C11.1322 85.5405 11.3907 85.893 11.7432 86.1045C7.91255 92.2382 6.00902 98.1604 5.539 105.117ZM12.1662 77.0568C10.0276 69.2311 7.65407 60.4888 11.5317 54.8957C12.3307 61.5228 13.6467 68.291 14.6807 73.5552C14.8257 74.3522 14.9706 75.1058 15.1059 75.8095L15.1064 75.8122L15.1066 75.8128L15.1067 75.8138C15.2345 76.478 15.3537 77.0978 15.4563 77.6678C15.5268 78.0203 15.7148 78.3258 15.9733 78.5373C15.9498 78.6197 15.9262 78.7079 15.9027 78.7961C15.8792 78.8842 15.8558 78.9722 15.8323 79.0543C15.7148 79.4773 15.7853 79.9004 15.9968 80.2294C15.4798 80.8169 14.9863 81.4279 14.5163 82.0624C14.3174 82.3109 14.1303 82.5711 13.9467 82.8265L13.9456 82.828L13.908 82.8802C13.8442 82.9689 13.7807 83.0569 13.7173 83.1434C13.3251 81.275 12.7744 79.2706 12.1986 77.1749L12.1662 77.0568ZM14.1167 50.9475C13.5057 44.0854 13.6702 37.9047 15.6678 34.8731C20.1094 28.1754 30.9667 25.2143 38.9334 23.3108C37.1944 27.8699 36.2544 32.758 36.1604 37.6462C33.5988 37.7872 29.1337 38.5157 27.6766 41.7823C26.7601 43.8269 27.1596 46.2709 27.4886 48.2215C26.5251 48.668 25.6086 49.232 24.786 49.9135C19.1459 54.5431 19.8744 63.5909 20.9084 68.902C20.6264 69.231 20.3679 69.5601 20.1094 69.9126C19.2399 71.1346 18.4409 72.4506 17.7594 73.8607L17.7591 73.8593L17.7591 73.859C17.7122 73.5776 17.6652 73.2961 17.5949 72.9912C16.4903 67.351 14.9158 59.2198 14.1873 51.7701C14.2343 51.5116 14.2108 51.2061 14.1167 50.9475ZM81.7046 109.582C80.2711 109.253 78.955 109.511 78.015 110.357C76.3083 111.862 76.211 114.053 76.1442 115.557L76.1409 115.632L76.135 115.762V115.927C74.2549 116.021 72.3279 116.115 70.4008 116.162C62.5281 116.397 53.6918 116.115 47.9812 112.261C47.7697 112.143 47.5582 112.049 47.3232 112.026C47.6011 110.933 47.8936 109.839 48.1892 108.735L48.1893 108.735L48.1893 108.734L48.1894 108.734L48.1894 108.734L48.1895 108.734L48.1895 108.734L48.1896 108.734C48.2688 108.438 48.3483 108.141 48.4277 107.843C48.5686 107.302 48.7121 106.762 48.8556 106.222C49.143 105.141 49.4303 104.059 49.6967 102.978C49.8847 102.931 50.0727 102.837 50.2372 102.696C53.4098 100.181 54.7259 96.3743 55.7129 93.0137C58.0395 85.0705 56.3004 76.5163 51.1303 70.7351C46.3127 65.3299 39.6385 62.2984 33.2228 62.6274C29.5567 62.8154 26.2666 64.0609 23.4935 66.317C22.906 62.0163 22.765 55.4127 26.6661 52.2166C29.3687 49.984 33.6458 49.279 37.4764 48.809C37.5718 49.1905 37.6826 49.5565 37.7964 49.9321C37.8228 50.0193 37.8493 50.107 37.8759 50.1955C40.9545 60.2068 47.7462 67.7035 57.0289 71.3226C56.4179 73.2262 56.3239 75.3177 57.4519 77.4328C59.614 81.4749 65.1367 83.0494 69.2258 82.5089C70.8943 82.2974 72.3514 81.7569 73.5029 80.9344C73.6204 81.4279 74.0199 81.8509 74.5604 81.9919C88.4258 85.5875 106.169 82.7674 114.535 68.385C114.676 68.15 114.747 67.915 114.747 67.6565C116.274 66.129 117.614 64.4134 118.765 62.5334C128.283 75.0122 131.55 86.7625 129.599 101.521C122.807 107.161 114.559 109.699 107.367 111.462C100.764 113.06 93.7605 114.282 86.4518 115.081C86.4518 114.446 86.4283 113.694 86.1227 112.989C85.4647 111.462 83.6082 110.028 81.7046 109.582ZM83.4672 115.386C82.0336 115.527 80.6001 115.645 79.1666 115.739C79.1901 114.305 79.2606 113.248 79.9891 112.613C80.2711 112.355 80.7646 112.425 81.0466 112.496C82.0806 112.731 83.1382 113.553 83.3732 114.141C83.4907 114.423 83.4907 114.916 83.4672 115.386ZM75.3124 79.1013C75.806 78.3493 76.182 77.5033 76.3935 76.5633C76.4623 76.3339 76.4416 76.1269 76.4187 75.8985L76.417 75.8817C86.1463 78.4433 97.7321 77.5503 106.639 73.3437C98.1786 80.6759 85.6057 81.7569 75.3124 79.1013ZM69.9308 73.5317C71.1998 74.1427 72.5394 74.6832 73.9259 75.1532C73.7144 75.3412 73.5499 75.5997 73.5029 75.9052C72.8684 78.6078 70.3068 79.3598 68.8263 79.5478C65.3012 80.0414 61.3766 78.4433 60.084 76.0227C58.768 73.5552 60.1545 71.0171 62.1521 67.9855C64.2436 70.1711 66.8522 72.0276 69.9308 73.5317ZM36.2074 40.6073C36.3014 42.3698 36.4893 44.1324 36.8183 45.8714C34.7033 46.1534 32.4708 46.5059 30.3322 47.1404C30.1207 45.6834 29.9327 44.0619 30.4027 42.9808C31.0842 41.4298 33.7868 40.7483 36.2074 40.6073ZM50.8953 97.4083C51.4358 94.0007 51.5768 90.5226 51.0128 86.9976C49.6262 78.4198 45.2316 72.8031 38.6514 71.2521C32.6823 69.7716 25.632 71.9101 19.8509 76.5633C20.5794 74.8007 21.4959 73.1557 22.5535 71.6986C25.2795 67.962 29.0396 65.847 33.4108 65.6355C33.6693 65.612 33.9043 65.6119 34.1628 65.6119C39.38 65.6119 44.9731 68.3145 48.9447 72.7562C53.3628 77.6913 54.9139 85.329 52.8928 92.2147C52.3758 94.0007 51.7883 95.8103 50.8953 97.4083ZM46.1246 16.0021C52.3523 7.16582 67.9332 1.71367 82.3626 3.31171C89.7888 4.13423 102.244 7.44782 110.986 19.8562C100.975 12.9235 87.0158 11.9364 75.712 16.0726C66.8522 19.3157 56.1594 27.0004 54.9374 38.1162C53.1043 38.4217 51.6003 39.3617 50.5428 40.8893C48.4512 43.8973 48.6157 48.386 49.3912 51.3001C50.3783 55.0602 53.0338 57.1517 56.3004 56.7287C56.9819 60.0893 58.3215 63.0974 60.272 65.753C60.084 65.8705 59.9195 66.035 59.7785 66.223C59.3085 66.928 58.768 67.7505 58.2745 68.62C49.7907 65.3534 43.5631 58.5148 40.743 49.326C37.3589 38.3042 39.4269 25.5433 46.1246 16.0021ZM59.5905 44.1559C60.131 46.7174 60.037 50.172 58.627 52.1461C57.9689 53.0861 57.0759 53.6031 55.9244 53.7676C53.4803 54.0731 52.5403 51.6056 52.2583 50.5245C51.6238 48.104 51.5768 44.6024 52.9868 42.5813C53.6213 41.6413 54.5379 41.1243 55.7364 41.0068C55.9244 40.9833 56.0889 40.9363 56.2534 40.8658C56.3474 40.8658 56.4649 40.8658 56.5589 40.8423C56.6294 40.8188 56.7234 40.8188 56.8174 40.8188C58.2275 40.8188 59.285 42.7458 59.5905 44.1559ZM118.789 34.3796C119.635 36.5181 120.128 39.0092 120.34 42.2053C121.209 54.6371 116.321 64.7189 106.944 69.8656C96.6511 75.4822 81.6576 75.9052 71.2703 70.8526C66.5702 68.573 60.6716 64.1079 59.144 55.7417C59.8725 55.2717 60.5305 54.6606 61.071 53.9086C63.1391 51.018 63.1861 46.6704 62.5281 43.5683C61.9876 41.0303 60.2955 38.5627 57.9455 37.9752C59.285 28.4574 68.8028 21.7597 76.7225 18.8691C80.7411 17.3886 85.1122 16.6601 89.5068 16.6601C101.798 16.6601 114.159 22.4648 118.789 34.3796ZM157.588 88.0786C157.377 88.0786 157.189 88.1021 157.001 88.1491C156.907 88.0786 156.813 88.0316 156.695 87.9846C152.136 85.9165 150.092 82.2504 149.199 79.5478C147.718 75.1532 148.118 69.8421 150.186 65.4709C150.938 65.6355 151.713 65.1889 151.925 64.4369C152.763 61.5967 152.471 58.8488 152.191 56.2159L152.183 56.1412C151.854 53.1331 151.549 50.266 152.982 47.54C154.228 45.1664 155.45 45.4014 155.849 45.4954C158.246 45.9654 160.996 49.984 161.56 52.8746C161.466 53.3446 161.607 53.8381 161.912 54.1906C162.218 54.6136 162.711 54.8722 163.275 54.8252C164.074 54.7547 164.662 54.0731 164.638 53.2741C165.555 51.3471 166.495 49.6785 167.835 48.527C169.926 46.7174 172.84 45.9889 174.744 46.8114C176.107 47.3754 176.835 48.6915 176.953 50.6655C177.094 53.3681 175.214 56.3292 173.381 58.2092C173.334 58.2562 173.287 58.3033 173.263 58.3503C171.853 59.5958 170.302 60.6768 168.681 61.8048L167.482 62.6509C166.824 63.1209 166.66 64.0374 167.13 64.7189C167.623 65.4004 168.54 65.5415 169.221 65.0714C169.457 64.8945 169.702 64.7268 169.951 64.5568C170.098 64.4558 170.247 64.354 170.396 64.2489L170.522 64.1617C172.245 62.9675 174.007 61.7456 175.613 60.2773C175.731 60.1598 175.825 60.0423 175.895 59.9248C176.318 59.4548 176.718 58.9848 177.07 58.5148C177.094 58.4912 177.117 58.4913 177.141 58.4913C179.068 58.0447 181.535 58.0447 182.381 60.4888C183.345 63.2384 181.77 67.539 178.245 69.2311C177.94 69.3721 177.705 69.5836 177.564 69.8656C175.754 70.8291 173.851 71.9336 172.065 73.3907C171.43 73.9077 171.336 74.8477 171.853 75.4822C172.37 76.1167 173.31 76.2108 173.945 75.6937C175.778 74.2132 177.799 73.1087 179.726 72.0981C179.867 72.0276 179.984 71.9336 180.102 71.8161C180.948 71.6516 181.747 71.5811 182.475 71.5811C184.567 71.5811 186.095 72.2391 186.729 73.5082C187.599 75.2707 186.894 78.5843 183.251 81.6864C175.472 88.3136 164.991 88.8306 157.588 88.0786ZM155.497 90.7106C154.933 90.9457 154.275 91.0632 153.546 91.0397C151.008 90.9692 148.188 89.3241 146.731 87.7496C142.736 83.4725 140.198 73.4847 142.924 67.9385C143.84 66.0585 145.344 64.8834 147.365 64.4839C145.062 69.5131 144.686 75.3882 146.378 80.4879C147.929 85.188 151.079 88.7131 155.473 90.7106H155.497ZM141.702 94.4003C138.999 94.8233 136.25 94.5648 133.124 93.6482C133.148 81.4279 129.152 70.9231 120.434 59.8308L120.434 59.8307C120.387 59.7602 120.34 59.6898 120.269 59.6428C120.504 59.1493 120.716 58.6558 120.927 58.1387C120.931 58.1387 120.935 58.1393 120.939 58.1401L120.945 58.1415L120.953 58.1435L120.966 58.1473L120.967 58.1475L120.967 58.1475C120.99 58.1542 121.017 58.1622 121.045 58.1622C123.583 58.5853 126.097 60.2303 128.753 61.9929C131.926 64.0844 135.521 66.4345 139.916 67.257C137.096 74.0722 140.01 84.953 144.522 89.7706C145.344 90.6401 146.449 91.5332 147.718 92.2617C146.872 92.7317 146.026 93.1077 145.18 93.4367C145.17 93.432 145.162 93.4264 145.154 93.4201C145.148 93.4152 145.142 93.4098 145.136 93.4044C145.131 93.3996 145.126 93.3947 145.121 93.3897C145.104 93.3721 145.086 93.3545 145.062 93.3427C143.229 91.9562 141.819 90.2641 140.339 87.7026C139.916 86.9976 138.999 86.739 138.294 87.1621C137.589 87.5851 137.331 88.5016 137.754 89.2066C139.023 91.3922 140.268 93.0372 141.702 94.4003ZM124.787 122.44L124.78 122.443C124.773 122.447 124.765 122.452 124.758 122.46C124.734 122.484 124.687 122.507 124.64 122.531C107.579 131.743 87.0863 132.119 69.1318 131.672C69.2963 130.333 69.1318 128.923 68.4972 127.489C67.4632 125.186 65.6772 123.682 63.3506 123.142C58.298 121.99 51.7413 125.609 48.5452 128.335C48.2867 128.57 48.1222 128.876 48.0517 129.205C47.2292 128.829 46.3831 128.547 45.5136 128.359C45.8426 128.03 46.0071 127.583 45.9366 127.09C45.3491 123.001 45.7956 118.982 46.6652 114.94C53.0573 119.052 62.2931 119.381 70.5183 119.146C83.9137 118.77 96.557 117.149 108.072 114.352C115.499 112.543 124.029 109.887 131.244 104.012C133.077 105.375 133.218 108.148 133.007 110.263C132.419 116.138 130.186 119.452 124.828 122.413C124.817 122.425 124.805 122.431 124.793 122.437L124.787 122.44ZM81.2111 137.641C80.4121 137.853 80.0361 137.829 79.9186 137.806C79.3546 137.148 79.4016 135.926 79.4956 134.774C80.9291 134.774 82.3627 134.751 83.7962 134.704C83.4907 136.513 82.8327 137.218 81.2111 137.641ZM86.8513 134.586C98.9306 134.022 111.339 132.142 122.619 126.878C120.927 130.38 118.812 133.059 115.851 135.503C112.161 138.534 107.156 139.898 102.338 141.049C91.8804 143.564 82.1747 144.504 73.4559 143.893H73.3619C73.0799 143.893 72.8214 143.963 72.5864 144.104C72.3984 143.728 72.1634 143.376 71.9048 143.047C70.1188 140.791 66.7817 139.945 63.7031 139.569C63.9616 139.404 64.2201 139.216 64.4551 139.028C65.9357 137.876 67.3222 136.349 68.2153 134.61C68.3563 134.657 68.4973 134.68 68.6383 134.68C71.2234 134.727 73.8554 134.774 76.5345 134.798C76.37 136.49 76.3935 138.488 77.874 139.992C79.1666 141.284 81.2816 140.72 81.9866 140.532C85.6527 139.545 86.5223 137.007 86.8513 134.586ZM74.7719 162.811C72.7039 162.599 70.6593 162.341 68.6148 161.965L68.6148 161.964C68.6383 161.706 68.6618 161.448 68.6383 161.213C68.5208 158.863 66.5467 157.312 64.6667 155.948C65.0427 155.854 65.3952 155.76 65.7242 155.643C68.8733 154.538 72.4454 151.953 73.0799 147.958L73.0799 147.958C73.1269 147.582 73.1739 147.206 73.1739 146.83H73.2444C77.075 147.089 81.0936 147.065 85.2532 146.76C84.5482 153.081 82.0101 159.027 78.4615 162.67C78.3205 162.811 78.2265 162.975 78.156 163.163C77.31 162.764 76.276 162.787 75.4064 162.811C75.3359 162.811 75.255 162.813 75.174 162.816C75.0122 162.821 74.8503 162.826 74.7719 162.811ZM115.381 139.451C115.381 145.091 114.582 150.661 113.713 155.901C113.125 159.497 112.467 163.375 110.963 166.806C110.634 167.088 110.422 167.487 110.422 167.934C109.764 169.226 108.942 170.448 107.908 171.506C105.017 173.48 99.8706 174.185 94.7945 173.315C91.2929 172.728 84.8302 170.848 80.7411 164.996L80.6001 164.785C84.6187 160.672 87.4858 153.998 88.2378 146.971V146.971C88.2378 146.807 88.2378 146.666 88.2143 146.525C92.9614 146.008 97.9201 145.162 103.02 143.94C107.25 142.929 111.644 141.731 115.381 139.451ZM111.315 172.093C111.339 176.253 108.636 180.295 105.205 182.105C99.9411 184.878 90.3999 185.841 83.4672 182.575C79.8481 180.883 77.5685 178.345 76.6755 174.984C78.5555 173.362 79.4016 171.271 79.9891 169.344C80.0361 169.203 80.0831 169.038 80.1066 168.897C83.6082 172.681 88.5433 175.243 94.301 176.206C100.27 177.217 106.169 176.324 109.717 173.856C109.725 173.852 109.733 173.847 109.739 173.842C109.753 173.832 109.764 173.821 109.776 173.809L109.776 173.809C109.794 173.791 109.811 173.774 109.835 173.762C109.882 173.738 109.929 173.691 109.976 173.644C110.446 173.151 110.892 172.634 111.315 172.093ZM49.3442 197.122C49.6027 196.511 50.0258 196.017 50.5428 195.594C50.2373 199.542 52.4698 203.514 54.3264 206.733L54.4284 206.913C54.7899 207.551 55.13 208.151 55.4309 208.731C56.3004 210.4 57.1935 212.092 58.3215 213.69C60.4835 216.721 64.2672 218.86 67.9333 219.142C70.7533 219.353 73.3384 218.437 75.2185 216.58C75.0305 217.262 74.7249 217.92 74.3254 218.578C71.9989 222.338 66.3822 223.912 62.5281 221.915C57.828 219.471 53.8799 214.395 50.4723 206.428C49.2737 203.631 48.0987 199.73 49.3442 197.122ZM65.8652 186.758C65.8652 186.852 65.8652 186.969 65.8887 187.063C66.5702 190.189 69.7898 193.291 74.1374 194.913C77.2395 196.111 80.2241 196.299 82.5037 195.5C82.0101 197.051 80.8116 198.414 78.72 199.801C78.4615 199.989 78.1795 200.153 77.874 200.318C76.8635 200.905 75.7355 201.563 75.0304 202.644C74.7767 202.644 74.504 202.625 74.2184 202.605C74.0543 202.594 73.8859 202.582 73.7144 202.574L73.6603 202.57H73.6602C71.7938 202.454 69.7035 202.323 68.0743 203.114C66.7817 203.749 65.8652 205.323 65.8182 207.039C65.7712 208.566 66.4292 209.859 67.6042 210.517C69.7663 211.716 73.0799 211.457 74.7719 211.222C74.6074 212.421 74.1139 213.408 73.2209 214.348C71.5759 216.04 69.5548 216.275 68.1447 216.157C65.3482 215.946 62.3871 214.254 60.742 211.951C59.7315 210.541 58.909 208.989 58.063 207.368C57.8375 206.932 57.5929 206.496 57.3413 206.048L57.3404 206.047L57.3403 206.046L57.3402 206.046L57.3401 206.046C57.1987 205.794 57.0551 205.538 56.9114 205.276C55.1254 202.104 53.1043 198.508 53.5743 195.359C54.0913 191.904 56.8879 189.672 59.99 187.51L60.319 187.275C61.4471 186.452 62.5516 185.7 63.6326 185.747C64.3141 185.771 65.1132 186.241 65.8652 186.758ZM74.5369 208.214V208.261C72.5864 208.566 70.1893 208.566 69.0378 207.932C68.8263 207.814 68.7793 207.415 68.7793 207.133C68.8028 206.522 69.1083 205.958 69.3668 205.817C70.3033 205.372 72.0562 205.487 73.4869 205.581L73.5029 205.582C73.6204 205.594 73.7437 205.6 73.867 205.605C73.9905 205.611 74.1139 205.617 74.2314 205.629C74.2314 206.49 74.3768 207.311 74.5114 208.069L74.5369 208.214ZM69.0489 186.896C69.0524 186.881 69.0563 186.867 69.0613 186.852C69.787 183.27 71.6319 180.225 73.5742 177.019L73.5969 176.982L73.7144 176.77C73.8051 176.752 73.8818 176.72 73.9661 176.684L73.9678 176.684C73.9922 176.674 74.0172 176.663 74.0434 176.653C75.3125 180.436 78.109 183.421 82.2216 185.348C84.9477 186.617 88.1908 187.369 91.5279 187.58C89.0603 189.272 86.2873 190.847 83.6787 192.069C83.5377 192.022 83.3732 191.998 83.2322 191.998C82.9267 191.998 82.6211 192.093 82.3626 192.281C80.8586 193.362 78.109 193.315 75.1714 192.187C72.1869 191.011 69.7663 188.99 68.9908 187.063C69.0221 187.016 69.0326 186.969 69.043 186.922L69.0489 186.896ZM70.0483 174.561L70.0471 174.561C69.742 174.608 69.4369 174.655 69.1318 174.726C64.9722 175.548 59.191 175.642 54.8669 173.597C55.9949 171.952 55.5249 170.119 54.9609 168.662C55.2899 168.756 55.5954 168.827 55.9244 168.897C59.473 169.626 63.0686 168.756 65.5597 166.594C66.2882 165.96 66.8757 165.349 67.3457 164.738C69.7428 165.231 72.0694 165.513 74.4429 165.772C74.7484 165.819 75.1009 165.819 75.5005 165.795L75.5433 165.795L75.5836 165.795L75.7189 165.794L75.7226 165.794C76.0949 165.79 76.6092 165.785 76.84 165.842C77.357 166.359 77.4275 167.628 77.169 168.498C76.323 171.247 75.2654 172.681 73.3854 173.644L73.1034 173.785C72.6334 173.715 72.1634 173.879 71.8344 174.208C71.438 174.308 71.0185 174.383 70.5921 174.461L70.393 174.497L70.2793 174.518C70.2024 174.532 70.1253 174.546 70.0483 174.561ZM38.7924 198.085C38.7865 198.103 38.7807 198.12 38.7689 198.132C38.6279 198.062 38.5104 198.015 38.3929 198.038C38.1162 197.965 37.8124 197.902 37.4983 197.836C37.3056 197.795 37.109 197.754 36.9124 197.709L36.7908 197.683C34.6508 197.218 32.0493 196.653 30.8962 195.477C30.8492 195.359 30.9667 195.03 31.3897 194.678C31.9068 194.231 32.4473 194.114 32.6118 194.137C34.0218 194.419 35.4083 195.054 36.8889 195.735C37.6644 196.088 38.4634 196.44 39.2859 196.769C39.1214 197.192 38.9569 197.615 38.8159 198.038C38.8097 198.044 38.8051 198.052 38.8013 198.061C38.798 198.069 38.7952 198.077 38.7924 198.085ZM18.3469 199.354C18.3939 196.276 18.5583 192.61 19.3809 188.802C20.2034 184.901 21.3784 182.246 22.9765 180.718C22.624 181.588 22.342 182.504 22.1775 183.468C21.9425 184.784 21.8955 186.053 21.872 187.298L21.8668 187.416C21.8622 187.525 21.8577 187.633 21.8532 187.74L21.8521 187.766L21.8516 187.779V187.78C21.815 188.663 21.7799 189.514 21.6604 190.33C21.5781 190.968 21.4418 191.606 21.2987 192.275L21.2375 192.563C20.6969 195.077 20.1094 197.921 21.2375 200.764C22.248 203.255 24.6921 205.206 27.9352 206.075C31.3427 206.992 34.9853 206.616 37.4999 205.135C36.3484 207.415 34.9383 208.966 33.1053 209.953C28.7107 212.327 21.9189 210.188 19.3809 205.652C18.3468 203.819 18.2999 201.634 18.3469 199.354ZM30.6847 178.627C30.4497 180.366 31.0137 182.081 32.3062 183.609C34.7268 186.476 39.5445 188.379 42.6231 188.45C43.8216 188.497 44.9496 188.309 46.0307 187.98C45.514 189.178 44.5984 190 43.448 191.033L43.4456 191.035C42.5996 191.787 41.636 192.657 40.8135 193.761C40.743 193.879 40.6725 193.973 40.602 194.067C40.5976 194.062 40.5925 194.059 40.5867 194.056C40.58 194.052 40.5724 194.049 40.5642 194.047C40.5579 194.045 40.5513 194.043 40.5443 194.041C40.5257 194.036 40.5051 194.03 40.4845 194.02C39.709 193.714 38.9334 193.362 38.1109 192.986L38.0867 192.975C36.5432 192.273 34.9528 191.55 33.2228 191.176C31.3192 190.776 29.1337 192.163 28.2877 193.714C27.5591 195.054 27.7236 196.464 28.7341 197.498C30.5437 199.331 33.7163 200.012 36.2779 200.553C36.6335 200.637 36.9647 200.71 37.2803 200.779L37.2844 200.78C37.3738 200.799 37.4619 200.819 37.5489 200.838L37.6409 200.858C37.3119 201.375 36.9594 201.845 36.5129 202.198C34.7503 203.584 31.6247 203.96 28.7106 203.185C26.3841 202.55 24.6685 201.281 24.0105 199.66C23.2115 197.686 23.658 195.5 24.1515 193.197C24.316 192.421 24.4805 191.622 24.598 190.8C24.7625 189.648 24.8095 188.52 24.833 187.416C24.8565 186.217 24.9035 185.113 25.0915 184.032C25.7496 180.366 28.1702 177.381 31.5777 175.854C31.1312 176.676 30.8257 177.593 30.6847 178.627ZM34.5623 181.705C33.8103 180.789 33.5048 179.919 33.6223 179.026C33.9513 176.559 35.9958 175.055 38.1109 173.503L38.1344 173.48C39.521 174.397 40.978 175.149 42.4115 175.689C46.0541 177.076 49.4617 177.076 52.2583 175.689C52.2818 175.689 52.2818 175.666 52.3053 175.666C52.3523 175.713 52.4228 175.76 52.4933 175.807C54.3264 176.817 56.5119 177.546 58.909 177.945C57.471 178.817 55.9723 179.587 54.488 180.35L54.1384 180.53C53.2453 180.977 52.3758 181.423 51.5063 181.893C50.8719 182.222 50.2375 182.598 49.6031 182.974L49.6027 182.974L49.566 182.996C47.2997 184.328 45.1246 185.606 42.717 185.512C40.649 185.442 36.5364 184.032 34.5623 181.705ZM43.4691 172.869C38.8159 171.106 33.8573 166.618 32.2122 162.623C31.1782 160.108 31.0137 156.747 31.7187 153.105C32.8703 147.465 36.4659 141.754 41.354 137.853C42.9285 136.607 44.8321 135.55 46.6652 134.539L46.9941 134.351C49.7437 132.894 50.2843 132.424 50.3548 131.484C50.3783 131.226 50.3078 130.967 50.2138 130.732C50.2786 130.7 50.3323 130.656 50.3902 130.609L50.4162 130.588C50.4342 130.574 50.4527 130.559 50.4723 130.544C53.2923 128.147 58.9325 125.139 62.6926 125.985C64.1261 126.314 65.1132 127.184 65.7712 128.641C67.1107 131.649 65.0191 134.704 62.6221 136.56C61.6821 137.289 60.6245 137.9 59.52 138.534C59.379 138.605 59.1675 138.699 58.956 138.77C58.204 139.051 57.0994 139.498 57.2874 140.744C57.358 141.331 57.8515 141.966 58.7445 142.036C59.097 142.083 59.4965 142.107 59.9195 142.13L60.0278 142.138C63.0001 142.35 67.86 142.697 69.5548 144.809C70.0953 145.491 70.2598 146.36 70.0953 147.441C69.6723 150.144 66.9227 152 64.7136 152.776C63.9381 153.034 63.0451 153.222 61.9876 153.293C61.966 153.282 61.9296 153.276 61.8852 153.271L61.8505 153.267L61.8228 153.264C61.8096 153.262 61.796 153.26 61.7822 153.258C61.7572 153.255 61.7314 153.251 61.7056 153.246C61.6821 153.222 61.6351 153.222 61.5881 153.222C61.4471 153.152 61.3061 153.081 61.1416 153.058C59.4025 152.705 57.875 151.977 56.1829 150.684C55.5249 150.191 54.5849 150.308 54.0914 150.966C53.5979 151.624 53.7153 152.564 54.3734 153.058C56.1594 154.444 57.922 155.337 59.802 155.831L59.8255 155.854C60.601 156.677 61.6116 157.406 62.5751 158.087L62.5896 158.097C64.0657 159.152 65.6068 160.253 65.6537 161.307C65.7007 162.059 64.9722 163.116 63.5856 164.338C61.7996 165.913 59.1675 166.5 56.5119 165.96C55.8539 165.819 55.1489 165.607 54.2794 165.255C54.2573 165.244 54.2199 165.217 54.1742 165.185C54.1223 165.148 54.0598 165.104 53.9974 165.067C53.6684 164.832 53.1748 164.479 52.6108 164.456C52.5168 164.362 52.4287 164.268 52.3406 164.174C52.2525 164.08 52.1643 163.986 52.0703 163.892C50.6603 162.411 49.3442 161.025 48.1927 159.45C47.6992 158.792 46.7591 158.651 46.1011 159.145C45.4431 159.638 45.3021 160.578 45.7957 161.236C46.9618 162.842 48.3134 164.284 49.6189 165.676L49.8847 165.96C50.1547 166.23 50.4139 166.51 50.6696 166.787C50.7924 166.92 50.9143 167.052 51.0363 167.182C51.1068 167.252 51.1773 167.323 51.2713 167.393C51.4437 167.954 51.6557 168.494 51.8528 168.997L51.9058 169.132C52.7988 171.365 53.0338 171.952 50.9423 172.986C48.3807 174.255 45.4666 173.621 43.4691 172.869ZM28.8281 152.564C28.6636 153.41 28.5462 154.233 28.4521 155.055C26.4546 153.34 25.5851 151.037 25.8671 148.217C26.3606 142.271 31.6247 135.338 37.8759 132.424C40.0614 131.39 43.0931 130.568 46.0307 131.602C45.9131 131.649 45.7721 131.719 45.6546 131.79L45.2786 131.978L45.0867 132.084C43.1959 133.132 41.2485 134.21 39.5209 135.597C34.1158 139.921 30.1207 146.266 28.8281 152.564ZM21.2139 133.858C19.7099 135.573 18.5349 137.43 17.8299 139.263C14.5163 134.657 12.0017 129.087 10.4272 122.789C11.3437 120.603 13.5997 116.326 17.4068 114.893C17.9474 114.681 18.8639 114.54 19.8039 114.399C22.389 114 25.6086 113.483 26.6896 110.898C27.3711 109.276 27.2536 107.655 26.3605 106.221C24.41 103.095 19.1459 101.873 16.9133 101.779C13.9522 101.662 11.1557 102.179 8.71159 103.26C9.51062 96.2803 12.0017 90.4991 16.9133 83.872C22.436 76.4458 31.0842 72.4506 37.9464 74.1192C43.375 75.4587 46.8767 80.0649 48.0752 87.4911C49.1299 94.0537 47.4263 100.359 45.6221 107.037L45.6076 107.091L45.5955 107.135C43.8132 113.702 41.9674 120.502 42.999 127.56C43.046 127.771 43.1165 127.983 43.234 128.147H43.1401C41.0485 128.147 38.8394 128.664 36.5833 129.722C30.3322 132.636 24.927 139.169 23.3055 145.373C22.0834 144.292 20.9319 143.117 19.8509 141.848C20.0859 141.66 20.2739 141.402 20.3679 141.096C20.9084 139.334 21.9895 137.524 23.47 135.832C24.0105 135.197 23.94 134.257 23.329 133.717C22.6945 133.176 21.7545 133.247 21.2139 133.858ZM8.03004 120.862C6.5965 120.345 4.19943 119.193 3.32991 117.078C2.5779 115.245 3.09491 112.942 4.85745 110.193C7.09001 106.738 11.2027 104.717 15.9498 104.717C16.0938 104.717 16.2317 104.723 16.3665 104.729H16.3667C16.4959 104.735 16.6224 104.741 16.7488 104.741C18.9579 104.835 22.718 106.057 23.8225 107.796C24.1985 108.407 24.222 108.994 23.9165 109.746C23.4756 110.79 21.1325 111.17 19.3994 111.451L19.3339 111.462L19.1268 111.497L19.1266 111.497C18.1002 111.671 17.1422 111.833 16.3493 112.12C11.9547 113.788 9.29907 118.136 8.03004 120.862ZM22.436 96.6328C23.2115 96.6328 23.8695 95.9983 23.9165 95.1992C23.94 94.3767 23.3055 93.6717 22.5065 93.6482L22.3561 93.6401C21.0518 93.5698 19.0074 93.4597 17.8769 92.8492C17.1483 92.4497 16.2553 92.7317 15.8558 93.4602C15.4563 94.1887 15.7383 95.0817 16.4668 95.4813C18.2529 96.4448 20.7204 96.5623 22.3654 96.6328H22.436ZM25.0915 90.2172L24.9603 90.2855C24.3756 90.5902 23.8288 90.8752 23.282 90.8752C23 90.8752 22.7179 90.8047 22.4359 90.6167C20.0858 89.0187 21.4254 84.624 21.8719 83.308C21.9424 83.12 22.0129 82.885 22.0834 82.6265C22.5064 81.287 23.0469 79.6184 24.081 78.7254C26.3135 76.7983 30.0266 78.1379 31.6717 79.1014C32.1417 79.3834 32.4237 79.9004 32.4002 80.4174C32.9877 80.8169 33.2227 81.616 32.9172 82.274C32.2122 83.778 31.4602 85.2586 30.2852 86.5041C28.7106 88.1492 27.089 89.3242 25.1855 90.1467L25.0915 90.2172ZM28.1231 84.4595C28.8751 83.6605 29.4391 82.6735 29.9561 81.5455C28.6166 80.8169 26.6895 80.4174 26.0315 80.9579C25.6419 81.3017 25.1853 82.7184 24.9449 83.4641L24.9448 83.4642L24.927 83.5195C24.8948 83.6162 24.8653 83.7101 24.8367 83.8013C24.7819 83.976 24.7303 84.1406 24.6685 84.295C24.269 85.4466 24.0575 86.6216 24.034 87.3971C25.585 86.7156 26.854 85.7991 28.1231 84.4595ZM48.5921 31.3244C48.7801 30.5254 48.2631 29.7264 47.4641 29.5384C46.9941 29.4209 46.5241 29.2799 46.007 29.0684C45.2315 28.7864 44.362 29.2094 44.1035 29.9849C43.8215 30.7604 44.2445 31.6299 45.02 31.8884C45.6546 32.1235 46.2185 32.288 46.8061 32.429C46.9001 32.476 47.0176 32.476 47.1351 32.476C47.8166 32.476 48.4276 32.006 48.5921 31.3244ZM48.8978 27.8231C48.7568 27.8231 48.6158 27.7996 48.4513 27.7526L48.4509 27.7525C48.028 27.635 47.6051 27.5175 47.0882 27.4236C46.2892 27.2356 45.7722 26.46 45.9602 25.6375C46.1482 24.8385 46.9237 24.3215 47.7462 24.5095C48.2868 24.627 48.8038 24.7445 49.3208 24.909C50.1198 25.144 50.5428 25.99 50.3078 26.7656C50.1198 27.4001 49.5323 27.8231 48.8978 27.8231ZM54.8199 45.4014C54.9374 46.5294 55.0314 47.681 54.8199 48.621C54.6319 49.42 55.1254 50.219 55.9479 50.407C56.0067 50.407 56.0595 50.4129 56.1124 50.4188C56.1653 50.4247 56.2181 50.4305 56.2769 50.4305C56.9584 50.4305 57.5694 49.9605 57.7339 49.2555C58.0556 47.877 57.928 46.4761 57.8123 45.2063V45.2062L57.8044 45.1194C57.7606 44.8344 57.7372 44.529 57.7152 44.2413L57.7105 44.1794C57.64 43.3568 56.9349 42.7458 56.1124 42.7928C55.2899 42.8633 54.6553 43.5683 54.7259 44.3909C54.737 44.5472 54.7535 44.7035 54.7702 44.8623L54.7703 44.8632C54.7888 45.0384 54.8075 45.2167 54.8199 45.4014ZM67.3692 103.213C66.5702 103.001 66.1002 102.179 66.3117 101.38C66.5232 100.581 67.3457 100.111 68.1447 100.322C73.1269 101.662 78.4615 101.145 82.5507 100.557C83.3732 100.44 84.1252 101.004 84.2427 101.826C84.3602 102.649 83.7962 103.401 82.9737 103.518C80.6706 103.847 77.968 104.176 75.1479 104.176C72.6099 104.176 69.9778 103.918 67.3692 103.213ZM68.2857 97.5964C70.7768 98.1604 73.3619 98.466 75.9704 98.466C78.626 98.466 81.3051 98.1604 83.9137 97.5964C84.7127 97.4084 85.2297 96.6094 85.0417 95.8104C84.8537 95.0114 84.0547 94.4943 83.2556 94.6823C78.4615 95.7634 73.5029 95.7869 68.9672 94.7058C68.1682 94.5178 67.3692 95.0114 67.1812 95.8104C66.9932 96.6094 67.4867 97.4084 68.2857 97.5964ZM82.4332 92.7553C80.7646 92.9668 79.1196 93.0608 77.451 93.0608C75.2216 93.0608 73.0113 92.9073 70.8375 92.7564L70.8373 92.7564L70.8153 92.7549C70.5906 92.7393 70.3662 92.7237 70.1423 92.7083L69.5783 92.6613C68.7558 92.5908 68.1448 91.8858 68.1918 91.0633C68.2623 90.2407 68.9673 89.6297 69.7898 89.6767L70.3538 89.7237C74.3959 90.0292 78.2031 90.3112 82.0337 89.7942C82.8562 89.7002 83.6082 90.2643 83.7022 91.0868C83.8197 91.9093 83.2557 92.6378 82.4332 92.7553ZM109.367 81.4038L109.365 81.4044C107.062 82.0624 104.477 82.8144 102.597 84.7179C99.4611 87.8535 101.288 93.1793 102.394 96.4032L102.409 96.4448L102.479 96.6328C102.855 97.7608 103.372 99.0533 104.218 100.134C105.487 101.779 107.179 102.32 108.942 102.32C111.08 102.32 113.313 101.544 115.076 100.91C115.593 100.722 116.086 100.557 116.533 100.416C117.449 100.134 118.624 99.7584 119.799 99.3119C121.374 98.7008 123.136 97.9018 124.264 96.3508C125.439 94.7527 125.416 92.6142 125.251 90.9221C124.899 87.1855 123.935 83.6839 122.478 80.8168C122.196 80.2998 121.679 79.9943 121.139 79.9943H121.115C118.425 78.232 114.866 79.5128 112.198 80.4727L112.091 80.5113C111.597 80.6993 111.151 80.8638 110.751 80.9813C110.306 81.1221 109.836 81.2629 109.367 81.4037L109.367 81.4038ZM105.276 95.6927L105.205 95.5047L105.179 95.4272C104.35 93.013 102.851 88.6469 104.665 86.88C106.051 85.4935 108.049 84.9059 110.187 84.2949C110.48 84.2113 110.773 84.1194 111.061 84.029C111.258 83.967 111.453 83.9058 111.644 83.8484C111.99 83.7392 112.365 83.6017 112.756 83.4579C112.87 83.4161 112.985 83.3737 113.101 83.3314C115.217 82.5559 118.131 81.4983 119.588 82.6029C119.752 82.7204 119.917 82.8144 120.105 82.8614C121.233 85.282 121.961 88.149 122.243 91.2276C122.361 92.4027 122.408 93.8362 121.82 94.6352C121.162 95.5282 119.87 96.0923 118.718 96.5388C117.614 96.9383 116.533 97.2908 115.616 97.5728C115.318 97.6581 115.01 97.7691 114.69 97.8852L114.69 97.8852L114.689 97.8854L114.689 97.8855L114.688 97.8859C114.479 97.9615 114.264 98.0392 114.042 98.1133C110.775 99.2648 107.931 100.087 106.545 98.3248C105.981 97.5963 105.605 96.6328 105.276 95.6927ZM106.357 86.9035C107.085 86.5275 107.978 86.8095 108.378 87.538C109.6 89.8646 110.399 92.7317 110.657 95.8338C110.728 96.6563 110.117 97.3848 109.294 97.4553H109.177C108.401 97.4553 107.767 96.8678 107.696 96.0923C107.461 93.3897 106.803 90.9221 105.746 88.9246C105.346 88.196 105.628 87.2795 106.357 86.9035ZM110.634 30.9484C109.905 31.3479 109.647 32.241 110.046 32.9695C112.937 38.2101 114.042 43.3098 113.383 48.6444C113.266 49.4669 113.854 50.219 114.676 50.313H114.864C115.616 50.313 116.251 49.7489 116.345 48.9969C117.097 43.0513 115.875 37.3406 112.655 31.5359C112.255 30.8074 111.362 30.5489 110.634 30.9484ZM117.237 114.552L117.238 114.552C117.373 114.493 117.508 114.435 117.637 114.376C117.733 114.333 117.829 114.292 117.924 114.25C118.408 114.039 118.873 113.836 119.306 113.6C120.034 113.201 120.927 113.483 121.327 114.188C121.726 114.916 121.444 115.809 120.739 116.209C120.081 116.561 119.423 116.843 118.789 117.102C118.592 117.173 118.41 117.258 118.22 117.346L118.22 117.346C118.16 117.374 118.099 117.403 118.037 117.431C117.849 117.525 117.637 117.548 117.426 117.548C116.862 117.548 116.298 117.219 116.063 116.655C115.757 115.95 116.086 115.057 116.838 114.728C116.967 114.67 117.102 114.611 117.237 114.552ZM128.025 108.477C127.319 109.206 126.544 109.958 125.651 110.592C124.969 111.062 124.828 112.002 125.298 112.684C125.604 113.107 126.05 113.318 126.52 113.318C126.826 113.318 127.132 113.224 127.39 113.036C128.471 112.261 129.388 111.368 130.163 110.569C130.751 109.981 130.727 109.018 130.14 108.454C129.552 107.866 128.612 107.89 128.025 108.477Z" clip-rule="evenodd"/></svg>