<svg width="48" height="48" viewBox="0 0 48 48" fill="none" xmlns="http://www.w3.org/2000/svg">
<path d="M41 31.1689C39.8409 33.8379 38.028 36.1898 35.7198 38.019C33.4116 39.8482 30.6784 41.099 27.759 41.662C24.8397 42.225 21.8231 42.0831 18.9731 41.2486C16.1231 40.4142 13.5264 38.9127 11.4101 36.8754C9.29371 34.8381 7.72212 32.3269 6.83269 29.5616C5.94326 26.7962 5.76308 23.8608 6.30791 21.0119C6.85273 18.1631 8.10597 15.4875 9.95805 13.2193C11.8101 10.951 14.2047 9.15901 16.9323 8" stroke="white" stroke-width="1.5" stroke-linecap="round" stroke-linejoin="round"/>
<path d="M42 24C42 21.6362 41.5344 19.2956 40.6298 17.1117C39.7252 14.9278 38.3994 12.9435 36.7279 11.2721C35.0565 9.60062 33.0722 8.27475 30.8883 7.37017C28.7044 6.46558 26.3638 6 24 6V24H42Z" stroke="#009CE1" stroke-width="1.5" stroke-linecap="round" stroke-linejoin="round"/>
</svg>
