<svg xmlns="http://www.w3.org/2000/svg" width="48" height="48" fill="none" viewBox="0 0 48 48"><g clip-path="url(#clip0)"><path fill-rule="evenodd" stroke="#fff" stroke-linecap="round" stroke-linejoin="round" stroke-width="1.5" d="M17.5 37C9.98817 37 8.83334 35.9166 8.83334 32.6666C8.83334 29.4166 9.98817 28.3333 17.5 28.3333C25.0118 28.3333 26.1667 29.4166 26.1667 32.6666C26.1667 35.9166 25.0118 37 17.5 37Z" clip-rule="evenodd"/><path fill-rule="evenodd" stroke="#fff" stroke-linecap="round" stroke-linejoin="round" stroke-width="1.5" d="M13.1667 28.3334C5.65483 28.3334 4.5 27.25 4.5 24C4.5 20.75 5.65483 19.6667 13.1667 19.6667C20.6785 19.6667 21.8333 20.75 21.8333 24C21.8333 27.25 20.6785 28.3334 13.1667 28.3334Z" clip-rule="evenodd"/><path fill-rule="evenodd" stroke="#fff" stroke-linecap="round" stroke-linejoin="round" stroke-width="1.5" d="M17.5 19.6667C9.98817 19.6667 8.83334 18.5833 8.83334 15.3333C8.83334 12.0833 9.98817 11 17.5 11C25.0118 11 26.1667 12.0833 26.1667 15.3333C26.1667 18.5833 25.0118 19.6667 17.5 19.6667Z" clip-rule="evenodd"/><path fill-rule="evenodd" stroke="#fff" stroke-linecap="round" stroke-linejoin="round" stroke-width="1.5" d="M39.1667 37C37 37 28.3333 28.3333 28.3333 26.1666C28.4098 25.0426 28.8909 23.9843 29.6876 23.1876C30.4843 22.3909 31.5426 21.9098 32.6667 21.8333C34.8333 21.8333 43.5 30.5 43.5 32.6666C43.4235 33.7907 42.9424 34.849 42.1457 35.6457C41.349 36.4424 40.2907 36.9235 39.1667 37Z" clip-rule="evenodd"/></g><defs><clipPath id="clip0"><rect width="48" height="48" fill="#fff" rx="16"/></clipPath></defs></svg>