<svg width="762" height="541" viewBox="0 0 762 541" fill="none" xmlns="http://www.w3.org/2000/svg">
<g opacity="0.25" filter="url(#filter0_f)">
<rect width="572" height="292" rx="39" transform="matrix(0.988247 0.152869 -0.421004 0.907059 210.042 95.2817)" fill="black"/>
</g>
<rect opacity="0.5" width="339" height="320" rx="39" transform="matrix(0.988247 0.152869 -0.421004 0.907059 407.55 71.3914)" fill="url(#paint0_linear)"/>
<rect width="339" height="320" rx="39" transform="matrix(0.988247 0.152869 -0.421004 0.907059 400.286 45.9634)" fill="url(#paint1_linear)"/>
<rect width="503" height="320" rx="39" transform="matrix(0.988247 0.152869 -0.421004 0.907059 228.845 0)" fill="url(#paint2_linear)"/>
<path opacity="0.5" d="M280.533 46.1757L278.979 45.9353L276.474 51.3312L276.399 51.3195L274.843 45.2956L273.445 45.0793L269.771 52.9955L271.333 53.2371L273.836 47.845L273.908 47.8561L275.469 53.8768L276.859 54.0918L280.533 46.1757ZM279.669 54.5265L281.286 52.6846L284.529 53.1862L284.339 55.2489L286.007 55.5069L286.64 47.1204L284.711 46.822L278.001 54.2685L279.669 54.5265ZM282.242 51.5979L284.889 48.5894L284.956 48.5999L284.642 51.9692L282.242 51.5979ZM290.817 47.7665L287.143 55.6826L288.642 55.9145L291.171 50.4644L291.251 50.4768L291.116 56.2724L292.236 56.4457L297.133 51.3991L297.213 51.4115L294.689 56.85L296.188 57.0819L299.863 49.1657L297.951 48.87L292.728 54.21L292.627 54.1944L292.729 48.0622L290.817 47.7665ZM297.89 57.3451L303.533 58.218L304.091 57.0159L300.01 56.3846L301.013 54.2239L304.769 54.805L305.327 53.6029L301.571 53.0218L302.568 50.8727L306.615 51.4987L307.173 50.2966L301.564 49.4289L297.89 57.3451Z" fill="white"/>
<path opacity="0.5" d="M469.516 83.8933L471.134 82.0515L474.376 82.5531L474.186 84.6158L475.854 84.8737L476.488 76.4873L474.559 76.1889L467.848 83.6354L469.516 83.8933ZM472.09 80.9647L474.736 77.9563L474.804 77.9667L474.49 81.336L472.09 80.9647ZM487.752 78.2297L486.198 77.9893L483.693 83.3853L483.618 83.3735L482.062 77.3496L480.664 77.1333L476.99 85.0495L478.552 85.2911L481.055 79.899L481.127 79.9101L482.688 85.9309L484.078 86.1458L487.752 78.2297ZM496.542 79.5894L494.988 79.349L492.483 84.745L492.408 84.7332L490.852 78.7093L489.454 78.493L485.78 86.4092L487.342 86.6508L489.845 81.2587L489.917 81.2698L491.478 87.2905L492.868 87.5055L496.542 79.5894ZM503.681 80.6937L501.336 85.7457C500.875 86.739 499.791 87.3337 498.608 87.1506C497.42 86.9669 497.001 86.1397 497.462 85.1463L499.807 80.0944L498.244 79.8527L495.844 85.0245C495.054 86.7252 495.904 88.1037 498.014 88.43C500.115 88.7551 502.054 87.8079 502.843 86.1072L505.243 80.9354L503.681 80.6937ZM504.375 89.2856L505.993 87.4437L509.235 87.9453L509.045 90.008L510.713 90.266L511.347 81.8795L509.418 81.5811L502.707 89.0276L504.375 89.2856ZM506.948 86.3569L509.595 83.3485L509.662 83.3589L509.349 86.7283L506.948 86.3569ZM511.849 90.4417L517.21 91.271L517.768 90.0688L513.969 89.4812L517.086 82.7672L515.523 82.5255L511.849 90.4417ZM524.592 83.9284L525.426 89.3768L524.055 92.3299L525.613 92.5709L526.984 89.6178L532.425 85.14L530.661 84.8671L526.925 88.0427L526.841 88.0297L526.357 84.2013L524.592 83.9284ZM535.094 85.5529L533.532 85.3112L529.857 93.2274L531.42 93.469L535.094 85.5529ZM533.112 93.7308L538.755 94.6037L539.313 93.4016L535.232 92.7703L536.235 90.6096L539.991 91.1907L540.549 89.9886L536.793 89.4075L537.79 87.2584L541.837 87.8844L542.395 86.6823L536.786 85.8146L533.112 93.7308ZM540.315 94.845L545.676 95.6743L546.234 94.4722L542.435 93.8846L545.552 87.1706L543.989 86.9289L540.315 94.845ZM549.955 96.3361C552.582 96.7426 554.833 95.4917 555.981 93.0179C557.126 90.5518 556.257 88.8265 553.688 88.4291L550.706 87.9679L547.032 95.8841L549.955 96.3361ZM549.17 94.885L551.693 89.4503L553.024 89.6562C554.775 89.9272 555.273 90.9653 554.432 92.7781C553.587 94.5987 552.253 95.3618 550.455 95.0837L549.17 94.885Z" fill="white"/>
<g filter="url(#filter1_ii)">
<rect width="419" height="62" rx="31" transform="matrix(0.988247 0.152869 -0.421004 0.907059 243.829 63.5652)" fill="#1D1D1D"/>
</g>
<path d="M450.918 132.716C453.558 133.125 456.17 131.975 457.079 130.003C457.782 128.502 457.291 127.27 455.686 126.761L455.729 126.668C457.229 126.558 458.559 125.72 459.171 124.386C459.988 122.641 459.119 120.91 456.63 120.525C454.255 120.158 451.736 121.179 450.777 123.1L452.666 123.392C453.216 122.309 454.641 121.821 455.911 122.017C457.231 122.221 457.755 123.091 457.24 124.186C456.713 125.335 455.359 125.934 453.925 125.712L452.832 125.543L452.154 127.004L453.247 127.173C455.041 127.45 455.689 128.446 455.135 129.64C454.599 130.794 453.143 131.407 451.621 131.172C450.219 130.955 449.432 130.125 449.846 129.058L447.863 128.751C447.046 130.7 448.302 132.312 450.918 132.716ZM457.954 133.631L466.469 134.948L467.183 133.411L461.358 132.51L461.399 132.423L465.116 130.351C468.505 128.52 469.668 127.575 470.284 126.248C471.17 124.34 470.155 122.617 467.716 122.24C465.297 121.866 462.861 123.03 461.854 125.198L463.718 125.487C464.304 124.21 465.588 123.514 466.984 123.73C468.298 123.933 468.952 124.83 468.403 126.012C467.916 127.062 466.884 127.71 464.867 128.846L458.557 132.332L457.954 133.631ZM473.276 136.212C476.264 136.674 479.052 134.707 480.858 130.816C482.65 126.955 481.917 124.437 478.954 123.978C475.985 123.519 473.178 125.483 471.377 129.35C469.573 133.234 470.285 135.743 473.276 136.212ZM473.995 134.664C472.245 134.393 471.938 132.618 473.316 129.65C474.695 126.694 476.506 125.228 478.249 125.497C479.986 125.766 480.291 127.559 478.919 130.516C477.541 133.485 475.738 134.934 473.995 134.664ZM481.078 137.326C481.767 137.432 482.581 137.005 482.88 136.361C483.173 135.729 482.841 135.119 482.152 135.012C481.457 134.905 480.646 135.339 480.353 135.971C480.054 136.614 480.383 137.218 481.078 137.326ZM485.702 135.437L491.836 136.386L490.76 138.705L492.623 138.993L493.7 136.674L495.411 136.939L496.116 135.42L494.405 135.155L498.134 127.119L495.728 126.747L486.375 133.988L485.702 135.437ZM492.554 134.869L488.454 134.235L488.497 134.142L495.192 128.951L495.293 128.966L492.554 134.869ZM500.731 140.422C503.334 140.824 505.974 139.424 507.042 137.11C508.114 134.815 507.145 132.875 504.789 132.511C503.829 132.362 502.782 132.561 502.067 132.935L501.991 132.923L503.943 129.665L509.433 130.514L510.146 128.977L503.033 127.877L499.53 133.748L501.204 134.268C501.876 133.943 502.875 133.806 503.658 133.927C505.187 134.176 505.809 135.403 505.137 136.853C504.475 138.279 502.915 139.144 501.431 138.914C500.18 138.721 499.528 137.837 499.9 136.801L498.005 136.507C497.204 138.409 498.356 140.054 500.731 140.422ZM515.353 140.123C514.738 141.464 515.129 142.736 516.841 143.001C518.534 143.262 519.988 142.276 520.609 140.936L520.9 140.31C521.524 138.965 521.143 137.7 519.425 137.435C517.738 137.174 516.272 138.159 515.644 139.497L515.353 140.123ZM512.001 132.322C511.379 133.661 511.777 134.934 513.489 135.199C515.175 135.46 516.632 134.48 517.25 133.134L517.541 132.507C518.172 131.163 517.784 129.898 516.072 129.633C514.392 129.373 512.916 130.35 512.292 131.695L512.001 132.322ZM508.344 141.425L509.854 141.659L524.26 131.16L522.75 130.927L508.344 141.425ZM517.116 139.725C517.432 139.059 518.046 138.464 518.886 138.594C519.758 138.729 519.731 139.415 519.422 140.081L519.131 140.708C518.822 141.374 518.226 141.972 517.379 141.841C516.52 141.708 516.525 141.013 516.825 140.351L517.116 139.725ZM513.77 131.924C514.077 131.263 514.694 130.663 515.534 130.792C516.406 130.927 516.379 131.613 516.069 132.28L515.779 132.906C515.469 133.573 514.873 134.17 514.027 134.039C513.168 133.906 513.17 133.217 513.479 132.55L513.77 131.924Z" fill="white"/>
<path d="M320.166 99.5898L316.608 107.255C315.86 108.867 314.109 109.839 312.138 109.534C310.173 109.23 309.492 107.882 310.241 106.27L313.798 98.6048L311.846 98.3029L308.221 106.113C307.064 108.606 308.277 110.689 311.379 111.169C314.481 111.648 317.342 110.196 318.499 107.703L322.124 99.8927L320.166 99.5898ZM330.57 104.542L332.452 104.834C333.278 102.923 332.087 101.26 329.459 100.853C326.863 100.452 324.24 101.506 323.29 103.553C322.524 105.206 323.363 106.373 325.202 107.211L326.553 107.83C327.78 108.38 328.654 108.963 328.164 110.018C327.626 111.177 326.064 111.756 324.403 111.499C322.899 111.267 321.934 110.459 322.42 109.148L320.462 108.845C319.59 111.016 320.787 112.624 323.686 113.072C326.724 113.542 329.155 112.346 330.089 110.334C331.082 108.195 329.388 107.044 327.918 106.419L326.795 105.922C325.894 105.528 324.751 104.885 325.285 103.75C325.753 102.741 327.104 102.148 328.696 102.395C330.181 102.624 330.94 103.425 330.57 104.542ZM335.086 114.625C339.028 115.234 342.35 113.343 344.072 109.633C345.786 105.939 344.539 103.36 340.73 102.771L336.41 102.103L330.898 113.977L335.086 114.625ZM333.577 112.713L337.635 103.97L339.884 104.318C342.714 104.756 343.452 106.535 342.152 109.336C340.847 112.148 338.656 113.499 335.706 113.043L333.577 112.713ZM347.355 105.449L351.385 106.072L346.589 116.404L348.535 116.705L353.331 106.373L357.367 106.997L358.083 105.455L348.071 103.906L347.355 105.449ZM365.36 112.142L356.466 110.767L355.769 112.268L364.663 113.644L365.36 112.142ZM363.678 119.047L368.637 119.814C371.644 120.28 373.64 119.116 374.485 117.295C375.338 115.457 374.417 114.202 373.165 113.94L373.218 113.824C374.535 113.73 375.871 113.141 376.56 111.657C377.376 109.9 376.681 108.332 373.927 107.906L369.19 107.173L363.678 119.047ZM366.343 117.813L368.109 114.009L370.996 114.456C372.562 114.698 373.111 115.777 372.586 116.908C372.123 117.905 371.037 118.539 369.161 118.249L366.343 117.813ZM368.757 112.612L370.434 109L373.1 109.412C374.647 109.652 375.039 110.514 374.582 111.5C374.049 112.648 372.686 113.22 371.372 113.017L368.757 112.612ZM391.27 110.589L389.337 110.29L385.29 119.01L385.17 118.991L382.635 109.253L380.829 108.974L375.317 120.848L377.269 121.15L381.311 112.441L381.431 112.46L383.965 122.186L385.759 122.463L391.27 110.589ZM388.606 122.903L393.565 123.671C396.572 124.136 398.568 122.972 399.413 121.151C400.266 119.313 399.345 118.058 398.093 117.796L398.146 117.68C399.463 117.586 400.799 116.997 401.488 115.513C402.304 113.756 401.61 112.188 398.855 111.762L394.118 111.029L388.606 122.903ZM391.272 121.669L393.037 117.865L395.924 118.312C397.49 118.554 398.039 119.633 397.514 120.764C397.051 121.761 395.965 122.395 394.089 122.105L391.272 121.669ZM393.685 116.468L395.362 112.856L398.028 113.268C399.575 113.508 399.967 114.37 399.51 115.356C398.977 116.504 397.615 117.076 396.301 116.873L393.685 116.468Z" fill="white"/>
<mask id="mask0" style="mask-type:alpha" maskUnits="userSpaceOnUse" x="266" y="87" width="25" height="23">
<path fill-rule="evenodd" clip-rule="evenodd" d="M266.643 107.117C270.381 105.214 273.563 102.195 275.249 98.5632C276.934 94.931 276.793 91.398 275.204 88.6715C277.519 87.9009 279.962 87.6261 282.277 87.9842C288.827 88.9974 291.874 94.6919 289.084 100.703C286.294 106.715 278.722 110.767 272.173 109.754C269.858 109.396 267.98 108.452 266.643 107.117Z" fill="#C4C4C4"/>
</mask>
<g mask="url(#mask0)">
<g clip-path="url(#clip0)">
<g clip-path="url(#clip1)">
<path d="M282.277 87.9843C288.826 88.9974 291.874 94.6923 289.084 100.703C286.294 106.715 278.722 110.767 272.173 109.754C265.624 108.741 262.575 103.047 265.366 97.0346C268.157 91.0221 275.727 86.9711 282.277 87.9843Z" fill="#53AE94"/>
<path d="M282.277 87.9843C288.826 88.9974 291.874 94.6923 289.084 100.703C286.294 106.715 278.722 110.767 272.173 109.754C265.624 108.741 262.575 103.047 265.366 97.0346C268.157 91.0221 275.727 86.9711 282.277 87.9843Z" fill="url(#paint3_linear)"/>
<path d="M279.362 97.6453L280.113 96.0261L284.147 96.6501L285.293 94.183L274.307 92.4837L273.162 94.9509L277.197 95.575L276.446 97.1929C273.103 96.8239 270.361 97.0386 270.029 97.7526C269.698 98.4666 271.888 99.4442 275.101 100.09L272.694 105.277L275.611 105.728L278.019 100.541C281.356 100.909 284.093 100.694 284.424 99.9805C284.755 99.2671 282.571 98.2908 279.363 97.6459L279.362 97.6453ZM278.223 100.102L278.223 100.101C278.139 100.093 277.705 100.051 276.763 99.9049C276.011 99.7884 275.49 99.6869 275.308 99.6491L275.306 99.6513C272.464 99.0854 270.517 98.2879 270.774 97.7338C271.031 97.1798 273.408 97.052 276.36 97.382L275.521 99.19C275.705 99.2313 276.234 99.3447 276.983 99.4605C277.882 99.5997 278.351 99.6352 278.437 99.6411L279.276 97.8332C282.112 98.3986 284.055 99.1958 283.798 99.7479C283.542 100.3 281.169 100.43 278.224 100.101" fill="white"/>
</g>
</g>
</g>
<path d="M249.554 94.5886C252.344 88.5771 259.916 84.5252 266.465 85.5383C273.015 86.5514 276.062 92.246 273.272 98.2575C270.482 104.269 262.911 108.321 256.361 107.308C249.812 106.295 246.764 100.6 249.554 94.5886Z" fill="#F3BA2F"/>
<path d="M249.554 94.5886C252.344 88.5771 259.916 84.5252 266.465 85.5383C273.015 86.5514 276.062 92.246 273.272 98.2575C270.482 104.269 262.911 108.321 256.361 107.308C249.812 106.295 246.764 100.6 249.554 94.5886Z" fill="url(#paint4_linear)"/>
<path d="M258.563 94.5858L263.489 91.9495L265.473 95.6565L268.34 94.1225L265.202 88.2594L257.409 92.4299L258.563 94.5858Z" fill="white"/>
<path d="M256.539 95.6686L255.385 93.5127L252.519 95.0468L253.673 97.2026L256.539 95.6686Z" fill="white"/>
<path d="M257.354 97.1914L259.337 100.896L264.265 98.2588L265.421 100.414L265.419 100.415L257.624 104.587L254.487 98.7255L254.486 98.7225L257.354 97.1914Z" fill="white"/>
<path d="M267.441 99.3334L270.307 97.7993L269.154 95.6435L266.287 97.1775L267.441 99.3334Z" fill="white"/>
<path d="M263.452 96.7374L263.453 96.7375L262.282 94.5498L260.133 95.7002L260.133 95.7002L259.886 95.8324L259.376 96.1051L259.372 96.1072L259.374 96.1103L260.544 98.2961L263.452 96.7394L263.454 96.7385L263.452 96.7374Z" fill="white"/>
<path d="M555.911 141.978C561.491 129.955 576.634 121.851 589.733 123.877L624.321 129.228C637.42 131.254 643.515 142.643 637.935 154.666C632.355 166.689 617.212 174.793 604.113 172.767L569.524 167.416C556.425 165.39 550.33 154.001 555.911 141.978Z" fill="#2B2B2B"/>
<path d="M578.682 150.361L580.809 150.69L582.58 146.875L586.673 147.508L587.42 145.898L583.327 145.265L584.348 143.065L588.883 143.766L589.631 142.156L582.968 141.126L578.682 150.361ZM588.732 152.056C589.848 152.229 590.777 151.894 591.445 151.306L591.504 151.315L591.058 152.276L593.043 152.583L595.211 147.911C595.977 146.26 594.777 145.33 593.096 145.07C591.288 144.791 589.731 145.4 588.855 146.618L590.724 147.062C591.08 146.624 591.684 146.355 592.436 146.471C593.148 146.582 593.403 146.974 593.139 147.542L593.127 147.569C592.919 148.015 592.376 147.994 591.01 147.909C589.458 147.804 587.903 148.056 587.185 149.603C586.549 150.974 587.293 151.833 588.732 152.056ZM589.947 150.823C589.303 150.723 588.969 150.377 589.214 149.849C589.465 149.308 590.075 149.117 590.856 149.137C591.34 149.149 592.133 149.165 592.455 149.05L592.114 149.785C591.777 150.512 590.866 150.965 589.947 150.823ZM594.667 152.834L596.76 153.158L598.579 149.239C598.974 148.387 599.924 147.905 600.848 148.048C601.138 148.093 601.515 148.2 601.684 148.289L602.475 146.584C602.307 146.515 602.06 146.447 601.848 146.415C601.003 146.284 600.101 146.628 599.428 147.442L599.35 147.43L599.911 146.221L597.882 145.907L594.667 152.834ZM600.328 153.71L602.421 154.033L604.351 149.876C604.706 149.109 605.474 148.681 606.171 148.789C606.859 148.896 607.12 149.4 606.804 150.081L604.799 154.401L606.828 154.715L608.791 150.485C609.124 149.768 609.797 149.35 610.559 149.468C611.227 149.571 611.55 150.032 611.192 150.803L609.206 155.083L611.294 155.406L613.456 150.748C614.153 149.246 613.578 148.239 612.173 148.021C611.067 147.85 609.967 148.236 609.289 148.982L609.21 148.969C609.342 148.13 608.807 147.501 607.771 147.34C606.754 147.183 605.752 147.56 605.059 148.327L604.97 148.314L605.538 147.092L603.543 146.783L600.328 153.71Z" fill="white"/>
<g filter="url(#filter2_ii)">
<rect width="419" height="62" rx="31" transform="matrix(0.988247 0.152869 -0.421004 0.907059 211.411 133.409)" fill="#1D1D1D"/>
</g>
<path d="M414.072 201.701L422.587 203.018L423.3 201.481L417.476 200.58L417.516 200.493L421.234 198.421C424.622 196.59 425.785 195.645 426.402 194.318C427.287 192.41 426.272 190.687 423.834 190.31C421.415 189.936 418.978 191.1 417.972 193.268L419.835 193.557C420.421 192.28 421.706 191.584 423.102 191.8C424.416 192.003 425.069 192.9 424.52 194.082C424.033 195.132 423.001 195.78 420.984 196.916L414.675 200.402L414.072 201.701ZM424.981 203.388L433.496 204.705L434.209 203.169L428.385 202.268L428.426 202.181L432.143 200.109C435.532 198.278 436.695 197.333 437.311 196.005C438.196 194.098 437.182 192.375 434.743 191.997C432.324 191.623 429.888 192.787 428.881 194.956L430.745 195.244C431.33 193.968 432.615 193.271 434.011 193.487C435.325 193.691 435.979 194.587 435.43 195.77C434.942 196.819 433.91 197.468 431.894 198.604L425.584 202.089L424.981 203.388ZM440.303 205.969C443.291 206.432 446.079 204.464 447.885 200.574C449.677 196.712 448.944 194.194 445.981 193.736C443.012 193.276 440.205 195.241 438.403 199.107C436.6 202.992 437.311 205.5 440.303 205.969ZM441.021 204.421C439.272 204.151 438.965 202.376 440.343 199.407C441.721 196.451 443.532 194.985 445.276 195.255C447.013 195.524 447.318 197.317 445.946 200.274C444.568 203.242 442.765 204.691 441.021 204.421ZM448.105 207.083C448.794 207.19 449.608 206.763 449.907 206.119C450.2 205.487 449.867 204.876 449.179 204.77C448.484 204.662 447.673 205.096 447.38 205.728C447.081 206.372 447.41 206.976 448.105 207.083ZM455.879 208.342C458.572 208.783 461.195 207.275 462.246 204.995C463.307 202.723 462.263 200.816 460.021 200.469C458.656 200.258 457.195 200.678 456.066 201.578L455.972 201.564C457.229 198.869 459.084 197.44 460.979 197.734C462.223 197.926 462.684 198.743 462.491 199.77L464.418 200.068C464.993 198.143 464.017 196.526 461.705 196.168C458.699 195.703 455.722 197.784 453.806 201.912C451.77 206.283 453.588 207.969 455.879 208.342ZM456.572 206.833C455.069 206.601 454.508 205.271 455.127 203.937C455.75 202.611 457.438 201.629 458.928 201.86C460.407 202.088 460.984 203.352 460.34 204.725C459.695 206.129 458.051 207.062 456.572 206.833ZM467.159 210.124C470.147 210.586 472.936 208.619 474.741 204.728C476.534 200.867 475.8 198.348 472.837 197.89C469.868 197.431 467.061 199.395 465.26 203.261C463.457 207.146 464.168 209.655 467.159 210.124ZM467.878 208.576C466.128 208.305 465.821 206.53 467.199 203.561C468.578 200.605 470.389 199.139 472.132 199.409C473.869 199.678 474.175 201.471 472.802 204.428C471.424 207.397 469.621 208.845 467.878 208.576ZM482.015 209.824C481.4 211.165 481.791 212.437 483.503 212.702C485.196 212.964 486.65 211.977 487.271 210.637L487.562 210.011C488.186 208.666 487.805 207.401 486.087 207.136C484.4 206.875 482.934 207.86 482.306 209.198L482.015 209.824ZM478.663 202.023C478.041 203.362 478.439 204.635 480.151 204.9C481.837 205.161 483.294 204.181 483.912 202.835L484.203 202.208C484.834 200.864 484.446 199.599 482.734 199.334C481.054 199.074 479.578 200.051 478.954 201.396L478.663 202.023ZM475.006 211.126L476.516 211.36L490.922 200.861L489.412 200.628L475.006 211.126ZM483.778 209.426C484.094 208.76 484.708 208.165 485.548 208.295C486.42 208.43 486.393 209.116 486.084 209.782L485.793 210.409C485.484 211.075 484.888 211.673 484.041 211.542C483.182 211.409 483.187 210.714 483.487 210.052L483.778 209.426ZM480.432 201.625C480.739 200.964 481.356 200.364 482.196 200.494C483.068 200.628 483.041 201.314 482.731 201.981L482.441 202.607C482.131 203.274 481.535 203.871 480.689 203.74C479.83 203.608 479.832 202.918 480.141 202.251L480.432 201.625Z" fill="white"/>
<path d="M287.748 169.433L284.191 177.098C283.443 178.71 281.692 179.682 279.721 179.377C277.756 179.073 277.075 177.725 277.823 176.113L281.381 168.448L279.429 168.146L275.804 175.956C274.647 178.449 275.86 180.532 278.962 181.012C282.063 181.492 284.925 180.039 286.082 177.546L289.707 169.736L287.748 169.433ZM298.153 174.386L300.035 174.677C300.861 172.767 299.669 171.103 297.042 170.697C294.445 170.295 291.823 171.35 290.873 173.397C290.106 175.049 290.945 176.217 292.784 177.054L294.135 177.673C295.363 178.224 296.236 178.806 295.747 179.861C295.208 181.021 293.647 181.6 291.985 181.343C290.482 181.11 289.516 180.302 290.003 178.992L288.045 178.689C287.173 180.859 288.369 182.467 291.269 182.916C294.307 183.386 296.738 182.19 297.672 180.178C298.665 178.038 296.971 176.888 295.501 176.263L294.378 175.766C293.477 175.372 292.333 174.729 292.867 173.593C293.335 172.584 294.687 171.992 296.279 172.238C297.763 172.468 298.522 173.269 298.153 174.386ZM302.669 184.468C306.611 185.078 309.933 183.187 311.655 179.476C313.369 175.783 312.122 173.204 308.313 172.614L303.992 171.946L298.481 183.82L302.669 184.468ZM301.159 182.557L305.218 173.813L307.466 174.161C310.296 174.599 311.034 176.379 309.735 179.179C308.429 181.991 306.238 183.342 303.288 182.886L301.159 182.557ZM314.937 175.292L318.968 175.916L314.172 186.247L316.118 186.548L320.913 176.216L324.95 176.841L325.666 175.299L315.653 173.75L314.937 175.292ZM332.943 181.986L324.048 180.61L323.351 182.112L332.246 183.488L332.943 181.986ZM331.261 188.891L336.22 189.658C339.227 190.123 341.223 188.959 342.068 187.138C342.921 185.301 342 184.046 340.747 183.784L340.801 183.668C342.118 183.573 343.454 182.984 344.143 181.5C344.958 179.743 344.264 178.176 341.51 177.75L336.772 177.017L331.261 188.891ZM333.926 187.656L335.691 183.853L338.578 184.299C340.145 184.542 340.693 185.621 340.169 186.752C339.706 187.749 338.62 188.382 336.743 188.092L333.926 187.656ZM336.34 182.456L338.017 178.843L340.682 179.256C342.23 179.495 342.622 180.358 342.164 181.343C341.632 182.491 340.269 183.063 338.955 182.86L336.34 182.456ZM358.853 180.432L356.92 180.133L352.873 188.853L352.753 188.835L350.218 179.097L348.411 178.817L342.9 190.691L344.852 190.993L348.894 182.285L349.014 182.303L351.548 192.029L353.342 192.307L358.853 180.432ZM356.189 192.747L361.148 193.514C364.155 193.979 366.151 192.815 366.996 190.995C367.849 189.157 366.928 187.902 365.675 187.64L365.729 187.524C367.046 187.429 368.382 186.84 369.071 185.356C369.886 183.599 369.192 182.032 366.438 181.606L361.7 180.873L356.189 192.747ZM358.854 191.512L360.62 187.709L363.506 188.156C365.073 188.398 365.622 189.477 365.097 190.608C364.634 191.605 363.548 192.238 361.672 191.948L358.854 191.512ZM361.268 186.312L362.945 182.7L365.61 183.112C367.158 183.351 367.55 184.214 367.092 185.199C366.56 186.347 365.197 186.919 363.883 186.716L361.268 186.312Z" fill="white"/>
<mask id="mask1" style="mask-type:alpha" maskUnits="userSpaceOnUse" x="234" y="157" width="24" height="23">
<path fill-rule="evenodd" clip-rule="evenodd" d="M234.226 176.96C237.963 175.058 241.145 172.039 242.831 168.407C244.517 164.775 244.376 161.242 242.787 158.515C245.101 157.744 247.544 157.47 249.86 157.828C256.409 158.841 259.457 164.535 256.667 170.547C253.876 176.558 246.305 180.61 239.756 179.597C237.44 179.239 235.563 178.296 234.226 176.96Z" fill="#C4C4C4"/>
</mask>
<g mask="url(#mask1)">
<g clip-path="url(#clip2)">
<g clip-path="url(#clip3)">
<path d="M249.86 157.828C256.409 158.841 259.457 164.536 256.667 170.547C253.877 176.558 246.305 180.61 239.756 179.597C233.207 178.584 230.158 172.891 232.949 166.878C235.739 160.866 243.31 156.815 249.86 157.828Z" fill="url(#paint5_linear)"/>
<path d="M249.86 157.828C256.409 158.841 259.457 164.536 256.667 170.547C253.877 176.558 246.305 180.61 239.756 179.597C233.207 178.584 230.158 172.891 232.949 166.878C235.739 160.866 243.31 156.815 249.86 157.828Z" fill="url(#paint6_linear)"/>
<path d="M249.86 157.828C256.409 158.841 259.457 164.536 256.667 170.547C253.877 176.558 246.305 180.61 239.756 179.597C233.207 178.584 230.158 172.891 232.949 166.878C235.739 160.866 243.31 156.815 249.86 157.828Z" fill="url(#paint7_linear)"/>
<path d="M241.958 166.875L246.884 164.239L248.868 167.946L251.734 166.412L248.597 160.549L240.804 164.719L241.958 166.875Z" fill="white"/>
<path d="M239.934 167.958L238.78 165.802L235.914 167.336L237.067 169.492L239.934 167.958Z" fill="white"/>
<path d="M240.749 169.481L242.731 173.186L247.66 170.548L248.815 172.703L248.814 172.704L241.019 176.876L237.882 171.015L237.88 171.012L240.749 169.481Z" fill="white"/>
<path d="M250.836 171.623L253.702 170.089L252.548 167.933L249.682 169.467L250.836 171.623Z" fill="white"/>
<path d="M246.847 169.027L246.848 169.027L245.677 166.839L243.527 167.99L243.527 167.99L243.28 168.122L242.771 168.395L242.767 168.397L242.768 168.4L243.938 170.586L246.847 169.029L246.848 169.028L246.847 169.027Z" fill="white"/>
</g>
</g>
</g>
<rect width="24.0003" height="24" rx="12" transform="matrix(0.988247 0.152869 -0.421004 0.907059 222.189 153.547)" fill="#F3BA2F"/>
<rect width="24.0003" height="24" rx="12" transform="matrix(0.988247 0.152869 -0.421004 0.907059 222.189 153.547)" fill="url(#paint8_linear)"/>
<rect width="24.0003" height="24" rx="12" transform="matrix(0.988247 0.152869 -0.421004 0.907059 222.189 153.547)" fill="url(#paint9_linear)"/>
<rect width="24.0003" height="24" rx="12" transform="matrix(0.988247 0.152869 -0.421004 0.907059 222.189 153.547)" fill="url(#paint10_linear)"/>
<path d="M231.261 168.139C231.911 166.739 231.2 166.114 229.426 165.626C228.167 165.259 228.048 164.898 228.308 164.338C228.568 163.777 229.18 163.486 230.069 163.624C230.869 163.748 231.202 164.056 231.146 164.691C231.135 164.818 231.231 164.918 231.364 164.939L232.076 165.049C232.253 165.077 232.443 164.977 232.517 164.817L232.535 164.777C232.766 163.869 232.282 163.066 231.296 162.827L231.742 161.867C231.816 161.707 231.739 161.566 231.535 161.492L230.868 161.389C230.69 161.361 230.501 161.461 230.364 161.654L229.937 162.574C228.529 162.528 227.313 163.197 226.849 164.198C226.236 165.518 226.884 166.176 228.658 166.664C229.81 167.057 230.098 167.359 229.801 167.999C229.504 168.639 228.677 168.983 227.833 168.852C226.677 168.674 226.481 168.172 226.626 167.551C226.656 167.384 226.56 167.283 226.427 167.263L225.671 167.146C225.493 167.118 225.304 167.218 225.23 167.378L225.211 167.418C224.925 168.445 225.302 169.276 226.676 169.703L226.23 170.663C226.156 170.823 226.234 170.963 226.437 171.038L227.104 171.141C227.282 171.169 227.471 171.069 227.608 170.876L228.054 169.916C229.48 169.922 230.759 169.219 231.261 168.139Z" fill="white"/>
<path d="M224.167 171.512C221.269 169.865 221.13 166.12 223.827 163.241C225.263 161.666 227.301 160.611 229.375 160.29C229.588 160.238 229.731 160.131 229.824 159.932L230.083 159.372C230.157 159.213 230.125 159.079 229.968 159.012C229.925 159.006 229.837 158.992 229.775 159.025C225.057 159.579 220.908 163.261 220.461 167.258C220.211 169.616 221.298 171.624 223.417 172.723C223.555 172.83 223.768 172.777 223.886 172.624C223.948 172.591 223.966 172.551 224.004 172.471L224.263 171.912C224.319 171.792 224.261 171.612 224.167 171.512ZM234.593 159.771C234.455 159.664 234.243 159.716 234.125 159.869C234.062 159.902 234.044 159.942 234.007 160.022L233.747 160.581C233.673 160.741 233.73 160.921 233.825 161.021C236.722 162.668 236.862 166.413 234.164 169.292C232.729 170.867 230.69 171.922 228.616 172.243C228.404 172.296 228.261 172.402 228.168 172.602L227.909 173.161C227.835 173.32 227.867 173.454 228.023 173.521C228.067 173.527 228.155 173.541 228.217 173.508C232.934 172.954 237.084 169.272 237.531 165.276C237.799 162.877 236.669 160.862 234.593 159.771Z" fill="white"/>
<path d="M523.493 211.821C529.074 199.798 544.216 191.695 557.315 193.721L591.904 199.071C605.003 201.098 611.098 212.487 605.518 224.51C599.937 236.532 584.795 244.636 571.696 242.61L537.107 237.26C524.008 235.233 517.913 223.844 523.493 211.821Z" fill="#2B2B2B"/>
<path d="M546.264 220.205L548.392 220.534L550.163 216.719L554.255 217.352L555.002 215.742L550.91 215.109L551.931 212.908L556.466 213.61L557.213 212L550.551 210.969L546.264 220.205ZM556.315 221.9C557.43 222.072 558.36 221.737 559.027 221.15L559.086 221.159L558.641 222.119L560.626 222.426L562.794 217.754C563.56 216.104 562.359 215.174 560.679 214.914C558.871 214.634 557.314 215.244 556.438 216.462L558.306 216.906C558.662 216.468 559.266 216.199 560.018 216.315C560.731 216.425 560.986 216.817 560.722 217.385L560.709 217.413C560.502 217.859 559.959 217.838 558.593 217.752C557.041 217.647 555.486 217.9 554.768 219.447C554.132 220.818 554.875 221.677 556.315 221.9ZM557.53 220.667C556.886 220.567 556.552 220.22 556.797 219.693C557.048 219.152 557.658 218.961 558.439 218.98C558.923 218.992 559.716 219.009 560.038 218.894L559.696 219.629C559.359 220.355 558.448 220.809 557.53 220.667ZM562.249 222.677L564.342 223.001L566.161 219.082C566.557 218.23 567.507 217.749 568.431 217.892C568.72 217.936 569.098 218.043 569.267 218.132L570.058 216.428C569.89 216.358 569.642 216.291 569.431 216.258C568.586 216.127 567.684 216.471 567.011 217.285L566.932 217.273L567.493 216.065L565.464 215.751L562.249 222.677ZM567.911 223.553L570.004 223.877L571.933 219.719C572.289 218.952 573.056 218.525 573.754 218.633C574.442 218.739 574.703 219.244 574.387 219.925L572.382 224.245L574.411 224.559L576.374 220.329C576.707 219.612 577.38 219.194 578.141 219.312C578.81 219.415 579.133 219.876 578.775 220.647L576.789 224.926L578.877 225.249L581.039 220.591C581.736 219.089 581.161 218.082 579.756 217.865C578.65 217.694 577.55 218.079 576.872 218.825L576.793 218.813C576.925 217.973 576.39 217.344 575.353 217.184C574.336 217.026 573.335 217.403 572.641 218.171L572.553 218.157L573.12 216.935L571.125 216.626L567.911 223.553Z" fill="white"/>
<g filter="url(#filter3_ii)">
<rect width="419" height="62" rx="31" transform="matrix(0.988247 0.152869 -0.421004 0.907059 178.994 203.252)" fill="#1D1D1D"/>
</g>
<path d="M381.654 271.544L390.17 272.861L390.883 271.325L385.059 270.424L385.099 270.337L388.816 268.265C392.205 266.434 393.368 265.489 393.984 264.161C394.87 262.254 393.855 260.531 391.417 260.153C388.997 259.779 386.561 260.943 385.555 263.112L387.418 263.4C388.004 262.124 389.288 261.427 390.684 261.643C391.998 261.847 392.652 262.743 392.103 263.926C391.616 264.975 390.584 265.624 388.567 266.76L382.257 270.245L381.654 271.544ZM392.564 273.232L401.079 274.549L401.792 273.012L395.968 272.111L396.008 272.024L399.726 269.952C403.114 268.121 404.277 267.176 404.894 265.849C405.779 263.941 404.764 262.218 402.326 261.841C399.907 261.467 397.47 262.631 396.464 264.799L398.327 265.088C398.913 263.811 400.198 263.115 401.594 263.331C402.908 263.534 403.561 264.431 403.012 265.613C402.525 266.663 401.493 267.311 399.476 268.447L393.167 271.933L392.564 273.232ZM407.886 275.813C410.873 276.275 413.662 274.308 415.468 270.417C417.26 266.556 416.526 264.038 413.564 263.579C410.595 263.12 407.787 265.084 405.986 268.951C404.183 272.835 404.894 275.344 407.886 275.813ZM408.604 274.265C406.854 273.994 406.547 272.219 407.925 269.251C409.304 266.295 411.115 264.829 412.859 265.098C414.596 265.367 414.901 267.16 413.528 270.117C412.151 273.086 410.348 274.535 408.604 274.265ZM415.688 276.927C416.376 277.033 417.191 276.606 417.489 275.962C417.783 275.33 417.45 274.72 416.762 274.613C416.067 274.506 415.256 274.94 414.963 275.572C414.664 276.215 414.993 276.819 415.688 276.927ZM419.613 277.416L421.653 277.731L432.056 268.316L432.793 266.728L424.24 265.405L423.527 266.941L430.058 267.952L430.018 268.038L419.613 277.416ZM433.613 279.793C436.601 280.255 439.389 278.287 441.195 274.397C442.987 270.536 442.254 268.017 439.291 267.559C436.322 267.1 433.514 269.064 431.713 272.93C429.91 276.815 430.621 279.324 433.613 279.793ZM434.331 278.245C432.581 277.974 432.275 276.199 433.653 273.23C435.031 270.274 436.842 268.808 438.586 269.078C440.323 269.347 440.628 271.14 439.256 274.097C437.878 277.066 436.075 278.514 434.331 278.245ZM448.469 279.493C447.854 280.833 448.245 282.106 449.957 282.371C451.65 282.632 453.103 281.645 453.725 280.306L454.015 279.68C454.64 278.335 454.258 277.07 452.54 276.804C450.854 276.544 449.388 277.529 448.76 278.867L448.469 279.493ZM445.117 271.691C444.495 273.031 444.892 274.304 446.604 274.569C448.291 274.83 449.748 273.85 450.366 272.503L450.657 271.877C451.287 270.533 450.9 269.268 449.188 269.003C447.507 268.743 446.032 269.72 445.407 271.065L445.117 271.691ZM441.46 280.795L442.97 281.029L457.375 270.53L455.865 270.297L441.46 280.795ZM450.232 279.095C450.547 278.429 451.162 277.834 452.002 277.964C452.874 278.099 452.847 278.785 452.537 279.451L452.247 280.077C451.937 280.744 451.341 281.342 450.495 281.211C449.636 281.078 449.64 280.383 449.941 279.721L450.232 279.095ZM446.885 271.294C447.192 270.633 447.809 270.032 448.65 270.162C449.521 270.297 449.494 270.983 449.185 271.65L448.894 272.276C448.585 272.943 447.989 273.54 447.143 273.409C446.283 273.276 446.285 272.587 446.595 271.92L446.885 271.294Z" fill="white"/>
<path d="M241.5 249.864L246.459 250.631C249.466 251.096 251.462 249.932 252.307 248.112C253.16 246.274 252.239 245.019 250.987 244.757L251.04 244.641C252.357 244.546 253.693 243.958 254.382 242.473C255.198 240.717 254.503 239.149 251.749 238.723L247.012 237.99L241.5 249.864ZM244.165 248.63L245.931 244.826L248.818 245.273C250.384 245.515 250.933 246.594 250.408 247.725C249.945 248.722 248.859 249.356 246.983 249.065L244.165 248.63ZM246.579 243.429L248.256 239.817L250.922 240.229C252.469 240.468 252.861 241.331 252.404 242.316C251.871 243.464 250.508 244.037 249.194 243.833L246.579 243.429ZM266.97 241.077L263.412 248.742C262.664 250.354 260.913 251.326 258.942 251.021C256.978 250.717 256.297 249.369 257.045 247.757L260.602 240.092L258.651 239.79L255.026 247.6C253.869 250.093 255.082 252.176 258.183 252.656C261.285 253.136 264.146 251.683 265.303 249.19L268.928 241.38L266.97 241.077ZM277.374 246.03L279.257 246.321C280.083 244.411 278.891 242.747 276.263 242.341C273.667 241.939 271.045 242.994 270.095 245.041C269.328 246.693 270.167 247.861 272.006 248.698L273.357 249.317C274.584 249.867 275.458 250.45 274.968 251.505C274.43 252.665 272.868 253.244 271.207 252.987C269.704 252.754 268.738 251.946 269.224 250.635L267.266 250.333C266.394 252.503 267.591 254.111 270.49 254.56C273.529 255.03 275.959 253.834 276.893 251.822C277.886 249.682 276.193 248.532 274.723 247.907L273.599 247.41C272.699 247.016 271.555 246.373 272.089 245.237C272.557 244.228 273.909 243.636 275.501 243.882C276.985 244.112 277.744 244.913 277.374 246.03ZM281.891 256.112C285.832 256.722 289.154 254.831 290.877 251.12C292.591 247.427 291.344 244.848 287.535 244.258L283.214 243.59L277.703 255.464L281.891 256.112ZM280.381 254.201L284.439 245.457L286.688 245.805C289.518 246.243 290.256 248.023 288.956 250.823C287.651 253.635 285.46 254.986 282.51 254.53L280.381 254.201ZM301.116 251.921L292.222 250.545L291.525 252.047L300.419 253.423L301.116 251.921ZM313.265 248.238L309.707 255.903C308.959 257.515 307.208 258.487 305.237 258.182C303.273 257.878 302.592 256.53 303.34 254.918L306.898 247.253L304.946 246.952L301.321 254.761C300.164 257.255 301.377 259.338 304.478 259.817C307.58 260.297 310.441 258.844 311.598 256.351L315.223 248.541L313.265 248.238ZM323.669 253.191L325.552 253.482C326.378 251.572 325.186 249.909 322.558 249.502C319.962 249.1 317.34 250.155 316.39 252.202C315.623 253.854 316.462 255.022 318.301 255.859L319.652 256.478C320.879 257.029 321.753 257.611 321.263 258.667C320.725 259.826 319.163 260.405 317.502 260.148C315.999 259.915 315.033 259.107 315.52 257.797L313.561 257.494C312.689 259.664 313.886 261.273 316.785 261.721C319.824 262.191 322.254 260.995 323.188 258.983C324.181 256.844 322.488 255.693 321.018 255.068L319.894 254.571C318.994 254.177 317.85 253.534 318.384 252.398C318.852 251.39 320.204 250.797 321.796 251.043C323.28 251.273 324.039 252.074 323.669 253.191ZM328.186 263.273C332.128 263.883 335.449 261.992 337.172 258.281C338.886 254.588 337.639 252.009 333.83 251.42L329.509 250.751L323.998 262.625L328.186 263.273ZM326.676 261.362L330.734 252.619L332.983 252.966C335.813 253.404 336.551 255.184 335.251 257.984C333.946 260.796 331.755 262.148 328.805 261.691L326.676 261.362ZM340.454 254.097L344.484 254.721L339.689 265.053L341.634 265.354L346.43 255.022L350.466 255.646L351.182 254.104L341.17 252.555L340.454 254.097Z" fill="white"/>
<mask id="mask2" style="mask-type:alpha" maskUnits="userSpaceOnUse" x="201" y="227" width="25" height="23">
<path fill-rule="evenodd" clip-rule="evenodd" d="M201.809 246.804C205.546 244.901 208.728 241.882 210.414 238.25C212.1 234.618 211.959 231.085 210.37 228.359C212.684 227.588 215.127 227.313 217.442 227.671C223.992 228.684 227.04 234.379 224.249 240.39C221.459 246.402 213.888 250.454 207.338 249.441C205.023 249.083 203.145 248.139 201.809 246.804Z" fill="#C4C4C4"/>
</mask>
<g mask="url(#mask2)">
<g clip-path="url(#clip4)">
<g clip-path="url(#clip5)">
<path d="M217.442 227.671C223.992 228.684 227.039 234.379 224.249 240.39C221.459 246.402 213.887 250.454 207.338 249.441C200.789 248.428 197.741 242.734 200.531 236.722C203.322 230.709 210.893 226.658 217.442 227.671Z" fill="#53AE94"/>
<path d="M217.442 227.671C223.992 228.684 227.039 234.379 224.249 240.39C221.459 246.402 213.887 250.454 207.338 249.441C200.789 248.428 197.741 242.734 200.531 236.722C203.322 230.709 210.893 226.658 217.442 227.671Z" fill="url(#paint11_linear)"/>
<path d="M217.442 227.671C223.992 228.684 227.039 234.379 224.249 240.39C221.459 246.402 213.887 250.454 207.338 249.441C200.789 248.428 197.741 242.734 200.531 236.722C203.322 230.709 210.893 226.658 217.442 227.671Z" fill="url(#paint12_linear)"/>
</g>
</g>
<path d="M214.655 240.429C215.305 239.028 214.595 238.404 212.821 237.915C211.561 237.549 211.443 237.187 211.703 236.627C211.963 236.067 212.575 235.776 213.464 235.913C214.264 236.037 214.597 236.346 214.541 236.98C214.53 237.107 214.626 237.208 214.759 237.229L215.47 237.339C215.648 237.366 215.837 237.267 215.911 237.107L215.93 237.067C216.161 236.159 215.676 235.355 214.691 235.117L215.137 234.157C215.211 233.997 215.133 233.856 214.93 233.782L214.263 233.678C214.085 233.651 213.896 233.75 213.759 233.944L213.332 234.864C211.924 234.818 210.708 235.487 210.244 236.487C209.631 237.808 210.278 238.465 212.053 238.954C213.204 239.347 213.493 239.649 213.196 240.289C212.899 240.929 212.072 241.273 211.228 241.142C210.072 240.963 209.876 240.461 210.021 239.84C210.051 239.674 209.955 239.573 209.822 239.552L209.066 239.435C208.888 239.408 208.699 239.507 208.625 239.667L208.606 239.707C208.32 240.735 208.697 241.565 210.071 241.992L209.625 242.952C209.551 243.112 209.628 243.253 209.832 243.327L210.499 243.431C210.677 243.458 210.866 243.359 211.003 243.166L211.449 242.205C212.875 242.212 214.154 241.509 214.655 240.429Z" fill="white"/>
<path d="M207.562 243.801C204.664 242.155 204.524 238.409 207.222 235.531C208.658 233.955 210.696 232.901 212.77 232.58C212.982 232.527 213.126 232.421 213.218 232.221L213.478 231.662C213.552 231.502 213.52 231.369 213.363 231.302C213.319 231.295 213.232 231.282 213.169 231.315C208.452 231.869 204.302 235.55 203.855 239.547C203.606 241.905 204.693 243.914 206.812 245.012C206.95 245.119 207.162 245.066 207.28 244.913C207.343 244.88 207.361 244.84 207.398 244.76L207.658 244.201C207.713 244.081 207.656 243.901 207.562 243.801ZM217.988 232.06C217.85 231.953 217.637 232.006 217.519 232.159C217.457 232.192 217.439 232.232 217.401 232.312L217.142 232.871C217.068 233.031 217.125 233.211 217.219 233.311C220.117 234.958 220.257 238.703 217.559 241.581C216.124 243.157 214.085 244.211 212.011 244.532C211.799 244.585 211.656 244.691 211.563 244.891L211.303 245.45C211.229 245.61 211.261 245.743 211.418 245.81C211.462 245.817 211.549 245.831 211.612 245.797C216.329 245.243 220.479 241.562 220.926 237.565C221.194 235.167 220.063 233.152 217.988 232.06Z" fill="white"/>
</g>
<rect width="24.0003" height="24" rx="12" transform="matrix(0.988247 0.152869 -0.421004 0.907059 189.772 223.391)" fill="#F3BA2F"/>
<rect width="24.0003" height="24" rx="12" transform="matrix(0.988247 0.152869 -0.421004 0.907059 189.772 223.391)" fill="url(#paint13_linear)"/>
<path d="M199.641 229.778L200.623 231.686L194.366 235.034L193.366 233.165L199.641 229.778Z" fill="white"/>
<path d="M201.159 232.615L202.141 234.523L192.112 239.89L191.112 238.021L201.159 232.615Z" fill="white"/>
<path d="M192.096 233.816L193.079 235.723L190.594 237.053L189.594 235.184L192.096 233.816Z" fill="white"/>
<path d="M202.677 235.452L203.66 237.36L193.631 242.727L192.63 240.858L202.677 235.452Z" fill="white"/>
<path d="M491.076 281.665C496.656 269.642 511.799 261.538 524.898 263.564L559.487 268.915C572.586 270.941 578.681 282.33 573.1 294.353C567.52 306.376 552.377 314.48 539.278 312.454L504.69 307.103C491.591 305.077 485.496 293.688 491.076 281.665Z" fill="#2B2B2B"/>
<path d="M513.847 290.048L515.974 290.377L517.745 286.562L521.838 287.195L522.585 285.585L518.492 284.952L519.514 282.752L524.049 283.453L524.796 281.843L518.134 280.813L513.847 290.048ZM523.898 291.743C525.013 291.916 525.942 291.581 526.61 290.993L526.669 291.002L526.223 291.963L528.208 292.27L530.377 287.598C531.143 285.947 529.942 285.017 528.262 284.757C526.454 284.478 524.896 285.087 524.02 286.305L525.889 286.749C526.245 286.311 526.849 286.042 527.601 286.158C528.313 286.269 528.568 286.661 528.305 287.229L528.292 287.256C528.085 287.702 527.542 287.681 526.175 287.596C524.623 287.491 523.068 287.743 522.351 289.29C521.714 290.661 522.458 291.52 523.898 291.743ZM525.112 290.51C524.469 290.41 524.135 290.064 524.38 289.536C524.631 288.995 525.241 288.804 526.021 288.824C526.506 288.836 527.298 288.852 527.62 288.737L527.279 289.473C526.942 290.199 526.031 290.652 525.112 290.51ZM529.832 292.521L531.925 292.845L533.744 288.926C534.139 288.074 535.09 287.592 536.013 287.735C536.303 287.78 536.68 287.887 536.849 287.976L537.641 286.271C537.473 286.202 537.225 286.134 537.014 286.102C536.169 285.971 535.267 286.315 534.594 287.129L534.515 287.117L535.076 285.908L533.047 285.594L529.832 292.521ZM535.493 293.397L537.586 293.72L539.516 289.563C539.872 288.796 540.639 288.368 541.337 288.476C542.024 288.583 542.285 289.087 541.969 289.768L539.964 294.088L541.993 294.402L543.957 290.172C544.289 289.455 544.963 289.037 545.724 289.155C546.392 289.258 546.716 289.719 546.358 290.49L544.371 294.77L546.459 295.093L548.622 290.435C549.318 288.933 548.743 287.926 547.338 287.708C546.233 287.537 545.132 287.923 544.454 288.669L544.376 288.657C544.508 287.817 543.973 287.188 542.936 287.027C541.919 286.87 540.917 287.247 540.224 288.014L540.136 288.001L540.703 286.779L538.708 286.47L535.493 293.397Z" fill="white"/>
<g opacity="0.47" filter="url(#filter4_f)">
<rect width="90.3529" height="88.4706" rx="44.2353" transform="matrix(0.988247 0.152869 -0.421004 0.907059 156.048 59.2512)" fill="black"/>
</g>
<rect width="90.3535" height="90.353" rx="45.1765" transform="matrix(0.988247 0.152869 -0.421004 0.907059 144.787 19.0793)" fill="url(#paint14_linear)"/>
<rect width="90.3535" height="90.353" rx="45.1765" transform="matrix(0.988247 0.152869 -0.421004 0.907059 144.787 19.0793)" fill="url(#paint15_linear)"/>
<path d="M165.048 63.5051L174.321 58.5427L178.055 65.5205L183.451 62.633L177.545 51.5965L162.876 59.4469L165.048 63.5051Z" fill="white"/>
<path d="M161.239 65.5432L159.067 61.4851L153.671 64.3728L155.843 68.4309L161.239 65.5432Z" fill="white"/>
<path d="M162.772 68.4096L166.505 75.3837L175.782 70.419L177.957 74.4755L177.954 74.4771L163.281 82.3299L157.376 71.2974L157.373 71.2917L162.772 68.4096Z" fill="white"/>
<path d="M181.759 72.4419L187.155 69.5542L184.983 65.4961L179.588 68.3838L181.759 72.4419Z" fill="white"/>
<path d="M174.251 67.555L174.253 67.5552L172.049 63.4372L168.003 65.6027L168.002 65.6026L167.538 65.8515L166.579 66.3648L166.571 66.3688L166.574 66.3747L168.776 70.489L174.251 67.5589L174.254 67.5572L174.251 67.555Z" fill="white"/>
<g opacity="0.47" filter="url(#filter5_f)">
<rect width="69.1765" height="67.7353" rx="33.8677" transform="matrix(0.988247 0.152869 -0.421004 0.907059 504.085 371.431)" fill="black"/>
</g>
<rect width="69.1765" height="69.1765" rx="34.5883" transform="matrix(0.988247 0.152869 -0.421004 0.907059 495.463 340.675)" fill="url(#paint16_linear)"/>
<rect width="69.1765" height="69.1765" rx="34.5883" transform="matrix(0.988247 0.152869 -0.421004 0.907059 495.463 340.675)" fill="url(#paint17_linear)"/>
<rect width="69.1765" height="69.1765" rx="34.5883" transform="matrix(0.988247 0.152869 -0.421004 0.907059 495.463 340.675)" fill="url(#paint18_linear)"/>
<path d="M513.138 381.526L506.435 376.436L508.445 391.637L523.352 379.053L513.138 381.526Z" fill="white"/>
<path d="M523.606 376.449L521.725 363.035L508.463 374.122L517.589 371.945L523.606 376.449Z" fill="white"/>
<path d="M508.594 375.897L514.195 380.264L522.842 378.095L517.229 373.726L508.594 375.897Z" fill="white"/>
<defs>
<filter id="filter0_f" x="0.908672" y="1.91431" width="860.61" height="539.037" filterUnits="userSpaceOnUse" color-interpolation-filters="sRGB">
<feFlood flood-opacity="0" result="BackgroundImageFix"/>
<feBlend mode="normal" in="SourceGraphic" in2="BackgroundImageFix" result="shape"/>
<feGaussianBlur stdDeviation="50" result="effect1_foregroundBlur"/>
</filter>
<filter id="filter1_ii" x="228.105" y="67.9031" width="419.421" height="115.614" filterUnits="userSpaceOnUse" color-interpolation-filters="sRGB">
<feFlood flood-opacity="0" result="BackgroundImageFix"/>
<feBlend mode="normal" in="SourceGraphic" in2="BackgroundImageFix" result="shape"/>
<feColorMatrix in="SourceAlpha" type="matrix" values="0 0 0 0 0 0 0 0 0 0 0 0 0 0 0 0 0 0 127 0" result="hardAlpha"/>
<feOffset dy="4"/>
<feGaussianBlur stdDeviation="12.5"/>
<feComposite in2="hardAlpha" operator="arithmetic" k2="-1" k3="1"/>
<feColorMatrix type="matrix" values="0 0 0 0 0 0 0 0 0 0 0 0 0 0 0 0 0 0 0.25 0"/>
<feBlend mode="normal" in2="shape" result="effect1_innerShadow"/>
<feColorMatrix in="SourceAlpha" type="matrix" values="0 0 0 0 0 0 0 0 0 0 0 0 0 0 0 0 0 0 127 0" result="hardAlpha"/>
<feOffset dy="-1"/>
<feComposite in2="hardAlpha" operator="arithmetic" k2="-1" k3="1"/>
<feColorMatrix type="matrix" values="0 0 0 0 0.504167 0 0 0 0 0.504167 0 0 0 0 0.504167 0 0 0 0.15 0"/>
<feBlend mode="normal" in2="effect1_innerShadow" result="effect2_innerShadow"/>
</filter>
<filter id="filter2_ii" x="195.687" y="137.747" width="419.421" height="115.614" filterUnits="userSpaceOnUse" color-interpolation-filters="sRGB">
<feFlood flood-opacity="0" result="BackgroundImageFix"/>
<feBlend mode="normal" in="SourceGraphic" in2="BackgroundImageFix" result="shape"/>
<feColorMatrix in="SourceAlpha" type="matrix" values="0 0 0 0 0 0 0 0 0 0 0 0 0 0 0 0 0 0 127 0" result="hardAlpha"/>
<feOffset dy="4"/>
<feGaussianBlur stdDeviation="12.5"/>
<feComposite in2="hardAlpha" operator="arithmetic" k2="-1" k3="1"/>
<feColorMatrix type="matrix" values="0 0 0 0 0 0 0 0 0 0 0 0 0 0 0 0 0 0 0.25 0"/>
<feBlend mode="normal" in2="shape" result="effect1_innerShadow"/>
<feColorMatrix in="SourceAlpha" type="matrix" values="0 0 0 0 0 0 0 0 0 0 0 0 0 0 0 0 0 0 127 0" result="hardAlpha"/>
<feOffset dy="-1"/>
<feComposite in2="hardAlpha" operator="arithmetic" k2="-1" k3="1"/>
<feColorMatrix type="matrix" values="0 0 0 0 0.504167 0 0 0 0 0.504167 0 0 0 0 0.504167 0 0 0 0.15 0"/>
<feBlend mode="normal" in2="effect1_innerShadow" result="effect2_innerShadow"/>
</filter>
<filter id="filter3_ii" x="163.27" y="207.59" width="419.421" height="115.614" filterUnits="userSpaceOnUse" color-interpolation-filters="sRGB">
<feFlood flood-opacity="0" result="BackgroundImageFix"/>
<feBlend mode="normal" in="SourceGraphic" in2="BackgroundImageFix" result="shape"/>
<feColorMatrix in="SourceAlpha" type="matrix" values="0 0 0 0 0 0 0 0 0 0 0 0 0 0 0 0 0 0 127 0" result="hardAlpha"/>
<feOffset dy="4"/>
<feGaussianBlur stdDeviation="12.5"/>
<feComposite in2="hardAlpha" operator="arithmetic" k2="-1" k3="1"/>
<feColorMatrix type="matrix" values="0 0 0 0 0 0 0 0 0 0 0 0 0 0 0 0 0 0 0.25 0"/>
<feBlend mode="normal" in2="shape" result="effect1_innerShadow"/>
<feColorMatrix in="SourceAlpha" type="matrix" values="0 0 0 0 0 0 0 0 0 0 0 0 0 0 0 0 0 0 127 0" result="hardAlpha"/>
<feOffset dy="-1"/>
<feComposite in2="hardAlpha" operator="arithmetic" k2="-1" k3="1"/>
<feColorMatrix type="matrix" values="0 0 0 0 0.504167 0 0 0 0 0.504167 0 0 0 0 0.504167 0 0 0 0.15 0"/>
<feBlend mode="normal" in2="effect1_innerShadow" result="effect2_innerShadow"/>
</filter>
<filter id="filter4_f" x="80.9053" y="12.7353" width="202.33" height="187.092" filterUnits="userSpaceOnUse" color-interpolation-filters="sRGB">
<feFlood flood-opacity="0" result="BackgroundImageFix"/>
<feBlend mode="normal" in="SourceGraphic" in2="BackgroundImageFix" result="shape"/>
<feGaussianBlur stdDeviation="26.3529" result="effect1_foregroundBlur"/>
</filter>
<filter id="filter5_f" x="446.554" y="335.817" width="154.909" height="143.243" filterUnits="userSpaceOnUse" color-interpolation-filters="sRGB">
<feFlood flood-opacity="0" result="BackgroundImageFix"/>
<feBlend mode="normal" in="SourceGraphic" in2="BackgroundImageFix" result="shape"/>
<feGaussianBlur stdDeviation="20.1765" result="effect1_foregroundBlur"/>
</filter>
<linearGradient id="paint0_linear" x1="169.5" y1="0" x2="169.5" y2="320" gradientUnits="userSpaceOnUse">
<stop stop-color="#252525"/>
<stop offset="1" stop-color="#252525" stop-opacity="0"/>
</linearGradient>
<linearGradient id="paint1_linear" x1="169.5" y1="0" x2="169.5" y2="320" gradientUnits="userSpaceOnUse">
<stop stop-color="#242424"/>
<stop offset="1" stop-color="#252525" stop-opacity="0"/>
</linearGradient>
<linearGradient id="paint2_linear" x1="251.5" y1="0" x2="251.5" y2="320" gradientUnits="userSpaceOnUse">
<stop stop-color="#2E2E2E"/>
<stop offset="1" stop-color="#252525"/>
</linearGradient>
<linearGradient id="paint3_linear" x1="282.277" y1="87.9843" x2="278.752" y2="110.771" gradientUnits="userSpaceOnUse">
<stop stop-color="#00E685"/>
<stop offset="1" stop-color="#009B5A"/>
</linearGradient>
<linearGradient id="paint4_linear" x1="266.465" y1="85.5383" x2="262.94" y2="108.325" gradientUnits="userSpaceOnUse">
<stop stop-color="#FFBE1A"/>
<stop offset="1" stop-color="#F59300"/>
</linearGradient>
<linearGradient id="paint5_linear" x1="249.86" y1="157.828" x2="246.335" y2="180.615" gradientUnits="userSpaceOnUse">
<stop stop-color="#63CFB0"/>
<stop offset="1" stop-color="#178C6B"/>
</linearGradient>
<linearGradient id="paint6_linear" x1="249.86" y1="157.828" x2="246.335" y2="180.615" gradientUnits="userSpaceOnUse">
<stop stop-color="#2DBEFF"/>
<stop offset="1" stop-color="#0072DB"/>
</linearGradient>
<linearGradient id="paint7_linear" x1="249.86" y1="157.828" x2="246.335" y2="180.615" gradientUnits="userSpaceOnUse">
<stop stop-color="#FFBE1A"/>
<stop offset="1" stop-color="#F59300"/>
</linearGradient>
<linearGradient id="paint8_linear" x1="12.0002" y1="0" x2="12.0002" y2="24" gradientUnits="userSpaceOnUse">
<stop stop-color="#FFBE1A"/>
<stop offset="1" stop-color="#F59300"/>
</linearGradient>
<linearGradient id="paint9_linear" x1="12.0002" y1="0" x2="12.0002" y2="24" gradientUnits="userSpaceOnUse">
<stop stop-color="#FFBE1A"/>
<stop offset="1" stop-color="#F59300"/>
</linearGradient>
<linearGradient id="paint10_linear" x1="12.0002" y1="0" x2="12.0002" y2="24" gradientUnits="userSpaceOnUse">
<stop stop-color="#2DBEFF"/>
<stop offset="1" stop-color="#0072DB"/>
</linearGradient>
<linearGradient id="paint11_linear" x1="217.442" y1="227.671" x2="213.918" y2="250.458" gradientUnits="userSpaceOnUse">
<stop stop-color="#00E685"/>
<stop offset="1" stop-color="#009B5A"/>
</linearGradient>
<linearGradient id="paint12_linear" x1="217.442" y1="227.671" x2="213.918" y2="250.458" gradientUnits="userSpaceOnUse">
<stop stop-color="#2DBEFF"/>
<stop offset="1" stop-color="#0072DB"/>
</linearGradient>
<linearGradient id="paint13_linear" x1="12.0002" y1="0" x2="12.0002" y2="24" gradientUnits="userSpaceOnUse">
<stop stop-color="#FFBE1A"/>
<stop offset="1" stop-color="#F59300"/>
</linearGradient>
<linearGradient id="paint14_linear" x1="45.1768" y1="0" x2="45.1768" y2="90.353" gradientUnits="userSpaceOnUse">
<stop stop-color="#00E685"/>
<stop offset="1" stop-color="#009B5A"/>
</linearGradient>
<linearGradient id="paint15_linear" x1="45.1768" y1="0" x2="45.1768" y2="90.353" gradientUnits="userSpaceOnUse">
<stop stop-color="#FFBE1A"/>
<stop offset="1" stop-color="#F59300"/>
</linearGradient>
<linearGradient id="paint16_linear" x1="34.5883" y1="0" x2="34.5883" y2="69.1765" gradientUnits="userSpaceOnUse">
<stop stop-color="#00E685"/>
<stop offset="1" stop-color="#009B5A"/>
</linearGradient>
<linearGradient id="paint17_linear" x1="34.5883" y1="0" x2="34.5883" y2="69.1765" gradientUnits="userSpaceOnUse">
<stop stop-color="#FFBE1A"/>
<stop offset="1" stop-color="#F59300"/>
</linearGradient>
<linearGradient id="paint18_linear" x1="34.5883" y1="0" x2="34.5883" y2="69.1765" gradientUnits="userSpaceOnUse">
<stop stop-color="#2DBEFF"/>
<stop offset="1" stop-color="#0072DB"/>
</linearGradient>
<clipPath id="clip0">
<rect width="24" height="24" fill="white" transform="matrix(0.988247 0.152869 -0.421004 0.907059 270.418 86.1499)"/>
</clipPath>
<clipPath id="clip1">
<rect width="24" height="24" fill="white" transform="matrix(0.988247 0.152869 -0.421004 0.907059 270.418 86.1499)"/>
</clipPath>
<clipPath id="clip2">
<rect width="24" height="24" fill="white" transform="matrix(0.988247 0.152869 -0.421004 0.907059 238.001 155.993)"/>
</clipPath>
<clipPath id="clip3">
<rect width="24" height="24" fill="white" transform="matrix(0.988247 0.152869 -0.421004 0.907059 238.001 155.993)"/>
</clipPath>
<clipPath id="clip4">
<rect width="24" height="24" fill="white" transform="matrix(0.988247 0.152869 -0.421004 0.907059 205.584 225.837)"/>
</clipPath>
<clipPath id="clip5">
<rect width="24" height="24" fill="white" transform="matrix(0.988247 0.152869 -0.421004 0.907059 205.584 225.837)"/>
</clipPath>
</defs>
</svg>
