<svg xmlns="http://www.w3.org/2000/svg" width="548" height="348" fill="none" viewBox="0 0 548 348"><g filter="url(#filter0_f)" opacity=".5"><rect width="78.245" height="142.583" fill="#010D14" rx="19.061" transform="matrix(0.993193 -0.153406 0.426325 0.916938 139.69 142.068)"/></g><g style="mix-blend-mode:color-burn" filter="url(#filter1_f)" opacity=".3"><rect width="78.245" height="142.583" fill="#010D14" rx="19.061" transform="matrix(0.993193 -0.153406 0.426325 0.916938 259.118 157.357)"/></g><g filter="url(#filter2_b)"><rect width="154.119" height="153.189" fill="#fff" rx="23.827" transform="matrix(0.993193 -0.153406 0.426325 0.916938 143.446 60.5723)"/><rect width="154.119" height="153.189" fill="url(#paint0_linear)" rx="23.827" transform="matrix(0.993193 -0.153406 0.426325 0.916938 143.446 60.5723)"/></g><path fill="#fff" d="M245.508 97.5327C243.774 93.8042 240.309 90.8978 238.323 90.0875C238.323 90.0875 238.18 90.0467 238.262 90.1953C241.488 97.4181 238.4 99.9876 237.426 102.954C235.181 109.807 242.983 115.733 248.359 116.22C251.357 116.496 247.171 115.098 244.873 111.138C242.092 106.359 247.381 101.562 245.508 97.5327Z"/><path fill="#fff" d="M248.952 99.6325C248.911 99.619 248.861 99.6111 248.855 99.6631C249.193 100.582 249.09 102.675 248.644 104.656C247.13 111.364 250.947 113.897 253.062 115.25C254.288 116.032 253.062 115.25 254.638 114.011C256.475 112.241 256.969 109.592 255.969 106.891C254.367 102.537 250.313 100.264 248.952 99.6325Z"/><rect width="57.489" height="57.132" x="1.268" y=".682" stroke="#fff" stroke-opacity=".25" stroke-width="1.787" rx="28.566" transform="matrix(0.993193 -0.153406 0.426325 0.916938 202.821 80.5608)"/><path fill="#fff" d="M256.901 160.158L250.818 147.074L248.293 147.464L250.823 152.904L243.928 153.969L241.399 148.528L238.865 148.92L244.948 162.005L247.482 161.613L244.843 155.937L251.738 154.872L254.377 160.548L256.901 160.158ZM267.66 156.378L261.021 157.403L259.284 153.667L265.56 152.698L264.696 150.839L258.42 151.809L256.775 148.272L263.415 147.247L262.496 145.27L253.322 146.687L259.406 159.771L268.579 158.355L267.66 156.378ZM276.99 157.289C280.339 156.771 281.869 154.718 281.008 151.848L278.523 152.231C278.864 153.87 277.952 155.012 276.076 155.301C273.621 155.681 271.213 154.08 269.847 151.142C268.49 148.222 269.191 146.131 271.627 145.755C273.464 145.471 275.409 146.327 276.506 147.917L279.001 147.531C277.38 144.769 273.994 143.261 270.704 143.769C266.677 144.391 265.315 147.371 267.254 151.542C269.206 155.741 272.943 157.914 276.99 157.289ZM284.985 141.563C280.85 142.202 279.467 145.205 281.402 149.367C283.337 153.529 287.136 155.722 291.271 155.083C295.396 154.446 296.783 151.452 294.848 147.29C292.913 143.128 289.11 140.926 284.985 141.563ZM285.912 143.558C288.436 143.168 290.907 144.769 292.265 147.689C293.618 150.6 292.867 152.698 290.343 153.088C287.809 153.479 285.348 151.877 283.995 148.966C282.637 146.046 283.378 143.949 285.912 143.558Z"/><mask id="mask0" width="219" height="165" x="295" y="140" maskUnits="userSpaceOnUse" style="mask-type:alpha"><path fill="#C4C4C4" d="M295.258 164.514L448.328 140.871L513.636 281.335L360.567 304.978L295.258 164.514Z"/></mask><g mask="url(#mask0)"><rect width="154.119" height="153.189" fill="url(#paint1_linear)" rx="23.827" transform="matrix(0.993193 -0.153406 0.426325 0.916938 295.258 164.514)"/><rect width="57.489" height="57.132" x="1.268" y=".682" stroke="#fff" stroke-opacity=".35" stroke-width="1.787" rx="28.566" transform="matrix(0.993193 -0.153406 0.426325 0.916938 355.136 185.583)"/><path fill="#fff" d="M389.645 209.5L387.871 212.764L383.503 210.449L385.277 207.185L389.645 209.5ZM393.953 201.573L401.441 205.543L403.215 202.279L391.359 195.994L386.544 204.854L390.912 207.169L393.953 201.573ZM406.335 203.932L404.561 207.196L408.929 209.512L410.703 206.248L406.335 203.932ZM400.253 215.123L392.765 211.154L390.991 214.418L402.847 220.703L407.662 211.843L403.294 209.528L400.253 215.123ZM398.4 211.138L400.174 207.874L395.806 205.559L394.032 208.823L398.4 211.138Z"/><path fill="#fff" d="M407.413 264.301C410.438 263.834 411.617 262.136 410.546 259.832C409.741 258.1 407.801 257.03 405.795 257.155L405.762 257.082C407.114 256.64 407.675 255.242 407.021 253.836C406.098 251.85 403.843 250.828 401.27 251.226L395.387 252.134L401.471 265.219L407.413 264.301ZM398.768 253.565L401.479 253.147C402.992 252.913 404.146 253.425 404.677 254.567C405.242 255.783 404.57 256.625 402.802 256.898L400.484 257.256L398.768 253.565ZM403.157 263.005L401.256 258.915L403.976 258.495C405.921 258.195 407.267 258.735 407.887 260.068C408.511 261.41 407.852 262.28 405.986 262.568L403.157 263.005ZM411.791 259.679C413.02 262.074 415.853 263.231 419.113 262.727C422.541 262.198 423.977 260.304 422.822 257.82C421.915 255.87 420.187 254.961 417.027 254.798L415.236 254.705C413.321 254.593 412.368 254.196 411.963 253.325C411.457 252.237 412.2 251.345 413.801 251.098C415.422 250.847 416.873 251.41 417.56 252.616L419.976 252.243C418.846 249.949 416.059 248.708 412.935 249.19C409.851 249.667 408.391 251.574 409.47 253.895C410.338 255.763 412.115 256.733 414.985 256.882L417.007 256.998C418.976 257.111 419.956 257.543 420.395 258.486C420.9 259.574 420.075 260.538 418.366 260.802C416.637 261.069 414.964 260.482 414.246 259.3L411.791 259.679ZM432.726 260.624C436.076 260.107 437.605 258.053 436.744 255.183L434.26 255.567C434.6 257.206 433.689 258.347 431.813 258.637C429.357 259.016 426.95 257.415 425.584 254.477C424.226 251.558 424.928 249.467 427.364 249.09C429.2 248.807 431.146 249.663 432.243 251.252L434.738 250.867C433.116 248.105 429.731 246.596 426.44 247.105C422.413 247.727 421.052 250.707 422.991 254.878C424.943 259.076 428.68 261.249 432.726 260.624Z"/></g><g style="mix-blend-mode:color-burn" filter="url(#filter3_f)" opacity=".3"><rect width="78.245" height="142.583" fill="#010D14" rx="19.061" transform="matrix(0.993193 -0.153406 0.426325 0.916938 140.667 106.167)"/></g><rect width="154.119" height="153.189" fill="url(#paint2_linear)" rx="23.827" transform="matrix(0.993193 -0.153406 0.426325 0.916938 118.639 191.794)"/><rect width="57.489" height="57.132" x="1.268" y=".682" stroke="#fff" stroke-opacity=".25" stroke-width="1.787" rx="28.566" transform="matrix(0.993193 -0.153406 0.426325 0.916938 178.08 211.923)"/><path fill="#fff" d="M206.784 282.872L212.868 295.957L215.402 295.565L213.391 291.24L216.259 290.797C219.127 290.354 220.318 288.275 219.104 285.663C217.89 283.052 215.113 281.586 212.294 282.021L206.784 282.872ZM210.208 284.394L212.516 284.037C214.333 283.757 215.801 284.492 216.531 286.061C217.268 287.648 216.629 288.718 214.812 288.999L212.514 289.354L210.208 284.394ZM229.064 293.659C232.119 293.187 233.23 291.004 231.78 287.885C230.333 284.774 227.449 283.189 224.414 283.657C221.379 284.126 220.261 286.34 221.702 289.441C223.153 292.56 226.009 294.131 229.064 293.659ZM228.233 291.873C226.682 292.113 225.14 291.107 224.187 289.057C223.239 287.017 223.707 285.691 225.249 285.453C226.8 285.213 228.346 286.228 229.295 288.268C230.247 290.318 229.785 291.633 228.233 291.873ZM235.654 292.437L238.1 292.059L232.016 278.975L229.571 279.352L235.654 292.437ZM243.002 295.131C245.379 294.764 246.153 293.78 245.938 291.257L245.054 280.683L242.48 281.081L243.6 289.149L243.561 289.156L237.53 281.845L234.859 282.258L243.035 291.307C243.057 291.333 243.133 291.836 243.146 291.863C243.284 292.794 242.928 293.228 241.916 293.385C241.769 293.407 241.333 293.465 241.192 293.458L242.023 295.244C242.163 295.251 242.865 295.153 243.002 295.131ZM254.163 287.664C252.621 287.902 251.107 286.911 250.222 285.007C249.345 283.121 249.771 281.772 251.313 281.534C252.874 281.293 254.451 282.352 255.32 284.22C256.192 286.097 255.724 287.423 254.163 287.664ZM256.67 293.079C259.705 292.61 261.007 290.815 259.941 288.521L255.543 279.063L253.147 279.433L253.914 281.084L253.875 281.09C252.761 280.076 251.234 279.554 249.751 279.783C247.089 280.194 246.301 282.347 247.713 285.385C249.105 288.377 251.678 289.972 254.251 289.574C255.744 289.344 256.651 288.465 256.711 287.348L256.77 287.339L257.524 288.962C258.094 290.186 257.564 291.152 255.973 291.398C254.814 291.577 253.688 291.216 253.081 290.523L250.655 290.898C251.685 292.546 254.097 293.476 256.67 293.079ZM266.701 287.846C269.756 287.374 270.867 285.191 269.417 282.071C267.971 278.961 265.086 277.375 262.051 277.844C259.016 278.313 257.898 280.527 259.339 283.628C260.79 286.747 263.646 288.318 266.701 287.846ZM265.871 286.059C264.319 286.299 262.777 285.293 261.824 283.244C260.876 281.204 261.344 279.878 262.886 279.64C264.437 279.4 265.983 280.415 266.932 282.455C267.885 284.504 267.422 285.82 265.871 286.059ZM273.223 286.634L275.668 286.257L273.08 280.689C272.439 279.311 272.898 278.239 274.303 278.022C275.698 277.806 276.739 278.462 277.372 279.822L280.049 285.58L282.494 285.202L279.606 278.991C278.573 276.769 276.635 275.611 274.336 275.966C272.736 276.213 271.946 277.074 271.917 278.303L271.868 278.31L271.101 276.66L268.754 277.023L273.223 286.634Z"/><path fill="#fff" fill-rule="evenodd" d="M204.586 225.743C203.165 227.012 201.911 228.283 201.799 228.566C201.624 229.014 201.824 229.567 203.326 232.791C204.505 235.322 205.22 236.645 205.576 236.953C206.302 237.581 214.669 240.062 215.618 239.931C216.139 239.859 217.692 238.632 221.102 235.601C223.986 233.037 226.106 231.333 226.484 231.275C226.827 231.222 228.343 231.547 229.853 231.997C233.111 232.969 233.425 233.246 234.687 236.264C235.658 238.584 235.604 238.764 233.362 240.681C232.187 241.685 231.667 241.985 231.155 241.953C230.143 241.889 225.901 240.596 225.288 240.164C224.958 239.932 224.51 239.271 224.135 238.464C223.797 237.738 223.442 237.156 223.345 237.172C223.248 237.187 222.731 237.603 222.196 238.095L221.224 238.99L221.799 240.386C222.55 242.209 222.845 242.375 228.01 243.885C231.006 244.76 232.28 245.035 232.9 244.939C233.52 244.843 234.396 244.231 236.259 242.591C237.646 241.371 238.897 240.198 239.041 239.985C239.273 239.64 239.088 239.135 237.372 235.445C235.675 231.794 235.369 231.25 234.832 230.932C234.496 230.732 232.227 229.994 229.79 229.291C226.278 228.278 225.246 228.06 224.821 228.239C224.527 228.364 223.59 229.109 222.74 229.895C221.89 230.682 220.621 231.803 219.921 232.387C219.221 232.971 217.8 234.226 216.763 235.175C215.727 236.124 214.633 236.938 214.334 236.984C213.645 237.091 208.479 235.536 207.911 235.052C207.678 234.853 206.986 233.612 206.374 232.296C205.284 229.953 205.269 229.889 205.663 229.274C206.317 228.252 208.575 226.375 209.283 226.266C209.939 226.164 215.095 227.6 215.672 228.045C215.837 228.172 216.341 228.937 216.79 229.744L217.608 231.213L218.633 230.295L219.658 229.378L218.895 227.737C218.291 226.439 218.014 226.041 217.568 225.833C217.258 225.688 215.186 225.028 212.964 224.367C209.864 223.444 208.719 223.196 208.047 223.3C207.372 223.404 206.573 223.968 204.586 225.743Z" clip-rule="evenodd"/><defs><filter id="filter0_f" width="208.27" height="219.619" x="104.805" y="91.627" color-interpolation-filters="sRGB" filterUnits="userSpaceOnUse"><feFlood flood-opacity="0" result="BackgroundImageFix"/><feBlend in="SourceGraphic" in2="BackgroundImageFix" mode="normal" result="shape"/><feGaussianBlur result="effect1_foregroundBlur" stdDeviation="20.849"/></filter><filter id="filter1_f" width="208.27" height="219.619" x="224.233" y="106.916" color-interpolation-filters="sRGB" filterUnits="userSpaceOnUse"><feFlood flood-opacity="0" result="BackgroundImageFix"/><feBlend in="SourceGraphic" in2="BackgroundImageFix" mode="normal" result="shape"/><feGaussianBlur result="effect1_foregroundBlur" stdDeviation="20.849"/></filter><filter id="filter2_b" width="263.299" height="217.909" x="120.985" y="10.028" color-interpolation-filters="sRGB" filterUnits="userSpaceOnUse"><feFlood flood-opacity="0" result="BackgroundImageFix"/><feGaussianBlur in="BackgroundImage" stdDeviation="15.488"/><feComposite in2="SourceAlpha" operator="in" result="effect1_backgroundBlur"/><feBlend in="SourceGraphic" in2="effect1_backgroundBlur" mode="normal" result="shape"/></filter><filter id="filter3_f" width="208.27" height="219.619" x="105.781" y="55.726" color-interpolation-filters="sRGB" filterUnits="userSpaceOnUse"><feFlood flood-opacity="0" result="BackgroundImageFix"/><feBlend in="SourceGraphic" in2="BackgroundImageFix" mode="normal" result="shape"/><feGaussianBlur result="effect1_foregroundBlur" stdDeviation="20.849"/></filter><linearGradient id="paint0_linear" x1="77.059" x2="77.059" y1="0" y2="153.189" gradientUnits="userSpaceOnUse"><stop stop-color="#3F9CFF"/><stop offset="1" stop-color="#226CFF"/></linearGradient><linearGradient id="paint1_linear" x1="77.059" x2="77.059" y1="0" y2="153.189" gradientUnits="userSpaceOnUse"><stop stop-color="#FEE29A"/><stop offset="1" stop-color="#FA9D00"/></linearGradient><linearGradient id="paint2_linear" x1="77.059" x2="77.059" y1="0" y2="153.189" gradientUnits="userSpaceOnUse"><stop stop-color="#9B60FF"/><stop offset="1" stop-color="#7220FB"/></linearGradient></defs></svg>