<svg width="48" height="48" viewBox="0 0 48 48" fill="none" xmlns="http://www.w3.org/2000/svg">
<path fill-rule="evenodd" clip-rule="evenodd" d="M8.82057 7.71973C7.12568 8.56718 6.36291 9.59915 6.36291 10.516C6.36291 11.4329 7.12568 12.4649 8.82057 13.3123C10.4706 14.1373 12.8026 14.6692 15.4194 14.6692C18.0362 14.6692 20.3681 14.1373 22.0182 13.3123C23.7131 12.4649 24.4758 11.4329 24.4758 10.516C24.4758 9.59915 23.7131 8.56718 22.0182 7.71973C20.3681 6.89472 18.0362 6.36279 15.4194 6.36279C12.8026 6.36279 10.4706 6.89472 8.82057 7.71973ZM25.9758 10.5141C25.9748 8.72388 24.5427 7.30493 22.689 6.37809C20.7898 5.42849 18.2185 4.86279 15.4194 4.86279C12.6202 4.86279 10.049 5.42849 8.14975 6.37809C6.2954 7.30527 4.86291 8.72491 4.86291 10.516C4.86291 10.5961 4.86578 10.6755 4.87142 10.7542C4.84471 10.8312 4.8302 10.9139 4.8302 11V36C4.8302 37.8083 6.24414 39.2541 8.09665 40.2031C9.98869 41.1724 12.5502 41.7498 15.3388 41.75C16.6194 41.752 17.8968 41.6223 19.1519 41.3628C19.5575 41.2789 19.8183 40.8821 19.7345 40.4764C19.6506 40.0708 19.2538 39.81 18.8481 39.8939C17.6937 40.1326 16.5188 40.2519 15.3413 40.25H15.3401C12.7384 40.25 10.4205 39.7083 8.78058 38.8681C7.10084 38.0076 6.3302 36.9533 6.3302 36V33.0547C6.84677 33.521 7.46981 33.9271 8.14957 34.2669C10.0485 35.2164 12.6193 35.782 15.4182 35.7821L15.4194 35.0321V35.7821H15.4188C16.7037 35.7841 17.9856 35.6571 19.2452 35.4029C19.6512 35.3209 19.9139 34.9253 19.832 34.5193C19.75 34.1133 19.3544 33.8506 18.9484 33.9325C17.7871 34.1669 16.6052 34.284 15.4205 34.2821L15.4194 34.2821C12.8023 34.2821 10.4703 33.7503 8.82039 32.9253C7.12562 32.0779 6.36291 31.0459 6.36291 30.1289C6.36291 30.0525 6.35147 29.9787 6.3302 29.9092V28.1515C6.84677 28.6178 7.46981 29.0238 8.14957 29.3637C10.0485 30.3132 12.6193 30.8788 15.4182 30.8789L15.4194 30.1289V30.8789H15.4188C16.7037 30.8809 17.9856 30.7538 19.2452 30.4996C19.6512 30.4177 19.9139 30.0221 19.832 29.6161C19.75 29.2101 19.3544 28.9473 18.9484 29.0293C17.7871 29.2636 16.6052 29.3808 15.4205 29.3789L15.4194 29.3789C12.8023 29.3789 10.4703 28.847 8.82039 28.0221C7.12562 27.1747 6.36291 26.1427 6.36291 25.2257C6.36291 25.1492 6.35147 25.0754 6.3302 25.0059V23.2483C6.84677 23.7146 7.46981 24.1206 8.14957 24.4605C10.0486 25.41 12.6196 25.9756 15.4188 25.9757C16.7037 25.9777 17.9856 25.8506 19.2452 25.5964C19.6512 25.5145 19.9139 25.1189 19.832 24.7129C19.75 24.3068 19.3544 24.0441 18.9484 24.126C17.7871 24.3604 16.6052 24.4776 15.4205 24.4757H15.4194C12.8023 24.4757 10.4703 23.9438 8.82039 23.1188C7.12562 22.2715 6.36291 21.2395 6.36291 20.3225C6.36291 20.246 6.35147 20.1722 6.3302 20.1027V18.345C6.84677 18.8113 7.46981 19.2174 8.14957 19.5573C10.0487 20.5068 12.62 21.0725 15.4194 21.0725C18.2187 21.0725 20.79 20.5068 22.6892 19.5573C23.3546 19.2245 23.9657 18.8284 24.4758 18.3744V20.3225C24.4758 20.7367 24.8116 21.0725 25.2258 21.0725C25.64 21.0725 25.9758 20.7367 25.9758 20.3225L25.9758 15.4192V10.516V10.5141ZM15.4188 25.9757H15.4194V25.2257L15.4182 25.9757L15.4188 25.9757ZM15.3388 41.75L15.3401 41V41.75H15.3388ZM6.3302 15.1995V13.4416C6.84682 13.9079 7.46994 14.314 8.14975 14.6539C10.049 15.6035 12.6202 16.1692 15.4194 16.1692C18.2185 16.1692 20.7898 15.6035 22.689 14.6539C23.3545 14.3212 23.9657 13.925 24.4758 13.4709V15.4175L24.4758 15.4192C24.4758 16.3363 23.7131 17.3682 22.0183 18.2156C20.3684 19.0406 18.0364 19.5725 15.4194 19.5725C12.8023 19.5725 10.4703 19.0406 8.82039 18.2156C7.12562 17.3682 6.36291 16.3363 6.36291 15.4192C6.36291 15.3428 6.35147 15.269 6.3302 15.1995Z" fill="white"/>
<path fill-rule="evenodd" clip-rule="evenodd" d="M25.9819 24.8814C24.287 25.7288 23.5242 26.7608 23.5242 27.6776C23.5242 28.5945 24.287 29.6265 25.9819 30.4739C27.6319 31.2989 29.9639 31.8309 32.5807 31.8309C35.1974 31.8309 37.5294 31.2989 39.1795 30.4739C40.8743 29.6265 41.6371 28.5945 41.6371 27.6776C41.6371 26.7608 40.8743 25.7288 39.1795 24.8814C37.5294 24.0563 35.1974 23.5244 32.5807 23.5244C29.9639 23.5244 27.6319 24.0563 25.9819 24.8814ZM25.311 23.5397C23.4567 24.4669 22.0242 25.8865 22.0242 27.6776V32.5809V37.4841C22.0242 39.2753 23.4565 40.6949 25.3109 41.6221C27.21 42.5717 29.7813 43.1373 32.5807 43.1373C35.38 43.1373 37.9513 42.5717 39.8504 41.6221C41.7048 40.6949 43.1371 39.2753 43.1371 37.4841V32.5809V27.6776C43.1371 25.8865 41.7046 24.4669 39.8503 23.5397C37.9511 22.5901 35.3798 22.0244 32.5807 22.0244C29.7815 22.0244 27.2102 22.5901 25.311 23.5397ZM41.6371 32.5809V30.6326C41.127 31.0866 40.5158 31.4828 39.8503 31.8156C37.9511 32.7652 35.3798 33.3309 32.5807 33.3309C29.7815 33.3309 27.2102 32.7652 25.311 31.8156C24.6455 31.4828 24.0343 31.0866 23.5242 30.6326V32.5809C23.5242 33.4979 24.2869 34.5299 25.9817 35.3772C27.6316 36.2022 29.9636 36.7341 32.5807 36.7341C35.1977 36.7341 37.5297 36.2022 39.1796 35.3772C40.8744 34.5299 41.6371 33.4979 41.6371 32.5809ZM23.5242 35.536C24.0343 35.99 24.6454 36.3861 25.3109 36.7189C27.21 37.6685 29.7813 38.2341 32.5807 38.2341C35.38 38.2341 37.9513 37.6685 39.8504 36.7189C40.5159 36.3861 41.127 35.99 41.6371 35.536V37.4841C41.6371 38.4011 40.8744 39.4331 39.1796 40.2805C37.5297 41.1054 35.1977 41.6373 32.5807 41.6373C29.9636 41.6373 27.6316 41.1054 25.9817 40.2805C24.2869 39.4331 23.5242 38.4011 23.5242 37.4841V35.536Z" fill="#009CE1"/>
</svg>
