<svg xmlns="http://www.w3.org/2000/svg" width="48" height="48" fill="none" viewBox="0 0 48 48"><path stroke="#000" stroke-linecap="round" stroke-linejoin="round" stroke-width="2" d="M2 26.5058H15.8614C16.1 26.5066 16.3336 26.4395 16.5335 26.3128C16.7334 26.1861 16.8907 26.0054 16.9862 25.7928L19.1525 20.8736C19.2482 20.6558 19.4086 20.4708 19.6131 20.3422C19.8177 20.2137 20.0571 20.1475 20.3007 20.1521C20.5443 20.1566 20.7809 20.2319 20.9801 20.368C21.1794 20.5042 21.3323 20.6952 21.4192 20.9164L25.5025 31.2373C25.5862 31.4492 25.7305 31.6334 25.9185 31.7681C26.1064 31.9028 26.3302 31.9824 26.5632 31.9974C26.7963 32.0124 27.0289 31.9622 27.2335 31.8528C27.4381 31.7433 27.6062 31.5792 27.7178 31.3799L32.7865 22.3494C32.8887 22.1671 33.0381 22.0141 33.22 21.9054C33.4019 21.7967 33.61 21.7363 33.8234 21.73C34.0368 21.7238 34.2482 21.772 34.4365 21.8698C34.6248 21.9676 34.7835 22.1116 34.8967 22.2876L38.6915 28.193C38.8085 28.3757 38.9743 28.5241 39.1713 28.6223C39.3683 28.7206 39.589 28.765 39.8099 28.7508C40.0308 28.7367 40.2436 28.6645 40.4256 28.542C40.6076 28.4195 40.7519 28.2512 40.8432 28.0552L46 17"/><path stroke="#fff" stroke-linecap="round" stroke-linejoin="round" stroke-width="2" d="M2 26.5058H15.8614C16.1 26.5066 16.3336 26.4395 16.5335 26.3128C16.7334 26.1861 16.8907 26.0054 16.9862 25.7928L19.1525 20.8736C19.2482 20.6558 19.4086 20.4708 19.6131 20.3422C19.8177 20.2137 20.0571 20.1475 20.3007 20.1521C20.5443 20.1566 20.7809 20.2319 20.9801 20.368C21.1794 20.5042 21.3323 20.6952 21.4192 20.9164L25.5025 31.2373C25.5862 31.4492 25.7305 31.6334 25.9185 31.7681C26.1064 31.9028 26.3302 31.9824 26.5632 31.9974C26.7963 32.0124 27.0289 31.9622 27.2335 31.8528C27.4381 31.7433 27.6062 31.5792 27.7178 31.3799L32.7865 22.3494C32.8887 22.1671 33.0381 22.0141 33.22 21.9054C33.4019 21.7967 33.61 21.7363 33.8234 21.73C34.0368 21.7238 34.2482 21.772 34.4365 21.8698C34.6248 21.9676 34.7835 22.1116 34.8967 22.2876L38.6915 28.193C38.8085 28.3757 38.9743 28.5241 39.1713 28.6223C39.3683 28.7206 39.589 28.765 39.8099 28.7508C40.0308 28.7367 40.2436 28.6645 40.4256 28.542C40.6076 28.4195 40.7519 28.2512 40.8432 28.0552L46 17"/><path stroke="#009CE1" stroke-linecap="round" stroke-linejoin="round" stroke-width="2" d="M27.7178 31.3799L32.7865 22.3494C32.8887 22.1671 33.0381 22.0141 33.22 21.9054C33.4019 21.7967 33.61 21.7363 33.8234 21.73C34.0368 21.7238 34.2482 21.772 34.4365 21.8698C34.6248 21.9676 34.7835 22.1116 34.8967 22.2876L38.6915 28.193C38.8085 28.3757 38.9743 28.5241 39.1713 28.6223C39.3682 28.7206 39.589 28.765 39.8099 28.7508C40.0308 28.7367 40.2436 28.6645 40.4256 28.542C40.6076 28.4195 40.7519 28.2512 40.8432 28.0552L46 17"/></svg>