<svg width="48" height="48" viewBox="0 0 48 48" fill="none" xmlns="http://www.w3.org/2000/svg">
<path d="M31.182 13.9997L33.174 10.0157C34.442 7.47967 31.808 4.76167 29.234 5.94967L24 8.36567L18.766 5.94967C16.192 4.76167 13.558 7.47767 14.826 10.0157L16.818 13.9997" stroke="#009CE1" stroke-width="1.56" stroke-linecap="round" stroke-linejoin="round"/>
<path fill-rule="evenodd" clip-rule="evenodd" d="M33 14H15C13.896 14 13 14.896 13 16V18C13 19.104 13.896 20 15 20H33C34.104 20 35 19.104 35 18V16C35 14.896 34.104 14 33 14Z" stroke="white" stroke-width="1.56" stroke-linecap="round" stroke-linejoin="round"/>
<path d="M15.5 20.0001L12.066 25.4941C9.624 29.4021 9.874 34.4181 12.694 38.0641C14.778 40.7601 17.994 42.3361 21.402 42.3361H26.6C30.006 42.3361 33.222 40.7581 35.306 38.0641C38.128 34.4181 38.378 29.4021 35.936 25.4921C34.846 23.7461 33.65 21.8341 32.502 19.9961" stroke="white" stroke-width="1.56" stroke-linecap="round" stroke-linejoin="round"/>
</svg>
