<svg xmlns="http://www.w3.org/2000/svg" width="632" height="536" fill="none" viewBox="0 0 632 536"><g filter="url(#filter0_f)" opacity=".23"><rect width="345" height="279" fill="#000" rx="39" transform="matrix(0.988247 -0.152869 0.421004 0.907059 86.709 188.935)"/></g><rect width="339" height="363" fill="url(#paint0_linear)" opacity=".5" rx="39" transform="matrix(0.988247 -0.152869 0.421004 0.907059 50.5204 104.12)"/><rect width="339" height="363" fill="url(#paint1_linear)" rx="39" transform="matrix(0.988247 -0.152869 0.421004 0.907059 57.6552 73.8507)"/><rect width="339" height="363" fill="url(#paint2_linear)" rx="39" transform="matrix(0.988247 -0.152869 0.421004 0.907059 69 52.6521)"/><path fill="#929292" fill-rule="evenodd" d="M298.36 155.91C298.91 156.205 299.536 156.108 299.757 155.694L301.459 152.514C301.681 152.1 301.414 151.526 300.864 151.232C300.313 150.937 299.688 151.034 299.466 151.448L298.733 152.818L295.118 145.03C294.886 144.53 294.255 144.192 293.709 144.276C293.163 144.361 292.909 144.835 293.142 145.336L296.756 153.124L294.934 152.149C294.384 151.854 293.758 151.951 293.537 152.365C293.315 152.779 293.582 153.353 294.132 153.648L298.36 155.91ZM284.439 140.28L283.706 141.65C283.485 142.064 282.859 142.161 282.308 141.866C281.758 141.572 281.492 140.998 281.713 140.584L283.415 137.404C283.636 136.99 284.262 136.893 284.812 137.188L289.04 139.45C289.591 139.745 289.857 140.319 289.636 140.733C289.414 141.147 288.788 141.244 288.238 140.949L286.416 139.974L290.031 147.762C290.263 148.263 290.009 148.737 289.463 148.822C288.918 148.906 288.287 148.568 288.054 148.068L284.439 140.28Z" clip-rule="evenodd"/><rect width="255" height="63" fill="#343434" rx="31.5" transform="matrix(0.988247 -0.152869 0.421004 0.907059 215.336 272.089)"/><path fill="#fff" d="M338.105 279.686L339.987 279.395C339.048 277.502 336.575 276.405 333.948 276.812C331.351 277.213 329.994 278.883 330.944 280.93C331.711 282.583 333.449 283.352 335.767 283.546L337.473 283.692C339.012 283.815 340.274 284.067 340.764 285.122C341.302 286.282 340.45 287.234 338.789 287.491C337.286 287.723 335.75 287.302 335.036 286.027L333.078 286.33C334.202 288.461 336.632 289.508 339.531 289.06C342.57 288.59 343.638 286.852 342.705 284.84C341.712 282.701 339.249 282.193 337.434 282.076L336.031 281.97C334.91 281.889 333.362 281.662 332.841 280.525C332.373 279.516 333.03 278.613 334.622 278.366C336.106 278.137 337.457 278.611 338.105 279.686ZM348.334 287.487L350.255 287.19L349.241 280.455L349.386 280.433L354.342 286.558L356.268 286.26L354.984 276.913L353.032 277.215L354.165 284.018L354.07 284.033L349.153 277.815L347.201 278.117L348.329 284.952L348.234 284.967L343.298 278.721L341.346 279.023L348.334 287.487ZM363.647 285.329C365.252 285.081 365.808 284.194 365.858 283.471L365.934 283.459L366.499 284.677L368.344 284.392L365.599 278.478C364.396 275.886 361.933 275.714 360.392 275.952C358.635 276.224 357.32 277.124 357.442 278.845L359.389 278.941C359.373 278.266 359.798 277.548 361.068 277.352C362.287 277.163 363.184 277.652 363.653 278.661L363.671 278.701C363.965 279.333 363.252 279.431 361.595 279.886C359.848 280.368 358.17 281.1 359.109 283.123C359.922 284.874 361.802 285.615 363.647 285.329ZM363.412 283.874C362.344 284.04 361.369 283.718 360.971 282.86C360.54 281.932 361.284 281.463 362.315 281.161C362.892 280.991 364.275 280.615 364.431 280.324L364.964 281.472C365.454 282.527 364.985 283.631 363.412 283.874ZM372.232 287.37L374.12 287.078L371.927 282.352L372.041 282.335C372.646 282.85 373.801 283.734 375.569 283.46C377.919 283.097 378.823 281.105 377.486 278.224C376.145 275.336 373.626 273.905 371.282 274.268C369.482 274.546 369.3 275.656 369.221 276.258L369.063 276.283L368.393 274.839L366.548 275.124L372.232 287.37ZM370.466 279.291C369.602 277.43 369.913 276.058 371.562 275.803C373.274 275.538 374.749 276.733 375.57 278.501C376.399 280.287 376.147 281.786 374.46 282.047C372.837 282.298 371.335 281.164 370.466 279.291Z"/><g filter="url(#filter1_ii)"><rect width="255" height="63" fill="#1D1D1D" rx="31.5" transform="matrix(0.988247 -0.152869 0.421004 0.907059 176.183 187.733)"/></g><path fill="#fff" d="M262.616 220.055L267.575 219.288C270.581 218.823 271.302 217.239 270.457 215.418C269.604 213.58 267.72 212.76 266.408 212.894L266.354 212.778C267.412 212.316 268.06 211.421 267.371 209.936C266.555 208.18 264.596 207.022 261.842 207.448L257.104 208.181L262.616 220.055ZM263.855 218.217L262.089 214.413L264.976 213.967C266.543 213.725 267.952 214.501 268.477 215.631C268.94 216.629 268.548 217.491 266.672 217.781L263.855 218.217ZM261.441 213.016L259.764 209.404L262.43 208.992C263.977 208.752 265.064 209.386 265.521 210.372C266.054 211.52 265.37 212.408 264.056 212.612L261.441 213.016ZM279.007 204.793L277.074 205.092L281.122 213.812L281.002 213.831L270.372 206.129L268.565 206.408L274.077 218.282L276.029 217.981L271.987 209.272L272.107 209.253L282.725 216.945L284.519 216.667L279.007 204.793ZM287.188 216.254L292.147 215.487C295.154 215.022 295.874 213.438 295.029 211.617C294.176 209.779 292.292 208.958 290.98 209.093L290.926 208.977C291.985 208.515 292.632 207.62 291.943 206.135C291.128 204.378 289.169 203.221 286.414 203.647L281.677 204.38L287.188 216.254ZM288.427 214.416L286.662 210.612L289.548 210.166C291.115 209.924 292.525 210.7 293.049 211.83C293.512 212.828 293.12 213.69 291.244 213.98L288.427 214.416ZM286.013 209.215L284.336 205.603L287.002 205.191C288.55 204.951 289.636 205.585 290.094 206.571C290.626 207.718 289.942 208.607 288.628 208.811L286.013 209.215Z" opacity=".7"/><path fill="#fff" d="M370.784 203.497C373.425 203.089 374.691 201.339 373.77 199.369C373.079 197.866 371.587 196.941 369.756 196.963L369.713 196.871C370.916 196.343 371.342 195.233 370.717 193.9C369.913 192.154 367.661 190.905 365.173 191.29C362.797 191.658 361.501 193.269 362.334 195.209L364.222 194.917C363.761 193.82 364.572 192.987 365.842 192.79C367.162 192.586 368.369 193.188 368.871 194.285C369.41 195.432 368.756 196.341 367.322 196.563L366.229 196.732L366.907 198.193L368 198.024C369.794 197.747 371.218 198.421 371.772 199.616C372.308 200.769 371.578 201.721 370.056 201.957C368.653 202.174 367.254 201.682 366.688 200.638L364.705 200.945C365.685 202.869 368.169 203.902 370.784 203.497ZM377.492 202.285L386.007 200.968L385.294 199.432L379.47 200.333L379.43 200.246L380.854 197.378C382.203 194.814 382.392 193.66 381.776 192.333C380.89 190.425 378.519 189.226 376.081 189.603C373.662 189.977 372.56 191.689 373.567 193.857L375.43 193.569C374.832 192.294 375.341 191.321 376.737 191.105C378.051 190.901 379.394 191.489 379.943 192.672C380.43 193.721 380.097 194.581 379.335 196.147L376.889 200.987L377.492 202.285ZM386.598 198.391L392.731 197.442L393.808 199.762L395.671 199.473L394.595 197.154L396.307 196.889L395.602 195.37L393.89 195.635L390.16 187.599L387.753 187.971L385.925 196.942L386.598 198.391ZM392.039 195.921L387.939 196.556L387.896 196.463L389.198 190.035L389.299 190.019L392.039 195.921ZM400.241 198.885C400.93 198.778 401.265 198.173 400.966 197.529C400.673 196.898 399.856 196.465 399.167 196.571C398.472 196.679 398.146 197.288 398.439 197.92C398.738 198.564 399.546 198.992 400.241 198.885ZM402.432 195.942L408.566 194.993L409.642 197.312L411.506 197.024L410.429 194.705L412.141 194.44L411.436 192.921L409.724 193.186L405.994 185.15L403.588 185.522L401.759 194.492L402.432 195.942ZM407.873 193.472L403.774 194.106L403.731 194.013L405.033 187.585L405.134 187.57L407.873 193.472ZM415.241 196.446L423.756 195.129L423.043 193.592L417.219 194.493L417.179 194.406L418.603 191.539C419.952 188.975 420.141 187.821 419.525 186.493C418.639 184.586 416.268 183.386 413.83 183.764C411.411 184.138 410.309 185.849 411.316 188.018L413.179 187.73C412.581 186.455 413.09 185.481 414.486 185.265C415.8 185.062 417.143 185.65 417.692 186.833C418.179 187.882 417.846 188.741 417.084 190.307L414.638 195.147L415.241 196.446Z" opacity=".7"/><path fill="#fff" d="M252.538 199.254L253.948 199.036L252.212 195.297L256.181 194.683L255.666 193.573L251.697 194.187L250.484 191.574L254.868 190.896L254.351 189.782L248.557 190.678L252.538 199.254ZM259.74 198.14L261.104 197.929L259.281 194.001C258.89 193.16 259.315 192.443 260.283 192.293C260.565 192.25 260.906 192.246 261.029 192.259L260.473 191.061C260.329 191.065 260.054 191.095 259.88 191.121C259.059 191.248 258.555 191.784 258.62 192.515L258.547 192.526L258.073 191.504L256.754 191.708L259.74 198.14ZM267.303 197.109C269.278 196.804 269.953 195.277 269.03 193.288C268.101 191.286 266.194 190.158 264.219 190.464C262.243 190.769 261.568 192.297 262.497 194.298C263.42 196.287 265.328 197.415 267.303 197.109ZM266.82 196.057C265.529 196.257 264.446 195.316 263.873 194.081C263.302 192.85 263.418 191.71 264.709 191.51C265.991 191.312 267.079 192.265 267.65 193.496C268.224 194.732 268.102 195.859 266.82 196.057ZM271.903 196.258L273.268 196.047L271.427 192.082C271.025 191.215 271.406 190.51 272.182 190.39C272.939 190.273 273.678 190.652 274.002 191.352L275.987 195.627L277.346 195.417L275.443 191.317C275.084 190.542 275.339 189.902 276.229 189.764C276.949 189.652 277.714 189.929 278.118 190.8L280.065 194.996L281.429 194.785L279.427 190.472C278.745 189.002 277.511 188.408 276.243 188.604C275.234 188.76 274.683 189.321 274.664 190.06L274.591 190.071C273.959 189.415 273.118 189.087 272.182 189.232C271.256 189.375 270.764 189.905 270.8 190.658L270.713 190.671L270.227 189.624L268.918 189.827L271.903 196.258Z" opacity=".3"/><path fill="#fff" d="M368.163 181.368L371.744 180.814C373.916 180.479 374.436 179.334 373.826 178.02C373.21 176.692 371.849 176.099 370.901 176.196L370.862 176.113C371.627 175.779 372.094 175.132 371.597 174.06C371.008 172.791 369.593 171.956 367.604 172.263L364.182 172.793L368.163 181.368ZM369.057 180.041L367.782 177.294L369.867 176.971C370.999 176.796 372.017 177.357 372.396 178.173C372.73 178.894 372.447 179.516 371.092 179.726L369.057 180.041ZM367.314 176.285L366.103 173.676L368.028 173.378C369.146 173.205 369.931 173.663 370.261 174.375C370.646 175.204 370.152 175.846 369.203 175.992L367.314 176.285ZM378.436 179.932C379.595 179.753 379.996 179.112 380.033 178.59L380.088 178.581L380.496 179.461L381.828 179.255L379.846 174.983C378.977 173.112 377.198 172.987 376.085 173.16C374.817 173.356 373.866 174.005 373.954 175.248L375.361 175.318C375.35 174.831 375.656 174.312 376.573 174.17C377.454 174.034 378.102 174.387 378.44 175.116L378.454 175.145C378.666 175.601 378.151 175.672 376.954 176.001C375.692 176.348 374.48 176.877 375.159 178.338C375.746 179.603 377.104 180.138 378.436 179.932ZM378.266 178.881C377.495 179 376.791 178.768 376.503 178.148C376.192 177.478 376.729 177.14 377.474 176.921C377.891 176.798 378.89 176.527 379.002 176.317L379.387 177.146C379.741 177.908 379.402 178.705 378.266 178.881ZM380.9 170.207L379.536 170.418L383.517 178.993L384.881 178.782L380.9 170.207ZM388.693 178.345C389.851 178.166 390.253 177.525 390.29 177.003L390.344 176.995L390.753 177.874L392.085 177.668L390.102 173.397C389.234 171.525 387.455 171.401 386.342 171.573C385.073 171.769 384.123 172.419 384.211 173.662L385.617 173.732C385.606 173.244 385.913 172.725 386.83 172.584C387.711 172.447 388.359 172.8 388.697 173.529L388.71 173.558C388.922 174.015 388.407 174.085 387.21 174.414C385.949 174.762 384.737 175.29 385.415 176.752C386.002 178.016 387.361 178.551 388.693 178.345ZM388.523 177.294C387.752 177.414 387.047 177.182 386.76 176.562C386.449 175.892 386.986 175.553 387.73 175.335C388.148 175.212 389.147 174.94 389.259 174.73L389.644 175.559C389.998 176.321 389.659 177.119 388.523 177.294ZM393.365 173.377C392.889 172.351 393.301 171.659 394.25 171.512C395.176 171.369 395.996 171.839 396.429 172.773L398.258 176.713L399.622 176.502L397.723 172.411C396.985 170.82 395.644 170.134 394.212 170.356C393.158 170.519 392.677 171.073 392.67 171.806L392.583 171.819L392.097 170.772L390.788 170.975L393.773 177.407L395.137 177.196L393.365 173.377ZM404.335 175.912C405.991 175.656 406.639 174.577 406.209 173.302L404.881 173.507C405.031 174.229 404.632 174.731 403.852 174.851C402.698 175.03 401.544 174.261 400.893 172.859C400.254 171.481 400.609 170.497 401.749 170.321C402.616 170.187 403.379 170.607 403.805 171.188L405.132 170.982C404.384 169.707 402.829 169.023 401.237 169.269C399.261 169.574 398.618 171.137 399.529 173.101C400.429 175.04 402.3 176.227 404.335 175.912ZM411.564 174.794C413.093 174.558 413.853 173.699 413.677 172.604L412.287 172.591C412.323 173.236 411.873 173.638 411.098 173.758C409.93 173.938 408.823 173.364 408.211 172.131L413.193 171.36L412.987 170.916C411.908 168.592 409.972 167.918 408.384 168.163C406.431 168.465 405.778 170.029 406.696 172.006C407.623 174.003 409.498 175.114 411.564 174.794ZM407.78 171.192C407.411 170.271 407.765 169.368 408.873 169.196C409.932 169.032 410.959 169.645 411.421 170.629L407.78 171.192Z" opacity=".3"/><g filter="url(#filter2_f)"><circle r="12.5" fill="#F59401" transform="matrix(0.988247 -0.152869 0.421004 0.907059 224.363 219.653)"/></g><circle r="21.5" fill="url(#paint3_linear)" transform="matrix(0.988247 -0.152869 0.421004 0.907059 220.574 211.49)"/><path fill="#fff" d="M216.346 210.689L218.411 206.83L223.545 209.578L224.747 207.332L216.627 202.986L213.36 209.091L216.346 210.689Z"/><path fill="#fff" d="M215.497 212.275L212.511 210.677L211.309 212.923L214.295 214.52L215.497 212.275Z"/><path fill="#fff" d="M217.606 213.403L222.737 216.15L224.804 212.288L227.79 213.885L227.79 213.886L224.521 219.993L216.404 215.649L216.4 215.647L217.606 213.403Z"/><path fill="#fff" d="M228.638 212.303L229.84 210.057L226.854 208.459L225.652 210.705L228.638 212.303Z"/><path fill="#fff" d="M222.697 211.16L222.698 211.16L219.668 209.539L218.767 211.223L218.767 211.223L218.664 211.416L218.45 211.815L218.448 211.819L218.453 211.821L221.48 213.441L222.699 211.162L222.7 211.161L222.697 211.16Z"/><g filter="url(#filter3_ii)"><rect width="255" height="63" fill="#1D1D1D" rx="31.5" transform="matrix(0.988247 -0.152869 0.421004 0.907059 129.873 87.9563)"/></g><path fill="#fff" d="M216.305 120.279L224.492 119.012L223.776 117.47L217.541 118.435L215.854 114.799L221.59 113.912L220.877 112.376L215.141 113.263L213.462 109.645L219.621 108.692L218.905 107.15L210.794 108.405L216.305 120.279ZM221.412 108.415L225.442 107.792L230.238 118.124L232.183 117.823L227.388 107.491L231.424 106.866L230.709 105.324L220.696 106.873L221.412 108.415ZM238.255 116.884L240.206 116.582L237.803 111.404L244.253 110.406L246.656 115.584L248.614 115.281L243.103 103.407L241.145 103.71L243.54 108.87L237.09 109.868L234.695 104.707L232.743 105.009L238.255 116.884Z" opacity=".7"/><path fill="#fff" d="M324.474 103.721C327.114 103.312 328.381 101.563 327.459 99.5923C326.769 98.0897 325.276 97.1647 323.445 97.1869L323.402 97.0942C324.606 96.5662 325.032 95.4563 324.407 94.1237C323.603 92.3776 321.351 91.1288 318.862 91.5138C316.487 91.8812 315.19 93.4925 316.023 95.433L317.912 95.1408C317.45 94.0439 318.261 93.21 319.531 93.0136C320.851 92.8094 322.059 93.4119 322.561 94.5087C323.1 95.6557 322.445 96.5648 321.012 96.7866L319.919 96.9556L320.597 98.4167L321.69 98.2477C323.484 97.9702 324.907 98.6448 325.462 99.8392C325.997 100.993 325.268 101.945 323.745 102.18C322.343 102.397 320.943 101.905 320.378 100.862L318.394 101.169C319.375 103.092 321.858 104.125 324.474 103.721ZM331.182 102.509L339.697 101.192L338.984 99.6553L333.159 100.556L333.119 100.469L334.544 97.6016C335.893 95.0377 336.081 93.8838 335.465 92.556C334.58 90.6485 332.209 89.4493 329.77 89.8265C327.351 90.2007 326.25 91.9122 327.256 94.0806L329.12 93.7924C328.521 92.5178 329.031 91.5441 330.427 91.3282C331.741 91.1249 333.083 91.7127 333.632 92.8955C334.119 93.9449 333.787 94.8042 333.024 96.3701L330.579 101.21L331.182 102.509ZM340.287 98.6147L346.421 97.6659L347.497 99.9851L349.361 99.6969L348.284 97.3777L349.996 97.1129L349.291 95.5938L347.579 95.8586L343.849 87.8226L341.443 88.1949L339.614 97.1652L340.287 98.6147ZM345.728 96.1449L341.629 96.7791L341.586 96.6863L342.888 90.2582L342.989 90.2426L345.728 96.1449ZM353.931 99.108C354.619 99.0015 354.954 98.3966 354.656 97.753C354.362 97.121 353.545 96.6881 352.857 96.7946C352.162 96.9021 351.836 97.5119 352.129 98.1439C352.428 98.7874 353.236 99.2155 353.931 99.108ZM356.122 96.1653L362.255 95.2165L363.332 97.5357L365.195 97.2475L364.119 94.9283L365.831 94.6635L365.126 93.1444L363.414 93.4092L359.684 85.3732L357.277 85.7455L355.449 94.7159L356.122 96.1653ZM361.563 93.6955L357.463 94.3297L357.42 94.2369L358.722 87.8088L358.823 87.7932L361.563 93.6955ZM368.931 96.6696L377.446 95.3524L376.733 93.816L370.908 94.7169L370.868 94.6299L372.293 91.7623C373.642 89.1985 373.83 88.0445 373.214 86.7167C372.329 84.8092 369.958 83.61 367.519 83.9872C365.1 84.3614 363.999 86.0729 365.005 88.2414L366.869 87.9531C366.27 86.6785 366.78 85.7049 368.176 85.4889C369.49 85.2857 370.832 85.8734 371.381 87.0562C371.868 88.1056 371.536 88.9649 370.773 90.5308L368.328 95.3709L368.931 96.6696Z" opacity=".7"/><path fill="#fff" d="M206.227 99.4776L207.637 99.2595L205.902 95.5202L209.871 94.9062L209.356 93.7965L205.386 94.4105L204.174 91.7975L208.558 91.1193L208.041 90.0055L202.247 90.9018L206.227 99.4776ZM213.429 98.3635L214.793 98.1525L212.97 94.2247C212.58 93.3831 213.005 92.6665 213.972 92.5169C214.255 92.4731 214.596 92.4698 214.719 92.4822L214.163 91.2846C214.018 91.289 213.743 91.3181 213.57 91.3449C212.749 91.4719 212.244 92.0077 212.31 92.7382L212.237 92.7495L211.762 91.7277L210.444 91.9317L213.429 98.3635ZM220.992 97.3327C222.968 97.0272 223.643 95.5 222.72 93.511C221.791 91.5094 219.884 90.3817 217.908 90.6873C215.933 90.9929 215.258 92.52 216.187 94.5216C217.11 96.5106 219.017 97.6383 220.992 97.3327ZM220.509 96.281C219.218 96.4807 218.136 95.5396 217.562 94.3043C216.991 93.0732 217.107 91.9332 218.399 91.7335C219.681 91.5352 220.769 92.4889 221.34 93.72C221.913 94.9552 221.791 96.0827 220.509 96.281ZM225.593 96.482L226.957 96.271L225.117 92.3055C224.714 91.4387 225.096 90.7334 225.871 90.6134C226.629 90.4963 227.367 90.8757 227.692 91.575L229.676 95.8504L231.036 95.6401L229.133 91.5406C228.773 90.7659 229.028 90.125 229.918 89.9874C230.639 89.8759 231.403 90.1527 231.807 91.0237L233.755 95.2195L235.119 95.0084L233.117 90.6954C232.435 89.2256 231.201 88.6311 229.932 88.8273C228.924 88.9833 228.373 89.5443 228.354 90.2833L228.281 90.2946C227.649 89.6384 226.807 89.3107 225.872 89.4554C224.946 89.5987 224.453 90.1282 224.49 90.881L224.403 90.8944L223.917 89.8476L222.608 90.0501L225.593 96.482Z" opacity=".3"/><path fill="#fff" d="M321.852 81.592L325.434 81.038C327.605 80.7021 328.125 79.5579 327.515 78.2431C326.899 76.9156 325.538 76.3228 324.591 76.42L324.552 76.3362C325.316 76.0025 325.784 75.3558 325.286 74.2838C324.697 73.015 323.283 72.1792 321.293 72.4868L317.872 73.0161L321.852 81.592ZM322.747 80.2642L321.472 77.5173L323.557 77.1948C324.688 77.0198 325.706 77.5804 326.085 78.3969C326.42 79.1171 326.137 79.7399 324.782 79.9495L322.747 80.2642ZM321.004 76.5081L319.793 73.8994L321.718 73.6015C322.836 73.4286 323.62 73.8863 323.951 74.5981C324.335 75.4272 323.841 76.0692 322.892 76.216L321.004 76.5081ZM332.126 80.1554C333.284 79.9762 333.686 79.3351 333.723 78.8133L333.777 78.8048L334.185 79.6842L335.518 79.4781L333.535 75.2069C332.666 73.3352 330.888 73.2109 329.774 73.3831C328.506 73.5793 327.556 74.2289 327.644 75.472L329.05 75.5417C329.039 75.0542 329.346 74.5355 330.263 74.3936C331.143 74.2574 331.791 74.6105 332.13 75.3391L332.143 75.3684C332.355 75.8248 331.84 75.8955 330.643 76.2243C329.382 76.572 328.17 77.1006 328.848 78.562C329.435 79.8266 330.793 80.3615 332.126 80.1554ZM331.956 79.1046C331.185 79.2238 330.48 78.9917 330.193 78.3719C329.882 77.702 330.419 77.3631 331.163 77.1447C331.581 77.0218 332.579 76.7506 332.692 76.5402L333.077 77.3693C333.431 78.1314 333.092 78.9288 331.956 79.1046ZM334.59 70.4301L333.226 70.6411L337.206 79.2169L338.57 79.0059L334.59 70.4301ZM342.382 78.5688C343.541 78.3896 343.943 77.7485 343.979 77.2267L344.034 77.2182L344.442 78.0976L345.774 77.8915L343.792 73.6204C342.923 71.7486 341.144 71.6243 340.031 71.7965C338.763 71.9927 337.813 72.6424 337.9 73.8854L339.307 73.9551C339.296 73.4676 339.603 72.9489 340.52 72.807C341.4 72.6708 342.048 73.0239 342.386 73.7525L342.4 73.7818C342.612 74.2383 342.097 74.3089 340.9 74.6377C339.638 74.9854 338.427 75.514 339.105 76.9754C339.692 78.24 341.05 78.7749 342.382 78.5688ZM342.212 77.518C341.441 77.6372 340.737 77.4051 340.449 76.7854C340.138 76.1154 340.675 75.7765 341.42 75.5581C341.837 75.4352 342.836 75.164 342.949 74.9536L343.333 75.7827C343.687 76.5448 343.348 77.3423 342.212 77.518ZM347.054 73.6004C346.578 72.5745 346.99 71.8824 347.939 71.7356C348.865 71.5924 349.685 72.0625 350.119 72.9963L351.947 76.9366L353.312 76.7256L351.413 72.6345C350.674 71.0433 349.334 70.3575 347.901 70.5791C346.847 70.7421 346.366 71.2967 346.359 72.0294L346.273 72.0428L345.787 70.9959L344.477 71.1985L347.463 77.6303L348.827 77.4193L347.054 73.6004ZM358.024 76.1357C359.681 75.8795 360.329 74.8008 359.898 73.5255L358.571 73.7309C358.72 74.4528 358.322 74.9542 357.542 75.0749C356.388 75.2534 355.234 74.4849 354.583 73.0821C353.943 71.7045 354.298 70.7205 355.439 70.5441C356.306 70.41 357.068 70.8306 357.494 71.411L358.822 71.2057C358.073 69.9302 356.519 69.2461 354.926 69.4924C352.951 69.798 352.307 71.3607 353.219 73.3246C354.119 75.2633 355.99 76.4505 358.024 76.1357ZM365.254 75.0174C366.782 74.781 367.543 73.9228 367.367 72.828L365.977 72.8142C366.012 73.4594 365.563 73.8611 364.787 73.981C363.619 74.1617 362.512 73.588 361.9 72.3541L366.882 71.5835L366.676 71.1396C365.598 68.8156 363.661 68.1412 362.073 68.3868C360.121 68.6889 359.468 70.253 360.385 72.2294C361.312 74.2268 363.187 75.3371 365.254 75.0174ZM361.47 71.4155C361.101 70.4941 361.454 69.5912 362.563 69.4197C363.621 69.256 364.649 69.869 365.11 70.8523L361.47 71.4155Z" opacity=".3"/><g filter="url(#filter4_f)"><circle r="12.5" fill="#1E93FF" transform="matrix(0.988247 -0.152869 0.421004 0.907059 178.053 119.877)"/></g><circle r="21.5" fill="url(#paint4_linear)" transform="matrix(0.988247 -0.152869 0.421004 0.907059 174.264 111.713)"/><path fill="#fff" d="M175.244 115.106L168.157 113.39L178.501 122.122L179.896 111.574L175.244 115.106Z"/><path fill="#fff" d="M178.484 109.959L169.292 102.274L167.986 111.593L172.162 108.457L178.484 109.959Z"/><path fill="#fff" d="M169.131 112.634L175.121 114.136L179.014 111.101L173.015 109.6L169.131 112.634Z"/><g filter="url(#filter5_f)" opacity=".47"><rect width="152" height="47" fill="#000" rx="23.5" transform="matrix(0.988247 -0.152869 0.421004 0.907059 309.445 116.565)"/></g><rect width="225" height="47" fill="url(#paint5_linear)" rx="23.5" transform="matrix(0.988247 -0.152869 0.421004 0.907059 305.856 86.0107)"/><path fill-rule="evenodd" stroke="#fff" stroke-linecap="round" stroke-linejoin="round" stroke-width="2" d="M347.595 102.912C347.217 103.028 346.79 103.057 346.35 102.999C345.909 102.94 345.466 102.795 345.056 102.576C344.646 102.356 344.279 102.068 343.986 101.734C343.693 101.4 343.481 101.028 343.367 100.65C343.138 100.289 343 99.9066 342.965 99.5325C342.929 99.1584 342.996 98.803 343.161 98.4945C343.326 98.186 343.585 97.9328 343.916 97.755C344.247 97.5772 344.642 97.4797 345.069 97.4701C345.447 97.3551 345.874 97.3256 346.314 97.384C346.755 97.4424 347.198 97.5871 347.608 97.8067C348.018 98.0262 348.384 98.3145 348.678 98.6488C348.971 98.9831 349.183 99.3542 349.297 99.7327C349.526 100.093 349.664 100.476 349.699 100.85C349.735 101.224 349.668 101.58 349.503 101.888C349.337 102.197 349.079 102.45 348.748 102.628C348.417 102.805 348.022 102.903 347.595 102.912V102.912Z" clip-rule="evenodd"/><path stroke="#fff" stroke-linecap="round" stroke-linejoin="round" stroke-width="2" d="M344.045 111.239C342.867 108.699 342.929 106.551 348.858 105.634C354.787 104.716 356.702 106.559 357.881 109.099"/><path stroke="#fff" stroke-linecap="round" stroke-linejoin="round" stroke-width="2" d="M352.677 97.8877L354.474 98.906L356.496 94.7045"/><path fill="#fff" d="M374.458 93.6936L372.34 94.0212L375.036 99.8294L374.948 99.8431L367.909 94.7067L366.042 94.9955L370.328 104.231L372.456 103.902L369.758 98.0891L369.831 98.0777L376.907 103.213L378.745 102.929L374.458 93.6936ZM383.935 102.271C386.225 101.917 386.982 100.258 385.992 98.125C384.996 95.9785 382.905 94.7649 380.616 95.119C378.326 95.4732 377.567 97.1276 378.563 99.2742C379.553 101.407 381.646 102.625 383.935 102.271ZM383.255 100.781C382.198 100.945 381.245 100.14 380.684 98.9316C380.124 97.723 380.25 96.7465 381.306 96.5831C382.343 96.4228 383.297 97.232 383.858 98.4406C384.419 99.6491 384.291 100.621 383.255 100.781ZM392.15 100.855L394.243 100.532L392.424 96.6129C392.029 95.7606 392.435 95.0695 393.358 94.9266C393.648 94.8818 394.067 94.8653 394.291 94.8935L393.5 93.1889C393.294 93.1772 393.021 93.1904 392.81 93.2231C391.965 93.3538 391.481 93.912 391.604 94.8113L391.525 94.8235L390.964 93.6149L388.935 93.9288L392.15 100.855ZM400.962 99.6374C402.829 99.3486 403.7 98.3197 403.398 96.9889L401.408 97.1711C401.441 97.7314 401.028 98.0901 400.331 98.198C399.284 98.3599 398.326 97.8266 397.847 96.794L397.844 96.7895L402.984 95.9945L402.739 95.4669C401.646 93.1129 399.554 92.1896 397.559 92.4982C395.338 92.8417 394.57 94.5119 395.563 96.6494C396.582 98.8456 398.638 99.9968 400.962 99.6374ZM397.292 95.5989C396.97 94.8029 397.33 94.0705 398.259 93.9269C399.168 93.7863 400.073 94.2843 400.461 95.1087L397.292 95.5989ZM410.401 100.971C412.558 100.637 413.672 99.4982 412.85 97.7259L409.604 90.7317L407.525 91.0532L408.065 92.2166L407.987 92.2288C407.445 91.7084 406.511 91.1134 405.248 91.3088C403.592 91.5649 402.74 92.963 403.835 95.3215C404.905 97.6258 406.764 98.4886 408.464 98.2256C409.667 98.0394 410.083 97.3806 410.092 96.7654L410.181 96.7517L410.769 98.0189C411.211 98.9704 410.719 99.4427 409.81 99.5833C408.886 99.7262 408.248 99.4286 407.881 99.0359L406.056 99.5743C406.814 100.627 408.367 101.285 410.401 100.971ZM408.457 96.68C407.43 96.8388 406.523 96.1769 405.968 94.9818C405.422 93.8049 405.589 92.8945 406.626 92.7341C407.643 92.5768 408.579 93.2778 409.142 94.4909C409.709 95.713 409.464 96.5242 408.457 96.68ZM414.484 97.4007L416.577 97.0769L413.362 90.1503L411.269 90.474L414.484 97.4007ZM411.906 89.4185C412.53 89.322 412.838 88.8055 412.589 88.2689C412.342 87.7368 411.628 87.3784 411.004 87.4749C410.385 87.5707 410.077 88.0871 410.324 88.6193C410.573 89.1559 411.287 89.5143 411.906 89.4185ZM422.235 90.8948C421.455 89.6475 419.969 89.0316 418.063 89.3265C416.132 89.6252 415.24 90.6427 415.865 91.9768C416.341 93.0148 417.365 93.5765 418.965 93.619L420.383 93.6559C421.098 93.6758 421.5 93.8504 421.671 94.1961C421.852 94.608 421.501 94.9764 420.769 95.0896C420.022 95.2051 419.39 94.9888 419.001 94.4448L416.988 94.8625C417.8 96.1579 419.407 96.7841 421.407 96.4748C423.362 96.1723 424.338 95.0403 423.708 93.6731C423.239 92.6728 422.248 92.1832 420.656 92.1346L419.173 92.0934C418.406 92.0622 418.043 91.8816 417.893 91.5471C417.695 91.133 418.081 90.7834 418.729 90.683C419.456 90.5706 420.058 90.869 420.369 91.2994L422.235 90.8948ZM426.822 88.0682L425.402 88.2879L424.632 86.6284L422.539 86.9521L423.309 88.6116L422.277 88.7712L422.947 90.2143L423.979 90.0547L425.653 93.6623C426.273 95.0212 427.592 95.5373 429.083 95.2439C429.615 95.1422 429.953 94.9837 430.134 94.8879L429.142 93.5093C429.047 93.5433 428.847 93.6226 428.65 93.653C428.233 93.7176 427.876 93.6181 427.629 93.086L426.072 89.7309L427.492 89.5113L426.822 88.0682ZM431.4 94.784L433.493 94.4602L431.674 90.5414C431.279 89.6891 431.685 88.998 432.608 88.8551C432.898 88.8103 433.317 88.7938 433.541 88.8221L432.75 87.1175C432.544 87.1058 432.271 87.119 432.06 87.1517C431.215 87.2824 430.731 87.8405 430.854 88.7399L430.775 88.752L430.214 87.5435L428.185 87.8573L431.4 94.784ZM439.058 93.7396C440.173 93.5671 440.688 93.0089 440.757 92.3071L440.816 92.2979L441.262 93.2585L443.247 92.9514L441.079 88.2796C440.312 86.6291 438.467 86.1702 436.787 86.4301C434.979 86.7098 434.158 87.6874 434.454 88.9949L436.457 88.8398C436.386 88.3578 436.676 87.9504 437.428 87.8341C438.14 87.7239 438.701 87.99 438.965 88.5582L438.977 88.5853C439.184 89.0317 438.696 89.1701 437.438 89.4903C436.003 89.8476 434.875 90.5151 435.593 92.0618C436.23 93.4327 437.618 93.9623 439.058 93.7396ZM439.042 92.3211C438.398 92.4206 437.809 92.217 437.564 91.6894C437.313 91.1482 437.676 90.8069 438.369 90.5982C438.798 90.4689 439.499 90.2542 439.678 90.0621L440.02 90.7972C440.357 91.5232 439.961 92.179 439.042 92.3211ZM445.67 85.1527L444.25 85.3723L443.48 83.7128L441.387 84.0366L442.157 85.6961L441.125 85.8557L441.795 87.2987L442.827 87.1391L444.501 90.7468C445.121 92.1056 446.44 92.6218 447.931 92.3283C448.463 92.2267 448.801 92.0682 448.983 91.9724L447.99 90.5938C447.895 90.6278 447.695 90.7071 447.498 90.7375C447.081 90.8021 446.724 90.7026 446.477 90.1705L444.92 86.8154L446.34 86.5957L445.67 85.1527ZM450.248 91.8684L452.341 91.5447L449.126 84.618L447.033 84.9418L450.248 91.8684ZM447.67 83.8863C448.294 83.7897 448.602 83.2733 448.353 82.7366C448.106 82.2045 447.392 81.8461 446.768 81.9427C446.149 82.0384 445.841 82.5549 446.088 83.087C446.337 83.6236 447.051 83.982 447.67 83.8863ZM457.49 90.8932C459.78 90.539 460.537 88.8801 459.547 86.747C458.551 84.6005 456.46 83.3869 454.171 83.741C451.881 84.0952 451.122 85.7496 452.118 87.8962C453.108 90.0292 455.201 91.2473 457.49 90.8932ZM456.809 89.4035C455.753 89.5669 454.8 88.7621 454.239 87.5536C453.678 86.345 453.804 85.3685 454.861 85.2051C455.897 85.0448 456.852 85.854 457.413 87.0626C457.974 88.2712 457.846 89.2431 456.809 89.4035ZM462.737 85.6446C462.328 84.7509 462.665 84.1381 463.51 84.0074C464.35 83.8775 465.09 84.3042 465.479 85.1528L467.367 89.2204L469.46 88.8966L467.413 84.4863C466.664 82.8719 465.171 82.0394 463.599 82.2826C462.479 82.4559 461.903 83.0863 461.938 83.946L461.85 83.9597L461.283 82.7376L459.288 83.0462L462.503 89.9728L464.596 89.649L462.737 85.6446ZM477.784 87.754C480.074 87.3998 480.831 85.7409 479.841 83.6079C478.844 81.4613 476.754 80.2477 474.465 80.6019C472.175 80.956 471.416 82.6104 472.412 84.757C473.402 86.89 475.495 88.1081 477.784 87.754ZM477.103 86.2643C476.047 86.4277 475.094 85.6229 474.533 84.4144C473.972 83.2058 474.098 82.2293 475.155 82.0659C476.191 81.9056 477.146 82.7149 477.707 83.9234C478.268 85.132 478.14 86.1039 477.103 86.2643ZM482.797 86.8336L484.89 86.5098L483.071 82.5911C482.675 81.7388 483.081 81.0476 484.005 80.9048C484.295 80.8599 484.714 80.8435 484.937 80.8717L484.146 79.1671C483.941 79.1554 483.668 79.1686 483.456 79.2013C482.611 79.332 482.128 79.8901 482.25 80.7895L482.172 80.8016L481.611 79.5931L479.582 79.907L482.797 86.8336ZM491.699 85.4565L493.827 85.1274L492.608 82.5028L493.111 81.1685L497.629 84.5392L500.174 84.1455L494.029 79.6296L495.844 74.9168L493.294 75.3112L491.563 79.9435L491.43 79.964L489.54 75.8919L487.413 76.221L491.699 85.4565ZM496.362 74.8366L502.803 80.2395L504.319 83.5044L506.431 83.1776L504.916 79.9127L505.815 73.3744L503.432 73.743L502.984 78.0753L502.885 78.0905L498.745 74.468L496.362 74.8366ZM516.748 75.1487C515.478 73.059 513.149 72.1045 510.821 72.4647C508.163 72.8759 506.933 74.9124 508.335 77.9338C509.733 80.9462 512.532 82.3693 515.224 81.9528C517.804 81.5538 518.631 79.739 518.073 78.0032L515.916 78.3271C516.173 79.3458 515.592 80.0448 514.457 80.2203C512.929 80.4567 511.409 79.5753 510.492 77.6002C509.601 75.6791 510.114 74.4252 511.671 74.1843C512.836 74.0042 513.963 74.492 514.596 75.4816L516.748 75.1487Z"/><path fill="#666" d="M496.823 259.313C496.235 259.752 496.3 260.612 496.968 261.236L507.851 271.392C508.519 272.015 509.537 272.165 510.125 271.727C510.713 271.288 510.649 270.428 509.981 269.804L500.307 260.776L508.825 254.425C509.413 253.987 509.349 253.126 508.681 252.503C508.013 251.88 506.995 251.73 506.407 252.168L496.823 259.313ZM518.999 114.256C544.699 130.197 557.174 146.685 561.274 161.527C565.386 176.411 561.141 189.882 552.866 199.741C544.57 209.624 532.372 215.705 520.894 216.026C515.185 216.186 509.726 214.924 504.976 212.081C500.231 209.242 495.995 204.707 492.903 198.043L489.938 198.502C493.266 205.672 497.983 210.871 503.585 214.223C509.181 217.573 515.462 218.961 521.745 218.785C534.25 218.434 547.046 211.899 555.631 201.672C564.237 191.42 568.761 177.285 564.405 161.519C560.038 145.71 546.812 128.502 520.451 112.151L518.999 114.256ZM492.903 198.043C486.663 184.6 487.765 173.846 493.199 166.03C498.655 158.184 508.541 153.216 520.033 151.557C531.525 149.898 544.504 151.565 556.069 156.848C567.591 162.112 577.799 171.003 583.822 183.98L586.786 183.521C580.39 169.739 569.442 160.15 557.019 154.474C544.639 148.818 530.885 147.086 518.801 148.831C506.717 150.576 496.184 155.815 490.326 164.24C484.446 172.697 483.337 184.281 489.938 198.502L492.903 198.043ZM583.822 183.98C595.967 210.148 588.837 230.957 571.504 244.244C554.128 257.565 526.512 263.288 497.93 259.083L498.135 261.801C527.532 266.127 555.972 260.262 573.946 246.484C591.964 232.671 599.48 210.869 586.786 183.521L583.822 183.98Z" opacity=".7"/><defs><filter id="filter0_f" width="630.805" height="492.544" x=".509" y="42.828" color-interpolation-filters="sRGB" filterUnits="userSpaceOnUse"><feFlood flood-opacity="0" result="BackgroundImageFix"/><feBlend in="SourceGraphic" in2="BackgroundImageFix" mode="normal" result="shape"/><feGaussianBlur result="effect1_foregroundBlur" stdDeviation="50"/></filter><filter id="filter1_ii" width="257.434" height="91.311" x="186.729" y="153.159" color-interpolation-filters="sRGB" filterUnits="userSpaceOnUse"><feFlood flood-opacity="0" result="BackgroundImageFix"/><feBlend in="SourceGraphic" in2="BackgroundImageFix" mode="normal" result="shape"/><feColorMatrix in="SourceAlpha" result="hardAlpha" type="matrix" values="0 0 0 0 0 0 0 0 0 0 0 0 0 0 0 0 0 0 127 0"/><feOffset dy="4"/><feGaussianBlur stdDeviation="12.5"/><feComposite in2="hardAlpha" k2="-1" k3="1" operator="arithmetic"/><feColorMatrix type="matrix" values="0 0 0 0 0 0 0 0 0 0 0 0 0 0 0 0 0 0 0.25 0"/><feBlend in2="shape" mode="normal" result="effect1_innerShadow"/><feColorMatrix in="SourceAlpha" result="hardAlpha" type="matrix" values="0 0 0 0 0 0 0 0 0 0 0 0 0 0 0 0 0 0 127 0"/><feOffset dy="-1"/><feComposite in2="hardAlpha" k2="-1" k3="1" operator="arithmetic"/><feColorMatrix type="matrix" values="0 0 0 0 0.504167 0 0 0 0 0.504167 0 0 0 0 0.504167 0 0 0 0.15 0"/><feBlend in2="effect1_innerShadow" mode="normal" result="effect2_innerShadow"/></filter><filter id="filter2_f" width="74.862" height="71" x="186.933" y="184.153" color-interpolation-filters="sRGB" filterUnits="userSpaceOnUse"><feFlood flood-opacity="0" result="BackgroundImageFix"/><feBlend in="SourceGraphic" in2="BackgroundImageFix" mode="normal" result="shape"/><feGaussianBlur result="effect1_foregroundBlur" stdDeviation="12"/></filter><filter id="filter3_ii" width="257.434" height="91.311" x="140.418" y="53.383" color-interpolation-filters="sRGB" filterUnits="userSpaceOnUse"><feFlood flood-opacity="0" result="BackgroundImageFix"/><feBlend in="SourceGraphic" in2="BackgroundImageFix" mode="normal" result="shape"/><feColorMatrix in="SourceAlpha" result="hardAlpha" type="matrix" values="0 0 0 0 0 0 0 0 0 0 0 0 0 0 0 0 0 0 127 0"/><feOffset dy="4"/><feGaussianBlur stdDeviation="12.5"/><feComposite in2="hardAlpha" k2="-1" k3="1" operator="arithmetic"/><feColorMatrix type="matrix" values="0 0 0 0 0 0 0 0 0 0 0 0 0 0 0 0 0 0 0.25 0"/><feBlend in2="shape" mode="normal" result="effect1_innerShadow"/><feColorMatrix in="SourceAlpha" result="hardAlpha" type="matrix" values="0 0 0 0 0 0 0 0 0 0 0 0 0 0 0 0 0 0 127 0"/><feOffset dy="-1"/><feComposite in2="hardAlpha" k2="-1" k3="1" operator="arithmetic"/><feColorMatrix type="matrix" values="0 0 0 0 0.504167 0 0 0 0 0.504167 0 0 0 0 0.504167 0 0 0 0.15 0"/><feBlend in2="effect1_innerShadow" mode="normal" result="effect2_innerShadow"/></filter><filter id="filter4_f" width="74.862" height="71" x="140.622" y="84.377" color-interpolation-filters="sRGB" filterUnits="userSpaceOnUse"><feFlood flood-opacity="0" result="BackgroundImageFix"/><feBlend in="SourceGraphic" in2="BackgroundImageFix" mode="normal" result="shape"/><feGaussianBlur result="effect1_foregroundBlur" stdDeviation="12"/></filter><filter id="filter5_f" width="240.266" height="145.291" x="274.313" y="53.618" color-interpolation-filters="sRGB" filterUnits="userSpaceOnUse"><feFlood flood-opacity="0" result="BackgroundImageFix"/><feBlend in="SourceGraphic" in2="BackgroundImageFix" mode="normal" result="shape"/><feGaussianBlur result="effect1_foregroundBlur" stdDeviation="21.5"/></filter><linearGradient id="paint0_linear" x1="169.5" x2="169.5" y1="0" y2="363" gradientUnits="userSpaceOnUse"><stop stop-color="#252525"/><stop offset="1" stop-color="#252525" stop-opacity="0"/></linearGradient><linearGradient id="paint1_linear" x1="169.5" x2="169.5" y1="0" y2="363" gradientUnits="userSpaceOnUse"><stop stop-color="#242424"/><stop offset="1" stop-color="#252525" stop-opacity="0"/></linearGradient><linearGradient id="paint2_linear" x1="169.5" x2="169.5" y1="0" y2="363" gradientUnits="userSpaceOnUse"><stop stop-color="#2E2E2E"/><stop offset="1" stop-color="#252525"/></linearGradient><linearGradient id="paint3_linear" x1="21.5" x2="21.5" y1="0" y2="43" gradientUnits="userSpaceOnUse"><stop stop-color="#FFBE1A"/><stop offset="1" stop-color="#F59300"/></linearGradient><linearGradient id="paint4_linear" x1="21.5" x2="21.5" y1="0" y2="43" gradientUnits="userSpaceOnUse"><stop stop-color="#2DBEFF"/><stop offset="1" stop-color="#0072DB"/></linearGradient><linearGradient id="paint5_linear" x1="112.5" x2="112.5" y1="0" y2="47" gradientUnits="userSpaceOnUse"><stop stop-color="#00E685"/><stop offset="1" stop-color="#009B5A"/></linearGradient></defs></svg>