<svg width="192" height="161" viewBox="0 0 192 161" fill="none" xmlns="http://www.w3.org/2000/svg">
<path fill-rule="evenodd" clip-rule="evenodd" d="M50.423 85.9905C40.1195 82.3919 31.9388 78.4426 25.8614 75.0198C13.7927 68.2239 3.96296 59.8833 3.55818 56.0671C3.40066 54.8011 4.07987 53.6742 5.23021 53.2207C13.0725 50.2108 33.9481 47.5607 53.7669 49.9179C56.2724 36.8912 65.006 26.629 77.466 22.2728C91.4585 17.397 106.867 20.7906 117.753 31.1739C124.286 37.3818 128.439 44.8813 130.193 53.46C130.212 53.5324 130.231 53.625 130.251 53.7311C130.279 53.8735 130.312 54.0401 130.359 54.215C130.809 56.1657 131.134 57.7865 131.285 59.1634C141.132 60.922 153.05 64.851 164.344 70.1103C182.829 78.7228 182.358 81.9878 182.205 83.0525L182.204 83.0584L182.2 83.0812C182.068 83.8041 181.896 84.7527 175.86 87.5927C172.633 89.1115 167.162 91.3407 159.386 93.2425C154.51 94.4399 148.357 95.6162 140.894 96.3804C142.064 99.1194 143.345 101.865 144.607 104.543C144.712 104.766 144.818 104.99 144.923 105.214C146.344 108.229 147.802 111.325 149.092 114.498C150.234 114.555 151.335 114.732 152.371 115.072C153.561 115.444 154.66 116.022 155.713 116.83C157.913 118.53 158.786 120.84 158.058 123.142C157.331 125.445 155.047 127.365 152.368 128.083C151.792 128.237 151.207 128.358 150.594 128.376C147.481 128.557 144.865 126.932 143.607 123.998C142.96 122.536 142.832 120.972 142.84 119.916C142.858 117.949 143.394 116.424 143.985 115.103C144.075 114.897 144.174 114.725 144.317 114.578C143.147 111.839 141.866 109.093 140.603 106.415C139.112 103.29 137.584 100.029 136.235 96.7568C125.868 97.5357 113.234 97.5779 98.2658 96.1013C98.2625 96.1566 98.2615 96.2205 98.2604 96.2844C98.2593 96.3483 98.2583 96.4122 98.255 96.4676C97.9298 100.263 97.8164 104.209 97.7066 108.025L97.6971 108.355C97.6859 108.768 97.6751 109.182 97.6642 109.598C97.604 111.91 97.5427 114.263 97.4018 116.61C97.9649 116.677 98.5147 116.966 98.9064 117.479C99.5949 118.421 100.381 119.591 100.83 120.997C102.251 125.486 99.5581 127.37 98.7062 127.853C96.049 129.328 91.8537 128.454 89.7682 125.96C87.8572 123.71 87.9872 120.804 90.08 118.172C90.9718 117.025 92.0379 116.121 92.946 115.442C93.0675 113.047 93.1369 110.594 93.1906 108.218C93.2038 107.807 93.2167 107.396 93.2297 106.984C93.3429 103.381 93.4582 99.7082 93.7866 96.0659C93.7848 95.9586 93.8066 95.865 93.8309 95.761C93.8393 95.7248 93.8481 95.6873 93.8562 95.6475C92.8557 95.5282 91.8401 95.4002 90.8114 95.2705C90.1031 95.1812 89.3886 95.0911 88.6685 95.0026C75.6721 93.2884 64.3612 90.5412 54.705 87.4596C52.6649 90.6954 50.5139 93.9245 48.4375 97.0246C46.7266 99.5907 45.0158 102.157 43.348 104.748C43.2487 104.92 43.1403 105.058 42.989 105.171C42.9766 105.193 42.9749 105.22 42.9733 105.248C42.9716 105.276 42.9699 105.303 42.9575 105.325C42.9352 105.512 42.8698 105.675 42.8044 105.838L42.8044 105.838L42.8135 105.872C43.0927 106.779 43.3718 107.685 43.5427 108.729C43.702 109.595 43.8389 110.649 43.6889 111.852C43.3755 114.479 41.8468 116.234 39.6224 116.612C36.8034 117.076 33.4229 115.038 31.9586 112.015C30.653 109.312 31.2262 106.433 33.5074 104.368C34.5396 103.474 35.6966 102.91 37.1479 102.63C37.9798 102.48 38.7711 102.449 39.5128 102.505C39.5304 102.474 39.5437 102.445 39.5562 102.418C39.579 102.368 39.5989 102.324 39.6369 102.29C41.3386 99.6899 43.0404 97.0899 44.7851 94.5147C46.6539 91.7246 48.5723 88.8485 50.423 85.9905ZM39.3198 111.278C39.3712 110.792 39.3457 110.29 39.2046 109.492C39.0776 108.757 38.8567 108.048 38.6078 107.249L38.5777 107.152L38.5141 106.915C38.3355 106.927 38.1569 106.938 37.9874 106.984L37.6483 107.074C37.2076 107.193 36.8867 107.351 36.5683 107.655C35.7552 108.418 35.5887 109.153 36.0217 110.09C36.6836 111.476 38.2561 112.326 38.9523 112.212C39.1558 112.158 39.2659 111.62 39.3198 111.278ZM93.2107 123.075C93.967 123.999 95.8124 124.377 96.5717 123.955C96.9852 123.735 96.7218 122.752 96.5698 122.32C96.3269 121.55 95.8376 120.809 95.3326 120.144C95.2103 119.959 95.0788 119.74 95.0243 119.537C94.5454 119.919 94.026 120.422 93.6174 120.931C92.5676 122.303 93.0024 122.84 93.2107 123.075ZM147.419 118.994C147.381 119.293 147.345 119.581 147.344 119.908C147.334 120.819 147.475 121.617 147.706 122.209C148.255 123.443 149.123 123.974 150.383 123.927C151.99 123.823 153.513 122.725 153.813 121.809L153.816 121.797C153.875 121.594 154.012 121.118 153.022 120.349C152.384 119.866 151.748 119.528 151.071 119.309C150.155 119.009 149.174 118.873 148.127 118.899C147.872 118.895 147.641 118.847 147.444 118.791C147.436 118.86 147.427 118.927 147.419 118.994ZM114.682 34.3589C105.016 25.1386 91.342 22.116 78.9498 26.454C70.7726 29.2992 64.4576 35.025 60.8375 42.5361C61.2559 42.6057 61.6585 42.7522 61.9958 43.0616C77.0136 56.1171 105.38 58.9095 123.965 49.2053C124.092 49.1351 124.219 49.0648 124.354 49.0285C122.371 43.5274 119.13 38.618 114.682 34.3589ZM125.619 53.3411C105.67 63.5194 75.418 60.4693 59.2279 46.565C58.579 48.4832 58.1269 50.4576 57.8649 52.5992C63.2945 56.995 71.6714 60.4557 82.7715 62.8233C88.0525 63.952 94.2597 64.4692 101.71 64.4716C107.415 64.4693 114.903 64.2071 122.041 62.3671C122.163 62.3344 122.301 62.3049 122.452 62.2724C122.637 62.2327 122.843 62.1884 123.067 62.1284L123.09 62.1235C123.898 61.9441 126.162 61.4418 126.93 60.948C126.912 60.8804 126.928 60.8036 126.944 60.7269L126.944 60.7264C126.965 59.9938 126.803 58.4384 126.042 55.1901C125.984 54.9756 125.947 54.7917 125.915 54.6355C125.892 54.5201 125.872 54.4198 125.848 54.3334C125.802 54.1594 125.764 53.9831 125.727 53.8113C125.692 53.6484 125.659 53.4897 125.619 53.3411ZM54.3886 55.493C54.0514 55.1836 53.7976 54.7792 53.6886 54.3723C35.0456 52.0635 16.5168 54.5208 8.73678 56.6781C11.0148 59.4837 17.6626 65.4427 28.955 71.6471C40.7815 78.2172 60.8837 86.7852 89.2669 90.5905C143.541 97.8514 169.932 85.9469 176.722 82.1289C171.267 77.7761 149.501 66.9287 130.533 63.544C129.325 65.1395 126.85 65.8026 124.009 66.455C123.661 66.5119 123.356 66.5936 123.118 66.6572L123.118 66.6573C115.471 68.6336 107.66 68.9097 101.666 68.9169C93.892 68.9285 87.3772 68.3484 81.7887 67.1567C69.4061 64.4786 60.4274 60.6704 54.3886 55.493ZM53.4677 62.4989C52.8574 62.6624 52.2174 62.5795 51.6404 62.189C51.0203 61.7737 50.3821 61.2906 49.6059 60.6992C48.6304 59.9067 48.5134 58.5208 49.272 57.5544C50.0644 56.579 51.4504 56.462 52.4168 57.2205C53.0731 57.7714 53.6162 58.171 54.1503 58.5367C55.1663 59.2093 55.428 60.5927 54.7215 61.6178C54.4055 62.0659 53.9763 62.3626 53.4677 62.4989ZM73.67 73.4748L73.3103 73.3531C72.1793 72.9294 71.5786 71.6368 71.9502 70.447C72.3988 69.273 73.6665 68.7152 74.8315 69.1299L74.0494 71.2291L74.9174 69.1795L75.1233 69.2697C76.2883 69.6844 76.9138 70.934 76.4992 72.099C76.2558 72.8183 75.6686 73.339 74.9905 73.5207C74.5497 73.6388 74.1156 73.6461 73.67 73.4748ZM116.998 48.5647L117.134 48.5283L117.211 48.5018L117.347 48.4553C117.784 48.3059 118.324 48.1209 118.852 47.8864C119.993 47.3989 120.516 46.0959 120.028 44.9546C119.541 43.8134 118.238 43.2904 117.097 43.7779C116.64 43.9729 116.208 44.1249 115.743 44.286C114.574 44.6718 113.931 45.9342 114.317 47.1027C114.694 48.2373 115.879 48.8645 116.998 48.5647ZM64.1589 68.9009C63.6842 69.0281 63.1641 68.9857 62.6755 68.7896C61.6911 68.3583 60.7598 67.8667 59.9091 67.4176C59.6924 67.3032 59.4808 67.1915 59.275 67.0843C58.2094 66.4977 57.803 65.1167 58.3896 64.051C58.9762 62.9853 60.3572 62.579 61.4229 63.1656C62.3257 63.6868 63.3822 64.2395 64.4546 64.7153C65.6038 65.2068 66.1028 66.5267 65.6022 67.642C65.3407 68.2935 64.8031 68.7283 64.1589 68.9009ZM107.369 50.6L108.524 50.4359L108.761 50.3723C109.846 50.0815 110.544 49.0225 110.388 47.9012C110.206 46.6782 109.077 45.8543 107.854 46.0366L106.699 46.2008C105.51 46.374 104.652 47.5124 104.834 48.7354C105.007 49.9245 106.146 50.7824 107.369 50.6Z" fill="#414141"/>
</svg>
