<svg xmlns="http://www.w3.org/2000/svg" width="48" height="48" fill="none" viewBox="0 0 48 48"><path fill-rule="evenodd" stroke="#61D766" stroke-linecap="round" stroke-linejoin="round" stroke-width="1.5" d="M20 22C19.185 22.1162 18.3541 22.0412 17.5731 21.7808C16.7921 21.5204 16.0825 21.0818 15.5003 20.4996C14.9182 19.9175 14.4796 19.2078 14.2192 18.4268C13.9588 17.6459 13.8837 16.815 14 16C13.8837 15.1849 13.9588 14.3541 14.2192 13.5731C14.4796 12.7921 14.9182 12.0824 15.5003 11.5003C16.0825 10.9181 16.7921 10.4795 17.5731 10.2191C18.3541 9.9587 19.185 9.88367 20 9.99995C20.815 9.88367 21.6459 9.9587 22.4269 10.2191C23.2079 10.4795 23.9176 10.9181 24.4997 11.5003C25.0818 12.0824 25.5205 12.7921 25.7809 13.5731C26.0413 14.3541 26.1163 15.1849 26 16C26.1163 16.815 26.0413 17.6459 25.7809 18.4268C25.5205 19.2078 25.0818 19.9175 24.4997 20.4996C23.9176 21.0818 23.2079 21.5204 22.4269 21.7808C21.6459 22.0412 20.815 22.1162 20 22V22Z" clip-rule="evenodd"/><path stroke="#61D766" stroke-linecap="round" stroke-linejoin="round" stroke-width="1.5" d="M6 38C6 32.4 8 28 20 28C32 28 34 32.4 34 38"/><path stroke="#fff" stroke-linecap="round" stroke-linejoin="round" stroke-width="1.5" d="M30 10C32 10 34 12 34 16C34 20 32 22 30 22"/><path stroke="#fff" stroke-linecap="round" stroke-linejoin="round" stroke-width="1.5" d="M38 30C41.2 31.8 42 34.626 42 38"/></svg>