<svg width="46" height="41" viewBox="0 0 46 41" fill="none" xmlns="http://www.w3.org/2000/svg">
<path fill-rule="evenodd" clip-rule="evenodd" d="M6.35986 3.07149C3.54045 4.76084 0.95461 6.49336 0.614172 6.9215C0.0759116 7.59818 -0.00442044 8.53828 0.000180078 14.1001C0.00371893 18.4657 0.144212 20.7722 0.442537 21.3564C1.05016 22.5472 11.1628 28.6203 12.579 28.645C13.3555 28.6584 16.332 27.071 23.0895 23.0399C28.804 19.6311 32.8861 17.4161 33.4544 17.4161C33.97 17.4161 35.8831 18.3159 37.7056 19.4156C41.6405 21.79 41.8999 22.3132 41.7024 27.4832C41.5506 31.4587 41.3581 31.7345 36.9642 34.2631C34.664 35.5867 33.7386 35.9401 33.0414 35.7608C31.6645 35.4063 26.5618 32.2711 25.9828 31.4232C25.6721 30.9685 25.4746 29.7941 25.4746 28.4015C25.4746 27.149 25.355 26.1247 25.2092 26.1255C25.0634 26.1262 24.0679 26.6664 22.9974 27.3257L21.0511 28.5245L20.9474 30.9141C20.8118 34.0338 21.1169 34.3745 27.3746 38.0877C31.0037 40.2414 32.6107 41.0001 33.5422 41.0001C34.4732 41.0001 36.1015 40.232 39.7819 38.0565C42.5206 36.4379 45.0399 34.8614 45.3807 34.5533C45.931 34.0562 46 33.1978 46 26.8337C46 20.536 45.9253 19.5851 45.3807 18.9392C45.0399 18.535 42.3401 16.7833 39.3809 15.0457C35.1184 12.5432 33.8136 11.9347 33.1016 12.118C32.6072 12.245 30.8084 13.2116 29.1041 14.2659C27.3998 15.32 24.8907 16.8094 23.5283 17.5753C22.1658 18.3413 19.356 20.0067 17.2843 21.2762C15.2127 22.5454 13.1492 23.5842 12.699 23.5842C11.6646 23.5842 5.43551 19.7988 4.95493 18.8779C4.75711 18.4991 4.59538 16.3315 4.59538 14.0609C4.59538 10.0197 4.61591 9.91305 5.56857 9.02121C7.1515 7.53904 11.5415 5.07977 12.6042 5.07977C13.5912 5.07977 19.8829 8.67108 20.4024 9.53063C20.551 9.77663 20.7577 11.1325 20.8617 12.5439L21.0511 15.1099L23.0859 13.8886L25.1208 12.6669V9.83649C25.1208 7.59782 24.9912 6.88848 24.5015 6.44256C24.1607 6.13271 21.6863 4.5562 19.0021 2.93942C15.258 0.68406 13.8155 0.00012207 12.8045 0.00012207C11.7906 0.00012207 10.3032 0.709095 6.35986 3.07149Z" fill="white"/>
</svg>
