<svg width="43" height="43" viewBox="0 0 43 43" fill="none" xmlns="http://www.w3.org/2000/svg">
<path fill-rule="evenodd" clip-rule="evenodd" d="M18.6313 0.364936C9.74238 1.78431 2.84474 7.83839 0.577862 16.2105C-0.192621 19.0554 -0.192621 24.1804 0.577862 27.0254C2.57076 34.3858 8.48522 40.3003 15.8456 42.2932C18.6906 43.0636 23.8156 43.0636 26.6606 42.2932C32.3063 40.7646 37.4191 36.7271 39.9986 31.7607C41.87 28.1574 42.5051 25.5877 42.5051 21.6179C42.5051 17.6482 41.87 15.0785 39.9986 11.4752C37.4247 6.51929 32.2207 2.40503 26.7353 0.988597C24.5693 0.429498 20.2906 0.100133 18.6313 0.364936ZM21.9583 5.64623C22.1658 5.77863 23.267 7.50935 24.4051 9.49209C27.4323 14.7658 27.5113 14.289 22.0403 23.7481C16.6469 33.0726 16.8219 32.9245 11.2093 32.9245C7.04749 32.9245 6.01384 32.6318 6.01384 31.4533C6.01384 30.5563 19.4712 6.49865 20.3613 5.80518C20.9562 5.34145 21.4097 5.29622 21.9583 5.64623ZM31.3113 21.6999C32.3882 22.9564 36.4923 30.6874 36.4923 31.4605C36.4923 32.0442 36.2465 32.3785 35.6517 32.6049C34.7406 32.9513 25.9835 33.0415 24.7725 32.717C23.7992 32.4561 23.4741 31.1279 24.1112 30.0152C28.4191 22.493 29.3341 21.1263 30.0633 21.1263C30.4792 21.1263 31.0406 21.3843 31.3113 21.6999Z" fill="white"/>
</svg>
